<?xml version="1.0" encoding="utf-8"?>
<!-- Generator: Adobe Illustrator 25.3.0, SVG Export Plug-In . SVG Version: 6.00 Build 0)  -->
<svg version="1.1" id="Layer_1" xmlns="http://www.w3.org/2000/svg" xmlns:xlink="http://www.w3.org/1999/xlink" x="0px" y="0px"
	 viewBox="0 0 80 80" style="enable-background:new 0 0 80 80;" xml:space="preserve">
<style type="text/css">
	.st0{fill:#4D91A1;}
	.st1{fill:#3A7C93;}
	.st2{fill:#FFFFFF;stroke:#3A7C93;stroke-width:0.6242;stroke-miterlimit:10;}
</style>
<g>
	<polygon class="st0" points="64.2,29.2 64.2,66 59.5,66 59.5,60.5 58.3,60.5 58.3,66 49.4,66 49.4,60.5 48.2,60.5 48.2,66 15.8,66 
		15.8,29.2 	"/>
	<path class="st1" d="M48.2,60.5V66H11.7c-1.5,0-2.8-1.2-2.8-2.8c0-1.5,1.2-2.8,2.8-2.8H48.2z"/>
	<rect x="49.4" y="60.5" class="st1" width="8.9" height="5.5"/>
	<path class="st1" d="M71.1,63.3c0,1.5-1.2,2.8-2.8,2.8h-8.8v-5.5h8.8C69.9,60.5,71.1,61.7,71.1,63.3z"/>
	<path class="st1" d="M58.3,60.5v6.4h-8.9v-6.4h-1.2v18.6c0,0.4,0.3,0.6,0.6,0.6c0.3,0,0.6-0.3,0.6-0.6v-0.6h8.9v0.6
		c0,0.4,0.3,0.6,0.6,0.6c0.3,0,0.6-0.3,0.6-0.6V60.5H58.3z M58.3,77.7h-8.9V77h8.9V77.7z M58.3,76.1h-8.9v-0.7h8.9V76.1z M58.3,74.6
		h-8.9v-0.7h8.9V74.6z M58.3,73h-8.9v-0.7h8.9V73z M58.3,71.5h-8.9v-0.7h8.9V71.5z M58.3,69.9h-8.9v-0.7h8.9V69.9z M58.3,68.4h-8.9
		v-0.7h8.9V68.4z"/>
	<path class="st1" d="M71.1,27.1c-0.1,1.2-1.4,2.2-2.9,2.2H11.8c-1.5,0-2.8-0.9-2.9-2.2c-0.1-0.7,0.2-1.4,0.8-1.8l0.1-0.1l28-24.1
		c1.2-1,3.2-1,4.4,0l28,24.1l0.1,0.1C70.8,25.7,71.2,26.3,71.1,27.1z"/>
	<path class="st2" d="M39.2,36.3v6.4c0,0.7-0.6,1.2-1.2,1.2H21.6c-0.7,0-1.2-0.6-1.2-1.2v-6.4c0-0.7,0.6-1.2,1.2-1.2H38
		C38.7,35.1,39.2,35.6,39.2,36.3z"/>
	<g>
		<path class="st1" d="M57,60h-6.4c-0.7,0-1.2-0.6-1.2-1.2V46.7c0-0.7,0.6-1.2,1.2-1.2H57c0.7,0,1.2,0.6,1.2,1.2v12.1
			C58.3,59.4,57.7,60,57,60z"/>
		<path class="st0" d="M57.5,54.2h-3.2c-0.1,0-0.2-0.1-0.2-0.2v-0.4c0-0.1,0.1-0.2,0.2-0.2h3.2c0.1,0,0.2,0.1,0.2,0.2V54
			C57.7,54.1,57.6,54.2,57.5,54.2z"/>
	</g>
	<g>
		<path class="st1" d="M15.9,79.7L15.9,79.7c0.5,0,0.9-0.4,0.9-0.9V29.2h-1.9v49.5C14.9,79.3,15.4,79.7,15.9,79.7z"/>
		<path class="st1" d="M64.1,79.7L64.1,79.7c-0.5,0-0.9-0.4-0.9-0.9V29.2H65v49.5C65,79.3,64.6,79.7,64.1,79.7z"/>
	</g>
</g>
</svg>
