<?xml version="1.0" encoding="utf-8"?>
<!-- Generator: Adobe Illustrator 25.3.0, SVG Export Plug-In . SVG Version: 6.00 Build 0)  -->
<svg version="1.1" id="Layer_1" xmlns="http://www.w3.org/2000/svg" xmlns:xlink="http://www.w3.org/1999/xlink" x="0px" y="0px"
	 viewBox="0 0 80 80" style="enable-background:new 0 0 80 80;" xml:space="preserve">
<style type="text/css">
	.st0{opacity:0.5;fill:#0B2C3D;}
	.st1{fill:#FFFFFF;}
	.st2{font-family:'RoundedMplus1c-Regular';}
	.st3{font-size:34.2857px;}
</style>
<g>
	<path class="st0" d="M-87.7-58.2v31c0,7.4-5.9,13.4-13.1,13.4h-48.7c-7.3,0-13.1-6-13.1-13.4v-31c0-2.1,0.9-4,2.6-5.3l2-1.5
		c0,0,0,0,0,0l29.1-22.5c2.3-1.8,5.5-1.8,7.8,0L-92.2-65l0,0l2,1.5C-88.6-62.2-87.7-60.3-87.7-58.2z"/>
	<text transform="matrix(1 0 0 1 -142.3187 -29.1337)" class="st1 st2 st3">一</text>
</g>
<g>
	<path class="st0" d="M88.3-71.8v31c0,7.4-5.9,13.4-13.1,13.4H26.5c-7.3,0-13.1-6-13.1-13.4v-31c0-2.1,0.9-4,2.6-5.3l2-1.5
		c0,0,0,0,0,0L46.9-101c2.3-1.8,5.5-1.8,7.8,0l29.1,22.5l0,0l2,1.5C87.4-75.8,88.3-73.8,88.3-71.8z"/>
	<text transform="matrix(1 0 0 1 33.6803 -43.9813)" class="st1 st2 st3">二</text>
</g>
<g>
	<path class="st0" d="M214.4-80.4v31c0,7.4-5.9,13.4-13.1,13.4h-48.7c-7.3,0-13.1-6-13.1-13.4v-31c0-2.1,0.9-4,2.6-5.3l2-1.5
		c0,0,0,0,0,0l29.1-22.5c2.3-1.8,5.5-1.8,7.8,0l29.1,22.5l0,0l2,1.5C213.5-84.4,214.4-82.4,214.4-80.4z"/>
	<text transform="matrix(1 0 0 1 159.7974 -52.4582)" class="st1 st2 st3">三</text>
</g>
<g>
	<path class="st0" d="M77.5,33.1v31c0,7.4-5.9,13.4-13.1,13.4H15.6c-7.3,0-13.1-6-13.1-13.4v-31c0-2.1,0.9-4,2.6-5.3l2-1.5
		c0,0,0,0,0,0L36.1,3.8c2.3-1.8,5.5-1.8,7.8,0L73,26.3l0,0l2,1.5C76.6,29.1,77.5,31,77.5,33.1z"/>
	<text transform="matrix(1 0 0 1 22.8566 61.97)" class="st1 st2 st3">四</text>
</g>
<text transform="matrix(1 0 0 1 29.7223 -176.7696)" style="font-family:'MyriadPro-Regular'; font-size:35px;">M PLUS ROUNDED</text>
</svg>
