<?xml version="1.0" encoding="utf-8"?>
<!-- Generator: Adobe Illustrator 25.3.0, SVG Export Plug-In . SVG Version: 6.00 Build 0)  -->
<svg version="1.1" id="Layer_1" xmlns="http://www.w3.org/2000/svg" xmlns:xlink="http://www.w3.org/1999/xlink" x="0px" y="0px"
	 viewBox="0 0 1080 1080" style="enable-background:new 0 0 1080 1080;" xml:space="preserve">
<style type="text/css">
	.st0{fill:#4C91A1;}
</style>
<g>
	<line class="st0" x1="779.99" y1="415.25" x2="780" y2="415.24"/>
	<path class="st0" d="M567.32,602.48l-0.01,0.01l0.04,0.03L567.32,602.48z M567.35,602.52l0.09,0.12l0.01-0.02L567.35,602.52z"/>
	<path class="st0" d="M780,415.24l-0.01,0.01"/>
	<path class="st0" d="M569.39,592.66l-0.01-0.01h0.01V592.66z M622.58,558.78l-0.01-0.05h0.02l0.01,0.05H622.58z M779.99,415.25
		l0.01-0.01"/>
	<polygon class="st0" points="824.02,448.21 822.85,450.6 823.49,452.8 822.62,457.59 821.25,460.08 821.92,460.37 819.52,464.06 
		819.91,464.17 822.75,461.88 821.94,465.07 822.86,465.45 823.02,466.67 822.64,467.17 821.63,467.04 819.79,468.53 818.58,468.63 
		818.9,470.2 821.19,468.9 821.7,468.95 821.86,469.61 820.63,471.53 818.76,471.48 817.11,472.05 815.34,473.59 815.73,474.28 
		817.15,473.95 817.62,474.98 814.82,474.73 815.25,475.5 815.84,475.93 815.73,476.66 814.44,476.25 815.06,477.3 815.85,477.49 
		816.09,478.7 814.29,478.95 813.15,478.6 813.02,479.17 813.68,479.8 814.59,479.84 814.51,480.22 813.25,480.78 812.1,480.43 
		811.58,480.75 813.78,483.08 812.3,483.19 810.53,481.84 810.46,483.45 811.96,484.28 809.96,484.06 810.89,485.27 810.35,485.59 
		808.67,485.02 807.83,485.22 807.36,484.3 807.66,483.42 807.18,483.01 807.02,483.99 806.36,484.56 807.1,486.2 806.39,486.12 
		806.19,487.6 805.31,487.94 804.57,486.13 805.19,485.4 804.95,485.02 803.46,484.78 803.4,486.02 803.56,490.88 803.01,490.53 
		802.55,489.03 801.38,489.06 800.54,491.65 798.06,492.41 797.59,493.23 798.91,494.72 798.33,496.61 797.48,495.31 795.5,496.37 
		794.48,496.4 794.13,497.52 796.76,498.57 796.29,499.59 794.89,500.3 794.13,500.18 793.97,500.97 794.6,501.47 794.62,502.38 
		795.45,502.32 796.26,503.13 795.41,504.51 794.94,503.29 794.33,503.32 793.65,505.91 792.19,505.5 792.62,506.15 792.42,507.68 
		794.58,507.98 794.51,508.45 793.42,508.36 793.76,511.48 792.82,512.89 790.96,510.61 791.59,509.9 790.23,509.09 790.83,508.49 
		791.82,508.38 791.23,507.15 789.3,507.28 789.3,506.17 788.92,505.88 787.42,505.39 784.78,505.45 782.46,506.26 782.27,507.75 
		781.35,507.8 781.81,505.6 780.41,505.03 779.48,505.3 779.35,505.94 778.41,506.89 778.81,507.42 779.4,507.32 779.42,508.42 
		777.12,509.08 772.93,514.07 770.77,519.73 770.48,522.87 770.5,522.88 770.57,525.05 771.51,526.02 771.06,528.06 771.44,529.42 
		769.81,539.14 768.44,544.35 762.37,558.48 761.05,559.5 756.64,560.34 755.75,561.22 755.66,561.73 755.66,561.78 755.69,563.17 
		754.63,563.18 753.47,564.47 749.95,570.28 748.37,571.84 746.2,575.09 745.26,579.69 743.09,581.29 742.05,584.59 742.1,590.1 
		744.04,599.87 745.58,604.47 746.67,605.55 746.57,606.12 746.6,606.24 746.53,606.29 746.06,607.29 745.08,606.17 742.51,606.34 
		741.34,605.66 740.08,605.65 734.94,607.78 732.1,609.68 729.44,612.62 728.03,616.15 728.26,618.28 726.12,622.52 725,622.46 
		723.84,623.87 723.36,623.91 719.72,624 719.54,623.21 717.44,622.98 715.71,624.38 712.05,625.7 710.74,627.4 710.66,628.35 
		709.7,629.13 707.88,629.37 706.13,628.56 706.13,627.35 704.34,625.75 704.51,625.3 705.72,625.81 707.92,625.44 707.38,622.51 
		708.31,621.91 707.9,621.19 708.64,620.21 708.23,619.14 708.59,617.84 710.33,617.1 710.68,616.32 710.29,614.96 710.55,614.37 
		709.56,613.33 711.01,611.26 711.32,610.98 712.66,612.04 713.47,611.46 713.29,610.21 713.67,609.33 715.96,609.29 715.98,608.44 
		716.47,608.35 716.7,609.05 719.97,606.27 720.68,607.22 721.19,606.76 720.87,604.5 720.02,602.88 718.6,600.51 717.4,600.68 
		716.42,600.94 716.89,601.71 715.35,602.26 713.68,601.1 712.42,600.67 712.49,599.12 711.52,599.6 710.4,601.94 710.59,603.25 
		711.05,603.12 711.45,604.42 710.16,603.74 709.79,603.76 710.14,605.15 707.47,605.76 706.33,605.36 705.52,605.84 705.93,606.7 
		706.61,606.68 707.12,607.3 706.11,608.52 705.66,607.98 704.89,607.91 704.57,608.49 705.23,609.1 705.11,611.29 704.29,612.25 
		705.48,613.87 707.07,614.68 705.95,616.17 704.79,616.02 703.54,616.62 703.49,617.59 703.99,617.88 703.75,618.54 701.65,617.94 
		702.37,616.14 702.34,614.14 701.63,612.81 701.99,611.85 698.24,609.82 694.24,609.34 690.63,609.5 688.42,610.48 687.29,613.71 
		686.14,613.99 686.09,613.97 684.66,615.2 684.02,616.73 684.91,617.39 684.15,619.43 685.43,621.16 684.62,623.53 683.58,624.04 
		681.04,626.83 678.68,627.92 677.41,629.71 677.55,631.03 676.77,631.11 676.12,630.51 675.39,630.64 674.86,631.38 672.57,632.02 
		672.03,631.65 670.75,629.59 671.24,629.23 671.17,628.59 670.16,627.77 670.51,626.5 671.98,625.65 671.67,623.76 672.17,623.55 
		672.6,620.65 673.91,619.97 673.69,617.33 674.97,615.6 678.13,616.7 678.85,615.7 676.71,612.45 673.27,610.69 668.61,610.85 
		666.55,612.95 666.97,613.9 666.37,614.75 660.85,616.1 659.04,617.88 658.91,619.52 657.31,621.18 654.44,622.36 653.02,624.29 
		652.74,625.43 653.63,626.86 653.4,627.17 647.01,622.83 643.8,621.86 640.71,621.81 636.78,619.75 631.22,618.18 631.22,618.2 
		625.53,618.04 619.62,618.55 616.31,618.14 615.99,617.7 617.95,615.34 618.7,615.62 618.86,616.62 623,615.99 624.57,615.51 
		624.6,614.78 625.46,614.4 626.15,614.83 626.58,614.63 627.38,612.92 626.77,611.58 624.24,610.39 623.23,610.9 622.47,612.27 
		621.43,611.03 617.97,610.54 616.3,607.8 617.24,606.23 616.62,605.75 615.72,606.5 614.37,609.88 615.59,611.77 615.46,613.22 
		613.05,611.57 612.14,610.11 612.02,609.48 613.54,606.9 612.76,604.34 613.54,602.09 614.83,600.12 614.57,599.52 613.02,599.71 
		611.37,598.69 611.36,598.67 610.13,598.67 608.4,599.37 607.41,600.83 607.35,602.7 603.09,606.55 601.54,608.88 601.36,609.95 
		602.29,610.68 601.14,612.62 604.2,614.45 604.36,615.64 606.18,616.91 607.54,618.63 609.39,619.16 609.47,620.28 610.29,620.71 
		609.85,621.07 609.98,621.58 611.16,621.67 611.48,622.24 611.3,623.42 609.24,624.01 609.28,624.57 610.21,625.05 608.93,625.91 
		609.19,626.77 607.94,628.58 606.3,628.6 604.34,627.3 606.1,627.49 606.84,628.14 607.22,627.15 606.52,626.76 606.01,626.96 
		603.85,625.82 602.87,626.17 602.51,626.3 604.05,624.68 603.29,623.92 601.67,625.87 599.63,626.58 599.02,626.51 598.93,625.15 
		598.45,625.18 597.74,626.4 597.88,625.28 596.78,624.97 596.84,626.57 596.39,626.86 591.45,626.77 590.85,626.43 589.61,627.03 
		588.33,628.39 588.63,629.49 589.31,629.57 588.47,630.52 587.47,630.42 587.11,629.42 586.42,629.42 586.57,630 585.37,630.09 
		585.52,630.67 586.64,630.79 586.37,631.86 587.35,632.75 586.59,634.56 585.51,634.43 583.81,635.89 582.26,635.78 581.34,636.65 
		580.39,636.35 577.94,638.87 575.98,641.73 575.92,641.7 575.24,642.24 574.53,643.99 572.91,644 572.2,645.24 573.21,645.98 
		572.96,646.5 569.08,647.94 568.22,647.87 567.21,648.24 566.43,649.2 566.27,650.35 565.48,650.28 565.24,649.62 566.05,648.58 
		564.76,648.42 562.11,646.46 558.57,644.89 555.89,642.15 555.55,640.81 556.11,639.63 554.37,638.11 556.14,637.69 556.76,636.89 
		555,634.37 551.38,631.38 550.89,628.88 549.84,627.97 547.96,628.01 549.25,624.43 551.99,624.07 553.02,623.28 552.19,621.78 
		550.53,620.92 551.75,620.17 552.57,618.99 553.91,619.46 554.53,619.03 554.63,617.8 553.53,617.17 553.36,615.07 552.23,612.96 
		552.64,612.25 553.26,612.18 553.34,612.24 557.68,611.96 561.27,610.08 563.42,608.14 565.66,606.97 566.57,605.87 565.62,605.38 
		565.91,604.09 566.59,603.42 567.94,603.05 567.45,602.62 567.35,602.52 567.32,602.48 566.73,601.75 567.14,601.07 566.97,600.15 
		565.38,600.27 564.97,599.15 563.5,598.54 559.99,599.2 559.55,600.23 555.22,600.17 549.21,595.7 547.27,592.41 538.24,590.12 
		536.15,591.08 534.34,590.24 534.35,590.31 533.43,590.62 533.23,590.1 532.19,589.81 528.6,592.2 527.65,593.44 525.86,593.97 
		523.82,593.53 522.85,593.92 520.18,595.05 518.72,597.56 515.86,595.9 514.9,596.22 512.14,594.92 511.49,593.44 508.85,593.23 
		508.3,593.61 508.58,594.05 504.77,594.33 504.05,592.74 502.85,594.47 501.43,594.24 501,595.64 500.35,596 496.78,594.2 
		496.8,593.85 497.78,593.79 497.96,592.83 497.17,592.26 497.1,592.97 495.94,593.17 493.06,593.54 491.94,593.09 491.17,594.54 
		489.02,594.63 487.09,593.77 485.17,593.71 484.39,594.46 483.41,594.64 483.25,593.66 482.1,593.49 481.34,594.73 480.69,594.31 
		480.22,595.84 478.36,595.48 475.95,596.28 475.01,594.85 472,597.01 472.12,598.56 473.39,598.56 473.77,599.18 473.45,599.44 
		472.13,599.99 471.8,599.43 469.27,599.2 469.23,598.2 471.28,597.68 471.08,596.85 471.56,595.92 472.58,595.45 473.11,593.95 
		472.71,590.93 473.34,589.47 471.55,587.9 467.53,588.6 467.34,589.17 463.95,590.99 463.41,591.7 463.73,592.02 463.14,592.19 
		463.18,592.21 463.74,592.06 463.91,592.9 463.23,593.59 463.62,594.49 461.7,595.51 460.86,600.27 459.56,601.55 457.79,601.29 
		457.14,603.84 457.77,605.15 456.99,606.01 456.66,604.12 454.71,602.38 454.06,602.49 449.52,596.65 448.53,597.4 448.25,598.26 
		446.9,597.57 449.16,596.17 447.48,594.54 446.7,594.19 443.6,594.31 439.9,594.95 439.27,593.74 438.51,592.85 437.6,594.09 
		436.29,594.34 435.91,593.9 436.4,593.03 435.76,592.63 433.94,594.61 430.81,595.52 427.7,593.39 428.15,592.18 425.12,589.23 
		423.88,589.54 423.01,590.79 419.38,592.84 419.32,591.83 420.41,590.65 421.06,587.99 420.02,585.16 420.46,584.25 421.69,584.35 
		423.02,582.83 423.14,580.83 421.94,578.54 422.48,578.42 423.64,576.42 427.97,576.86 427.7,575.98 425.93,574.88 426.71,573.7 
		427.86,575.25 429.7,575.16 430.45,575.61 431.71,577.81 436.48,578.63 437.8,577.58 439.39,578.05 442.36,576 442.2,574.85 
		442.99,574.11 444.03,574.62 445.43,573.79 446.14,573.27 446.54,571.93 447.31,571.95 448.27,570.72 448.76,570.46 450.17,571.32 
		451.11,570.74 451.11,570.78 452.89,571.29 455.45,571.21 458.17,569.37 460.29,568.54 460.93,567.6 462,567.55 464.34,566.07 
		466.04,564.43 471.53,561.87 474.28,561.53 475.04,560.4 477.37,559.45 477.77,558.43 478.83,557.58 483.53,555.78 485.99,555.52 
		487.08,554.95 488.05,553.89 488.92,551.41 487.57,550.4 487.88,549.86 489.84,549.6 490.5,550.28 491.91,550.36 492.17,550.07 
		491.34,549.27 493.73,549.39 494.24,548.99 497.81,549.07 499.36,549.54 499.52,548.49 501.32,549.16 502.36,547.82 504.09,547.2 
		505.08,549.24 506.85,549.42 507.63,549.07 510.9,550.47 508.87,550.44 508.02,551.08 508.38,552.84 509.84,554.33 512.09,555.43 
		512.9,555.37 513.99,554.21 515.74,553.83 518.74,553.98 520.76,555.49 523.53,556.5 528.93,557.54 530.14,557.23 532.27,558.08 
		535.27,558.53 539.95,558.51 541.15,557.53 542.37,557.77 542.73,557.21 543.52,557.25 543.53,557.25 547.37,557.06 549.6,556.4 
		551.36,557.39 551.82,558.3 553.39,557.59 555.48,558.47 557.62,558.55 558.19,559.25 559.76,559.56 559.75,559.6 560.04,560.18 
		561.57,560.55 562.62,560.32 563.66,559.28 564.91,559.71 568.49,558.38 571.71,558.21 573.13,559.73 573.67,561.89 571.57,563.04 
		570.97,564.13 568.7,565.75 568.55,566.72 569.03,566.83 570.36,565.55 571.18,566.34 571.31,566.66 570.07,567.26 571.95,568.78 
		572.48,568.36 572.13,570.59 573.08,570.04 574.32,570.72 574.61,569.93 572.95,568.17 574.57,567.45 576.08,567.66 576.56,566.81 
		577.11,566.94 576.89,567.84 577.54,568.51 578.72,569.08 577.94,570.71 578.12,571.18 582.02,572.86 584.98,573 585.77,571.72 
		584.63,571.88 584.79,571.08 583.94,570.67 585.01,569.96 585.68,570 587.21,571.62 587.17,572.24 587.67,572.31 588.44,572.07 
		587.75,570.53 588.12,570.41 588.82,571.2 589.67,570.33 588.95,569.38 588.9,567.95 589.77,568.43 590.16,569.7 591.52,569.38 
		591.61,569.99 593.68,569.93 594.22,569.35 593.96,568.74 594.45,567.27 594.05,566.02 596.42,564.98 596.78,566.08 595.83,568.24 
		596.17,569.24 597.16,569.32 598.55,567.12 599.11,565.11 598.68,563.1 596.91,560.08 597.49,558.38 596.74,556.18 598.94,554.61 
		600.11,552.41 604.69,548.42 604.59,547.28 605.93,547.63 608.79,546.55 608.82,546.59 611.12,544.85 612.7,544.73 615.48,543.17 
		625.02,535.53 627.55,532.88 631.22,527.45 632.23,523.84 631.35,521.12 631.68,519.74 632.12,517.68 631.67,517.33 630.96,517.72 
		630.61,517.15 632.53,513.73 633.31,513.35 634,510.72 634.71,510.27 637.46,509.02 639.45,508.68 641.11,509.59 646.29,508.46 
		647.19,507.72 648.94,507.37 651.01,507.63 653.38,507.06 654.95,507.69 655.41,508.93 654.84,509.57 655.15,511.01 654.07,511.22 
		652.5,510.74 651.51,511.08 650.59,512.81 651.1,514.71 649.65,515.98 646.85,515.16 645.25,515.58 643.73,517.69 641.55,518.56 
		640.89,517.5 640.15,517.17 640.67,516.28 640.12,516.13 636.92,518.95 637.68,519.53 637.15,520.44 636.3,520.42 636.31,521.14 
		635.74,521.65 636.58,522.02 637.7,521.36 639.02,523.57 640.47,522.86 641.07,521.87 641.95,522.1 640.57,527.61 640.52,527.59 
		637.51,530.61 639.1,533.66 639.97,534.73 640.85,534.85 642.64,536.46 644.27,536.5 647.29,537.45 649.59,536.18 650.58,534.74 
		651.03,532.82 651.91,531.86 654.31,531.3 659.07,531.53 659.08,531.53 668.3,530.66 671.7,529.32 673.18,529.2 675.08,527.85 
		676.71,528.75 678.69,528.92 682.11,527.76 687.23,524.67 691.41,523.58 696.61,518.46 698.17,517.9 699.73,516.32 703.81,509.63 
		705.7,508.28 713.32,505.35 717.33,505.34 720.48,504.3 724.02,502.07 726.8,499.43 728.1,497.1 729.91,491.04 734.51,485.71 
		734.53,485.68 737.51,481.51 740.87,479.85 743.29,477.96 746.76,472 748.15,470.62 750.34,466.75 750.41,465.72 752.09,463.69 
		752.11,462.13 753.05,461.06 753.21,460.21 754.07,459.41 755.22,459.53 757.69,456.16 760.68,449.89 762.44,443.45 762.5,438.84 
		760.98,435.71 762.12,434.64 763.19,435.31 763.76,436.96 764.53,435.25 764.29,434.49 765.18,433.7 766.06,431.57 766.1,429.21 
		764.6,428.08 763.72,428.57 762.53,429.62 760.72,432.61 761.39,433.49 760.74,435.45 759.68,434.68 758.22,434.55 757.82,434.86 
		757.73,436.27 754.46,435.26 753.71,431.96 753.91,429.83 754.43,428.73 756.92,431.61 758.06,431.56 761,429.87 763.02,427.76 
		765.27,424.33 767.45,419.85 768.19,417.24 766.24,413.69 766.23,413.69 766.23,413.67 766.24,413.67 767.38,410.99 767.67,408.65 
		767.32,407.11 765.79,406.79 765.89,405.44 769.28,403.94 771.63,401.52 772.84,401.1 773.9,400.96 775.56,402.56 778.25,401.46 
		779.57,401.64 780.48,400.85 783.58,395.59 785.27,389.64 784.49,388.17 783.42,387.76 783.85,387.21 785.14,387.94 785.92,387.42 
		787.77,382.94 789.2,384.48 789.84,386.31 790.7,387.14 791.84,387.12 793.83,385.95 795.39,387 796.11,388.4 795,391.93 
		794.57,396.06 794.36,401.52 795.33,403.78 797.47,404.16 799.88,402.64 800.46,401.85 800.62,399.8 801.74,397.66 803.86,399.12 
		804.54,400.92 804.03,401.71 805.18,402 806.44,403.09 806.91,404.69 808.04,405.34 809.83,404.41 811.18,403 812.84,400.32 
		814.22,396.56 815.62,395.01 815.34,391.47 814.42,389.47 813.2,389.02 811.2,391.2 809.08,392.01 806.87,390.72 805.54,391.47 
		802.55,391.25 800.85,392.27 799.58,391.15 802.57,384.2 803.5,383.34 804.75,380.57 807.85,377.97 807.84,376.58 808.54,375.84 
		810.6,379.03 812.63,379.75 813.82,380.9 815.48,384.65 817.43,386.6 818.78,387.14 820.51,386.97 824.42,385.18 819.23,395.35 
		816.97,403.33 815.54,412.29 815.68,420.51 817.09,422.72 818.3,422.38 818.44,423.34 820.66,427.11 821.88,430.95 822.87,437.03 
		820.88,438.33 822.82,439.85 823.28,441.05 822.99,441.39 822.21,441.2 821.42,441.91 821.19,443.49 821.51,444.39 822.24,444.87 
		822.64,446.47 823.68,446.94 	"/>
	<line class="st0" x1="779.99" y1="415.25" x2="780" y2="415.24"/>
	<path class="st0" d="M537.77,626.93l-3.1-0.88l-0.34-0.45l0.28-0.48l2.42-0.94l0.41-0.67l-1.02-0.59l0.98-0.4l-0.85-0.83
		l-0.48-1.92l-0.8,0.73l-0.54-1.04l0.32-1.76l2.35-4.37l-0.97-1.08l0.39-1.48l-4.69,0.08l0.01-0.03l-1.72-2.22l-0.64-0.07
		l-1.03-1.33l-1.67-0.88l-0.1-0.83l0.74-0.33l0.18-0.64l-1.65-0.82l-0.75-0.05l-0.37,0.58l-0.54-0.24l-0.13-0.66l0.7-1.43
		l-0.68-0.82l-2.18,1.45l-2.51-0.78l-2.98-1.96l-0.68,1.43l-3.88,1.04l-2.87,1.46l-0.94,0.04l-2.17-1.91l-0.53,0.01l-0.25,0.49
		l1.88,2.53l-1.79,4.71l-1.3,0.5l1.64,1.2l-1.31-0.54l-0.4-0.56l-0.74,0.26l-0.29,0.06l-0.4,0.64l-0.46,0.45l-1.29,0.5l-0.82-0.1
		l-1.01-0.82l-0.72-0.35l-1.02-0.44l-1.23,0.18l-0.45-0.67l-0.57-0.24l-0.49,0.31l-1.97-0.18v0.77l-0.63,0.01l-2.31-0.04l-1.63,0.11
		l-0.64-0.77l-0.03-0.73l-0.35-1.11l-0.52-2.62l-0.96-2.63l-0.82-1.68l-0.81,0.8v0.94l-0.48,0.16l-0.09,0.73l-1.82-0.19l-3.48,1.9
		l-0.36,0.94l-1.04,1.79l-0.8,0.27l-0.61-0.44l-0.65,0.94l-0.74,1.55l-0.4,1.57l0.07,1.22l-0.88,0.45l-0.99,1.39l-0.43,0.29
		l-2.29,0.93l-2.68,0.24l-1.18,0.46l-1.72,1.22l-0.53,0.7l-1.35,0.32l-1.62,0.65l-2.04,0.34l-0.23,0.24l-0.44,0.12l-0.74-0.13
		l-0.55,0.09l-0.62,0.39l-0.87-0.36l-1.18,0.3l-0.93,0.26l-4.14,1.96l0.4,0.08l0.93-0.27l1.64-0.77l0.81,0.18l-0.09,0.26l-0.64,0.21
		l-0.05,0.39l0.82,0.11l0.61-0.31l0.38-0.42l1.12-0.6l1.86-0.06l0.68-0.45h0.87l1.61-0.59l0.67-0.32l0.39,0.01l0.37,0.7l0.84,0.05
		l-0.44,0.58l0.61,0.24l0.42-0.11l-0.33,0.69l-0.46,0.33h-0.27l-0.68,0.36l0.39,0.22l-0.04,0.6l-0.67,0.31l0.19,0.67l0.49,0.08
		l-0.04,0.41l-0.02,0.28l-0.54,0.06l-0.26,0.1l-0.33,0.13l-0.39,0.66l0.73,0.19l0.12,0.42l0.58,0.37l0.47-0.52l0.59,0.58l0.54-0.25
		l0.8-0.05l0.54,0.41l0.4,0.32l-0.12,0.31l-0.53-0.21l-0.66,0.26l-0.54,0.59l0.69,0.5l1.28,0.25l-0.19,0.47l-0.7,0.17l0.46,0.69
		l0.46,0.06l0.08,0.59l-0.21,0.21l-0.38-0.04l-0.86-0.3l-0.6,0.3l0.14,0.73l-0.02,0.61l-0.55-0.17l-0.32-0.64l-0.94-0.82l-0.72-0.53
		l0.58,1.1l-0.6,0.43l-0.37,0.46l0.5,0.41l-0.19,0.38l0.29,0.31l0.29-0.15l0.38-0.03l0.24,0.05l0.58,0.3l-0.11,0.53l-0.84,0.78
		l-0.49,0.53l0.42,0.31l-0.32,0.38l-0.99,0.11l-0.54-0.05l-0.08-0.59l-0.27-0.26l-0.37-0.01l-0.38,0.49l-0.19,0.59l-0.68,0.49
		l0.49,0.44l0.2-0.44l0.23-0.29l0.23-0.07l0.67-0.11l0.57,0.55l0.68-0.38l0.43,0.18l-0.33,1.31l0.17,0.11l0.42,0.35l-0.27,0.37
		l0.17,0.7l-0.26,0.1l-0.22-0.13l-0.32-0.32l-0.54,0.25l0.85,0.8l-0.65,0.26l-0.59-0.09l-0.21,0.15l0.35,0.73l-0.28,0.55l0.38,0.17
		l0.43,0.09l0.54,0.2l0.4-0.33l0.03-0.22l0.15-0.45l0.43,0.02l0.34-0.07l0.79-0.06l0.07,0.32l0.25,0.64l0.11,0.49l1.62-0.17
		l0.46,0.33l0.01-0.04h0.01l1.32,0.24l0.22,0.7l-2.35,1.5l-0.07,0.59l-1.49,1.31l-0.2,1.36l2.87-0.73l0.99,2.04l0.52-0.19l0.78,0.81
		l2.34-1.14l0.55,0.14l1.17,0.5l2.02,3.05l0.51,0.05l0.09-2.46l-1.36-1.42l0.49-1.73l1.99-0.28l0.16-2.75l1.35-2.33l1.12-0.44
		l1.45,0.97l0.8-1.52l3.32-2.87l0.7,0.14l-0.05,0.65l0.44-0.13l-0.1-1.26l1.81-1.1l-0.07-0.96l0.6-0.17l0.11-0.86h-0.57l0.87-1.12
		l-0.15-0.78l0.54-0.33l0.13-1.01l1.57-0.09l0.16,1.02l1.3-1.46l3.62,0.26l0.24-1.01l4.15-0.88l0.59-0.64l5.16,0.52l0.49,1.05
		l4.83,2.28l0.36,1.92l1.94,1.65l0.25,1.8l1.13,1.98l-0.12,1.2l0.96,0.25l0.67,2.21l2.5-5.35l4.5-4.92l0.47-0.14l-0.35-0.32
		l0.52-0.66l1.39,0.44l1.74-2.56l1.53,0.08l2.17-0.61l2.34-0.91l0.49-0.73l1.72-0.84l3.66-0.51l0.77-0.13L537.77,626.93z
		 M501.12,615.91l0.02-0.02l0.03,0.02H501.12z M504.68,616.8v-0.03l0.01,0.03H504.68z"/>
	<polygon class="st0" points="501.17,615.91 501.12,615.91 501.14,615.89 	"/>
	<polygon class="st0" points="504.69,616.8 504.68,616.8 504.68,616.77 	"/>
	<polygon class="st0" points="622.6,558.78 622.58,558.78 622.57,558.73 622.59,558.73 	"/>
	<polygon class="st0" points="622.6,558.78 622.58,558.78 622.57,558.73 622.59,558.73 	"/>
	<path id="JP-28_4_" class="st0" d="M569.38,592.65l0.01,0.01v-0.01H569.38z M553.41,600.34l-0.98,0.23l-1.68,1.44l-1.67,0.28
		l-2.12,1.97l-0.64-0.18l-0.82,0.56l-3.26,3.89l-0.84,0.18l-0.5-0.54l-1.45,1.24l0.43,1.81l0.61,0.43l-0.3,0.76l0.8,0.74l-0.17,0.71
		l2.19,0.26l1.88-0.89l3.59-0.47l-0.03-1.3l-0.91-2.25l0.66-2.42l3.77-2.93l0.55-1.15l1.24-0.88L553.41,600.34z"/>
	<path id="JP-01_4_" class="st0" d="M807.43,314.13l5.15-2.23l0.31-0.91l-1.77-5.8l-1.76-2.13l-0.62-2.12l2.12-3.72l-0.23-0.87
		l2.54,0.85l1.12-0.41l0.55-0.76l0.92-0.11l3.23,5.33l2.68,2.17l1.25,2.48l4.1,0.29l0.44-0.59l1.74-0.08l1.13,0.33l-0.7,1.78
		l4.21,3.45l3.97-1.01l3.99-2.57l2.22-2.11l1.13-3.66l-1.03-4.92l1.65-2.83l-0.44-2.54l0.23-3.76l2.48-2.88l2.68-0.79l1.22,0.24
		l3.74-1.24l2.25-2.59l1.45-2.9l2.7-12.52l0.92-0.3l4.01-4.74l1.51-4.42l0.93-1.09l0.87-2.47l0.88-5.27l0.38-6.37l-1.76-12.78
		l-0.01-1.95l0.52-1.53l1.88-1.64l2.05-2.74l-0.07-2.37l0.77-1.95l0.86,1.52l-0.01,0.87l0.55,0.41l2.89,0.29l2.51-0.92l1.69-2.91
		l1.5-0.13l0.6,0.71l0.35,2.26l0.79,0.78l0.38,2.58l2.95,3.64l2.19,5.83l5.49,10.8l3.16,13l3.01,5.08l2.56,5.89l6.96,9.24l2.1,2.05
		l0.13,1.63l1.59,2.03l5.02,4.59l4.57,3.36l8.56,5.1l4.17,1.99l0.82-0.31l0.14,1.33l-0.62,1.99l0.73,2.8l0.71,1l4.64,2.92l5.28,1.74
		l4.18,0.56l4.41-2.19l3.22-2.39l4.28-2.31l3.4-1.23l1.64-2.01l2.21-1.37l1.8-1.85l0.71,0.24l-0.21,3.7l-2.94,3.42l-1.81,1.07
		l-1.94,3.53l-3.61,2.64l-2.36,2.95l-0.19,1.35l-2.06,2.91l-0.09,1.76l1.06,4.62l1.53,3.72l0.23,8.86l1.53,3.7l-1.61-1.31
		l-0.08-0.91l-1.7-0.82l-0.53,0.48l-0.19,2.07l1.63-0.7l0.57,0.82l-0.68,0.75l0.42,0.77l0.75-0.28l3.76,2.03l3.99-1.81l0.75-0.81
		l2.04-0.66l0.58-0.69l5.08,1.67l-0.51,0.71l-2.22,0.95l-2.85-0.23l-3.37,0.85l-2.47,4.28l-1.06-0.89l-1.93-0.59l-4.48-0.32
		l-2.75,0.79l-1.9-0.85l-1.22,0.69l-0.7,1.75l-3.41,2.72l-1.81,0.35l-2.95-0.94l-1.09-1.62l0.27-0.82l0.65-0.35l-0.71-0.81
		l-1.19-0.14l-2.59,2.23l-0.2,0.64l1.34,2.26l-3.12-1.02l-1.67-1.03l-5.63-1.51l-1.02-0.52l-1.96-2.65l-5.04-0.42l-4.31,0.85
		l-6.4,2.58l-10.48,6.12l-8.83,7.44l-3.78,4.58l-1.13,2.51l0.27,2.5l-2.9,5.77l-2.07,2.03l-0.67,2.54l-4.29-7.39l-6.8-5.19
		l-10.9-10.36l-3.06-3.62l-2.05-3.99l-4.67-2.81l-2.63-4.14l-2.37-2.64l-2.66-1.59l-3.73-1.05l-5.42,0.33l-3.81,1.17l-5.16,2.48
		l-2.87,0.74l-4.35,2.98l-0.85,1.04l-1.52-1.07l-0.29-1l0.72-0.3l0.66,1.25l0.52-1.23l-1.96-1.2l-0.39-4.09l-1.08-0.96l-1.22-2.21
		l0.05-0.96l-1.49-2.46l-1.92-0.66l-2.19,0.32l-1.28-1.33l-1.92-0.45l-3.39,2.15l-3.41,3.73l-2.17,3.72l-0.36,3.17l3.16,2.85
		l3.34,4.83l1.12,0.53l2.38-0.27l3.08,1.33l1.02,3.99l2.06,2.6l0.92,3.41l4.4,3.45l0.5,1.63l1,1.26l-1.21,0.71l-1.5-0.38l-2.27,1.59
		l-2.89,0.35l-1.03-1.6l-4-2.58l-1.53-0.13l-0.7,0.86l-0.69-0.01l-0.03-1.04l1.26-0.43l-0.04-1.14l-0.78-0.83l-1.39-0.23l-0.78,0.35
		l-1.37,2.47l-2.71,1.07l-2.07-0.38l-0.69,0.37l-2.12,6.08l-0.83,0.59l-1.49-0.34l-3.45,0.56l-2.2,2.6l-0.75,0.34l-1.27-1.68
		l-1.89-0.13l-1.12-1.49l-0.57-4.73l0.21-1.39l1.38-2.62l3.38-4.21l0.43-1.65l1.18,0.44l0.7-0.81l1.61-4.12l0.19-3.28l-1.77-5.42
		l-0.91-0.84l-2-0.73l-0.25-2.31l-0.97-1.74l-1.63-1.12l-0.31-1.31l0.28-2.27l0.95-1.64l1.91-1.23l0.91-1.36l1.14-4.16l0.15-3.71
		l2.05-1.9l2.02-0.51l3.61,0.85l1.34-1.18l2.49-0.57l2.13-2.67l1.06,1.24l0.48,1.76l1.5,0.01l0.72-2.15l1.64-0.98L807.43,314.13
		L807.43,314.13z M856.04,223.5l0.37-1.97l2.53-1.44l2.76,2.76l0.05,3.06l-3.47,1.6l-1.71-2.25L856.04,223.5L856.04,223.5z
		 M772.24,338.11l-1.38,3.38l-0.88,0.83l-1.12,0.09l-0.18,0.56l-0.74-1.1l0.8-2.67l-0.2-1.92l1.62-1.41l3.16,0.19l0.94-0.63
		l-0.22,1.02L772.24,338.11L772.24,338.11z M855.96,214.03l-1.48,3.97l-0.67,0.04l-0.16-5.04l0.89-1.97l-0.82-0.79l0.44-1.11
		l0.67,1.61l1.1,0.04l0.21-0.94l0.42,0.57l0.23,1.37L855.96,214.03z"/>
	<polygon class="st0" points="463.77,592.05 463.74,592.06 463.18,592.21 463.14,592.19 463.73,592.02 	"/>
	<polygon class="st0" points="622.6,558.78 622.58,558.78 622.57,558.73 622.59,558.73 	"/>
	<polygon class="st0" points="501.17,615.91 501.12,615.91 501.14,615.89 	"/>
	<polygon class="st0" points="504.69,616.8 504.68,616.8 504.68,616.77 	"/>
	<path id="JP-43_4_" class="st0" d="M391.75,640.52l-0.77-0.08l-1.12-0.06l-0.75-0.82l-1.48,0.06l-1.24,0.89l-2.89,0.6l0.02-1.73
		l0.62-1.38l-0.27-0.54l-2.28-0.35l-2.46,0.45l-0.75,1.7l-2.87,3.3l-0.27,1.15l0.46,1.09l-1.62,1.97l1.07,0.63l-0.76,1.27l0.59,2
		l0.81-0.07l0.32-1.53l1.96-0.68l0.72-1.26l3.49-1.36l1.08-1.38l0.11-0.71l-0.63-0.84l0.78-0.47l0.74,0.48l-0.07,0.63l1.45,0.24
		l1.66,1.31l1.47-0.25l1.23-1.11l-0.4-0.26l1.16-0.97L391.75,640.52z M381.22,647.67l-1.16,0.69l-0.16,1.15l-1.82-0.34l-0.58,1.31
		l0.39,0.71l-0.44,1.14l1.27,1.72l1.25-1.76l0.84-0.25l-0.33-2.95L381.22,647.67z"/>
	<polygon class="st0" points="392.04,638.73 392.12,639.34 391.17,639.54 390.67,639.14 390.68,637.68 392.56,636.68 392.72,638.2 	
		"/>
	<path id="JP-46_4_" class="st0" d="M365.42,713.14l-2.51-1.47l0.52,1.4l0.84,0.01l-0.32,0.72l0.41,0.87l1.22-0.34l0.6,0.27
		l0.12-0.4L365.42,713.14z M369.19,660.25l-1.41-0.06l-0.4-0.93l-0.82-0.35l-0.74,0.6l0.27,1.01l0.36-0.41l0.49,0.69l-0.26,0.49
		l0.69,0.63l1.56-0.09l0.3-0.94L369.19,660.25z M364.14,661.8l-1.19,1.77l-2.28,0.23l-1.08,1.6l-0.67,0.17l-0.03,0.94l0.53,0.63
		l1.41-0.42l0.55-0.38l-0.28-0.61l0.77-0.49v-0.69l1.02-0.04l1.46-1.55l0.29-0.75L364.14,661.8z M394.59,706.55l-2.19,1.56
		l-0.79,2.05l-0.47-0.14l-1.83,1.71l-0.57,3.32l-3.37,3.4l-0.75-0.21l-0.03,2.27l-0.63,1.31l0.23,1.04l1.86-0.66l1.27,0.35
		l0.21-0.72l0.57-0.05l-0.28-0.66l0.55-0.65l-0.46-0.99l0.45-0.31l-0.1-0.49l1.79-2.09l1.26-0.38l0.13-0.75l1.02-0.8l0.35-1.84
		l1.1-0.92l0.4-2.56l0.61-0.78L394.59,706.55z M377.43,718.81l-2-1.15l0.23-0.5l-1.98-1.58l0.04-0.27l-0.32,0.54l-0.83-0.37
		l-0.21,0.73l-1.55,1.13l-1.51-0.27l-0.26,0.73l-0.04,1.91l0.46,1.09l-0.3,1.09l0.42-0.2l0.09,1.36l2.54,1.14l2.08,0.04l2.61-1.54
		l1.32-2.61L377.43,718.81z"/>
	<polygon class="st0" points="403.82,685.18 403.79,685.17 403.79,685.16 	"/>
	<path id="JP-15_4_" class="st0" d="M696.2,496.25l-0.97-0.76l0.14-1.76l1.45-1.74l1.22-1.2l2.03-4.87l-1.83-0.04l-1.36,2.23
		l-1.19-0.01l-1.48,1.28l-1.39,0.28l-1.76,2.21l-2.06,1.56l-0.62,2.15l-0.69,0.4l0.3,0.33l-0.38,1.39l0.55,0.54l1.31-1.42l0.92,0.41
		l0.58,1.13l0.56-0.54l-0.73,1.3l-2.16,1.12l-0.19,1.38l-0.89,1.18l-2.3,0.36l0.14,0.82l1.1,0.55l1.85-0.55l1.75,0.36l5.26-2.37
		l3.86-5.6l-0.21-0.48L696.2,496.25z"/>
	<path id="JP-42_4_" class="st0" d="M382.98,552.07l-0.91-0.73l-1.26,0.26l-1.01,1.35l-2.3-0.49l-1.06,2.13l-0.77,0.54l-0.1,0.6
		l1.18,0.49l-0.14,0.67l-0.72,0.12l-1.62,1.84l-1.03,3.08l-0.62,0.58l-0.88,0.01l0.67,0.68l2.05,0.62l1.18-0.89l-1.02,1.65
		l-2.07-0.27l-0.19,0.61l-1.46,0.09l0.45-0.92l-0.64-0.67l-3.45,8.25l1.14,0.29l0.13,0.79l2.61-1.15l2.87-5.07l0.9,0.46l1.32-0.72
		l-0.53-0.41l0.11-0.64l1.7-0.8l-0.06-0.5l-0.74-0.3l0.87-1.66l-0.5-1.76l2.56-1.4l1.7-1.59l0.4-1.98l1.47-2.07L382.98,552.07z
		 M343.72,621.34l0.27-1.93l-0.67-1.68l0.21-0.73l-3.62,0.95l-0.57-1.29l-0.72-0.26l-0.71,0.57l-0.52,3.06l0.42,1.24l-1.68,0.25
		l-0.19-0.56l-0.77,1.18l1.54,1.26l2.68,0.05l0.27,1.2l0.55,0.36l0.86-0.51l-0.01-0.66l-0.69-0.64l0.47-0.85l1.27-0.08l0.16,0.8
		l2.32,0.44l0.27-0.49L343.72,621.34z M356.64,612.2l-1.61,0.55l-1.04-0.2l1.13-2.32l1.08-1.99l0.3-2.17l-1,1.4l-0.15,1.58
		l-2.39,1.46l-0.31,1.95l-1.09-0.32l-0.97,1.04l0.84,0.68l0.55-0.36l0.18,2.25l-1.13,2.3l0.44,0.38l0.65-1.66l1.07,0.38l0.4-2.05
		l3.31-1.64l0.19-0.91L356.64,612.2z M372.58,600.62l-1.02-0.14l-0.39,0.54l0.87,0.21l-0.24,0.51l-0.45-0.29l-0.48-0.14l-2.57,1.51
		l-1.73,1.67l0.46,1.11l-1.66,0.44l0.07,1.5l-0.7-0.13l-0.42-0.85l-0.33,0.82l0.53,0.61l3.34-0.87l3.07-3.03l-0.2-0.66l0.75,0.03
		l0.22-0.65l0.83-0.14l-0.37-0.62l0.4-0.33L372.58,600.62z M345.52,615.77h-0.72l-0.41,2.05l0.98,1.08l1.24-1.97L345.52,615.77z
		 M350.39,613.57l-0.45,0.43l0.36,1.01l-1.08-0.45l0.36,1.2l0.72,0.63l0.49,0.73l0.68-1.89L350.39,613.57z M358.48,602.09l0.2-0.65
		l-0.48-0.4l-0.21,0.48l-0.93-0.19l-0.85,0.42l-0.02,0.45l1.7,0.85l0.03-0.4l1-0.21L358.48,602.09z M348.89,616.34l-0.03-0.73
		l-0.25-0.19l-0.92,1.12l-0.1-1.27l-0.84-0.49l-0.66,0.43l1.07,1.18l-0.14,0.67l0.51,0.27l0.09,0.71l0.55-0.49l-0.2-0.54
		L348.89,616.34z M367.65,600.75l-0.4,0.45l1.09,0.45l0.86-3.29L367.65,600.75z M373.64,596.84l-2.22,0.98l1.7,0.55l0.83-0.27
		l0.4-0.49L373.64,596.84z M355.52,604.11l-0.56-0.6l-0.73,0.71l0.48,0.65l0.42-0.11l0.83,0.31l0.56-1L355.52,604.11z"/>
	<path id="JP-47_4_" class="st0" d="M235.91,837.4l-1.08,0.59l0.71,0.44l0.94-0.52L235.91,837.4z M261.75,818.12l-0.98,0.43
		l0.63,1.16l0.48-0.01l0.3-0.71L261.75,818.12z M237.13,838.58l-1,1.31l-0.31,1.56l0.88-0.46l0.06-0.82l0.5-0.22l0.23-0.87
		L237.13,838.58z M255.96,824.8l-1.72-0.57l-0.5,0.57l0.31,0.47l2.06,0.48L255.96,824.8z M264.77,813.95l-1.84,1.25l-1.5,1.54
		l2.78-1.24l1.39-1.49L264.77,813.95z M339.21,785.48l-2.36,1.29l-0.99-0.14l-0.38,1.13l0.61,0.8l1.01-0.11l2.66-2.44L339.21,785.48
		z M220.81,828.3h-2.44l0.2,0.89l1.2,1.16l0.12,0.77l0.91,0.74l0.07-1.17l0.81-0.62L220.81,828.3z M316.02,789.14l-1.69-0.71
		l-0.51-1.97l-0.69,0.69l-0.54-0.44l-0.35-0.92l0.57-0.24l-0.21-0.42l-1.21,0.17l0.14,1.2l0.84,0.86l-0.74,2.16l1.25-0.53l0.78,1.6
		l0.55-0.95l0.65,1.03l0.68-0.12l0.68-0.8L316.02,789.14z M289.55,807.42l-3.37,0.73l-1.87-0.78l-0.48,0.5l-0.12,1.33l0.69,1.05
		l1.35-0.03l1.16-0.62l3.22-1.96L289.55,807.42z M301.61,796.58l0.44-1.35l0.39-1.23l-2.25-0.65l-1.21,1.9l0.2,2.7l-1.18,1.2
		l1.2,2.62l1.7,0.13l2.38-2.83L301.61,796.58z M330.37,779.01l0.21-1.48l-1.66,0.61l0.51,1.7l-1.55,1.28l-0.5-0.46l0.45-0.31
		l0.14-1.57l-1.82,0.3l-0.75-0.45l-0.98,0.62l-0.74,1.32l-0.88-0.22l-0.35-0.61l-0.78,1.04l-1.58-0.62l-1.16,0.89l-0.7-0.74
		l-1.5,1.09l-1.21-0.25l-1.76,0.48l0.41,0.88l-0.37,0.22l-3.02-0.03l1.07,1.39l2.85,1.25l0.35,1.56l-0.26,0.77l2.2,2.15l0.09-1.68
		l0.58-0.35l0.43,0.62l0.53-0.87l1.99-0.73l-0.29-1.34l0.91-1.66l0.71,0.51l1.85-0.19l2.32-1.8l0.9-0.89l1.56,0.57l1.9-0.74
		l0.52-1.54L330.37,779.01z M271.04,823.53l-0.44,0.08l-0.11,0.97l-1.07,1.4l-2.84,1.56l-0.09,0.5l-1.46,0.27l-0.86,1.29l-1.72,0.55
		l-1.5-0.2l-0.3-0.89l0.83-0.98l-0.22-0.39l-1.09-0.79l-1.82-0.2l-0.7-0.64l-0.35,0.92l0.38,1l-0.63,0.42l0.17,1.44l1.54,0.57
		l0.91,1.26l-0.9,1.02l-3.7,0.53l-1.64,0.93l-2.8,0.74l-0.22-0.7l-0.32,0.17l-0.31,1l0.52,3.67l-0.19,0.39l-1.71,0.37l-2.89,2.01
		l-0.42,4.11l0.52,0.49l1.64-0.14l0.97-0.81l3.02-0.97l-0.21-1l-1.21-0.15l-0.19-0.55l3.23-3.85l1.12,0.06l1.22,1.82l0.22-0.53
		l-1.12-2.08l0.31-0.73l-0.88-1.12l-0.09-1l1.42-0.59l2.31,1.37l0.8-0.92l3.17-1.12l-0.24-1.19l1.65,1.07l2.11-0.65l-0.54-1.48
		l0.78,0.38l0.21-1.11l2.78,0.68l3.86-3.4l0.23-3.37L271.04,823.53z"/>
	<polygon class="st0" points="158.19,869.41 156.18,869.33 155.6,868.62 155.89,867.57 156.22,868.28 156.84,867.22 158.1,868.2 	
		"/>
	<polygon class="st0" points="164.6,874.19 159.93,873.65 158.67,872.48 158.58,871.63 158.95,871.29 158.98,871.94 159.53,872.03 
		159.06,870.24 159.9,869.91 160.39,868.94 160.08,866.55 160.44,866.33 161.77,870.11 161.57,870.94 164.25,872.97 	"/>
	<polygon class="st0" points="128.38,870.51 127.24,871.08 127.29,871.59 126.28,872.16 126.06,872.81 124.86,873.4 124.66,875.19 
		123.52,877.24 120.7,877.12 120.51,876.3 119.66,875.59 120.64,875.07 121.05,874.2 119.86,873.2 119.24,873.64 118.89,873 
		119.32,872.25 120.56,872.88 120.87,871.61 122.23,873.22 123.96,873.45 124.02,872.88 125.57,871.55 126.14,872.18 126.97,871.15 
		126.74,870.35 127.78,869.68 128.08,868.93 128.93,869.32 	"/>
	<polygon class="st0" points="116.08,879.02 115.37,879.73 114.8,878.89 115.3,878.4 	"/>
	<polygon class="st0" points="114.29,874.43 113.55,875.82 112.7,875.86 112.44,877.02 111.83,876.8 111.47,877.47 110.28,876.54 
		107.84,875.65 107.09,874.74 106.71,875.41 105.57,874.95 105.19,873.94 106.88,872.85 107.62,873.36 107.85,874.18 108.64,872.37 
		108.5,871.68 109.93,870.45 110.8,871.68 112.67,872.44 	"/>
	<path id="JP-33_4_" class="st0" d="M532.75,596.71l-6.35,0.6l-1.07,1.17l0.23,0.48l2.05-0.31l0.67,0.67l0.07,0.42l-0.78,0.62
		l0.11,1.02l1.59-1.75l1.44,0.04l-1.36,0.84l0.6,0.06l0.77-0.12l0.42,0.98l1.56-3.37l-0.33-0.66L532.75,596.71z"/>
	<polygon class="st0" points="443,638.36 442.95,639.64 443.91,639.86 442.32,640.72 443.07,642.1 440.4,643.11 439.15,641.99 
		438.14,644.26 438.16,644.27 437.58,645 434.72,645.88 433.1,648.26 431.18,648.65 430.19,649.85 430.29,650.94 431.22,652.08 
		429.96,652.66 428.47,652.55 428.54,653.49 429.33,654.29 427.73,654.48 424.74,658.37 419.96,666.61 416.99,671.52 416.15,673.74 
		416.97,675.92 415.45,678.15 414.7,681.35 413.27,681.75 410.99,684.67 411.03,686.03 410.03,686.34 409.93,687.93 408.4,688.75 
		408.64,690.01 407.82,689.85 407.2,688.91 405.78,688.67 405.33,686.01 403.82,685.18 403.79,685.16 402.15,684.03 400.27,684.85 
		398.71,686.27 398.26,687.5 400.79,689.19 400.64,689.88 399.33,690.73 399.54,691.09 400.9,690.97 400.98,691.42 398.51,692.67 
		396.91,692.3 396.23,693.53 394.5,695.05 391.33,695.86 388.96,695.66 383.79,697.75 384.92,695.76 384.28,694.92 387.69,693.48 
		388.85,691.9 388.76,690.66 390.23,689.55 391.45,686.62 390.82,682.99 390.35,681.85 389.41,681.13 390.38,678.12 388.25,677.61 
		387.22,675.96 388.66,674.81 390.4,674.93 391.31,676.21 390.79,677.47 392.42,678.05 395.06,675.28 394.74,673.34 390.86,671.01 
		389.26,671.72 388.42,673.5 386.4,675.22 386.41,676.14 384.7,678.16 384.34,678.02 383.68,679.49 383.54,681.68 383.95,685.25 
		385.23,687.24 386.53,687.97 384.99,690.53 383.06,691.26 382.28,690.24 380.97,690.38 380.71,689.82 381.14,688.56 379.98,686.82 
		376.64,685.97 375.44,685.04 372.34,684.91 372.67,682.51 371.75,681.88 373.12,681.31 371.3,678.34 372.43,677.53 372.64,678.39 
		374.05,679.62 375.47,679.08 378.03,676.58 379.42,673 379.55,671.24 376.01,664.93 378.91,661.15 379.07,659.36 378.5,656.85 
		379.85,655.39 378.95,654.18 379.51,653.41 381.01,653.08 381.82,653.31 382.7,654.32 384.45,654.61 385.54,653.28 385.51,653.26 
		386.24,651.63 388.35,650.28 391.4,646.66 394.71,644.72 394.92,643.15 394.33,642.95 394.41,642.21 395.45,642.54 395.75,642.24 
		394.56,641.01 399.4,638.21 399.12,637.8 397.18,638.06 393.02,637.13 393.19,636.54 398.23,634.78 398.83,632.38 399.33,631.93 
		398.48,629.75 397.34,629.14 397.44,627.91 395.43,626.23 395.65,623.35 394.97,622.34 396.18,620.81 396.01,619.42 395.16,617.88 
		395.38,617.25 394.92,616.83 392.81,616.2 392.71,615.3 391.57,614.02 390.99,614.99 387.58,616.51 389.12,622.07 389.01,622.73 
		388.42,622.62 388.06,623.66 386.85,623.91 385.2,625.04 386.23,626.56 389.26,626.18 390.82,626.35 391.44,627.12 392.12,630.18 
		391.66,631.91 390.37,632.92 390.6,633.5 390.07,634.19 387.29,634.46 385.89,635.53 383.7,635.74 384.03,634.69 382.97,633.58 
		383.46,632.25 386.14,631.07 386.49,630.13 385.85,629.54 386.33,628.96 386.04,628.4 383.12,627.58 381.13,628.25 378.75,627.47 
		378.04,628.95 375.95,630.91 374.2,631.41 372.42,632.8 370.16,633.01 370.76,632.26 371.79,632.12 374.64,627.74 373.25,624.8 
		373.73,624.17 372.89,623.79 372.43,624.36 371.38,622.62 371.16,619.6 370.51,618.05 370.63,617.12 371.66,616.16 372.68,613.77 
		374.32,613.75 374.9,615.11 374.18,616.89 374.76,617.2 375.32,616.64 376.66,618.03 376.01,620.61 375.42,620.44 375.36,621.63 
		374.58,622.54 375.48,622.88 376.1,624.32 378.09,622.94 380.23,625.24 381.24,625.08 379.57,621.61 380.79,619.46 380.59,617.82 
		378.77,615.76 376.26,615.3 375.12,614.35 375.45,611.05 374.7,611 374.71,612.37 373.08,612.93 373.08,611.72 374.12,611.86 
		374.05,610.68 372.78,610.25 372.53,609.03 371.58,607.96 370.71,607.75 371.28,606.4 372.37,605.98 372.55,603.64 373.65,602.01 
		374.39,602.98 376.17,601.96 376.51,602.51 375.74,603.2 375.93,603.7 377.05,604.25 378.28,603.8 378.68,604.44 379.39,603.87 
		379.37,605.24 379.57,605.62 380.23,607.41 380.86,606.02 380.64,605.65 382.27,603.73 380.07,600.9 380.89,600.86 380.62,600.22 
		381.18,599.83 381.73,600.21 381.95,601.61 382.48,601.38 382.09,599.29 382.18,598.78 383.04,598.95 383.09,597.49 383.9,598.51 
		384.42,598.58 384.56,598.16 385.64,598.39 385.55,598.94 386.45,600.24 385.16,601.14 385.89,602.25 387.61,603.02 388.12,602.88 
		388.17,602.39 388.17,602.38 388.18,602.34 388.68,601.38 391.35,601.54 392.46,600.76 392.99,599.97 392.2,600.27 392.15,599.5 
		391.79,599.14 390.99,599.33 390.81,598.61 392.82,598.55 393.44,598.07 393.41,597.42 394.87,597.3 395.36,596.4 396.12,597.28 
		395.58,597.76 395.68,598.49 396.92,599.05 396.8,600.2 397.59,600.27 397.98,599.8 398.99,600.19 400.83,599.85 401.37,598.57 
		402.36,598.45 402.49,597.47 401.57,597.16 404.08,595.55 404.55,594.66 404.51,594.05 403.99,593.92 404.18,592.83 405.08,592.98 
		405.81,591.81 407.36,591.34 407.4,590.7 408.64,590.97 408.91,591.55 410.59,591.81 411.83,591.46 413.33,590.27 414.88,591.43 
		415.73,591.09 418.39,592.44 418.82,593.53 420.1,593.4 420.93,592.32 423.07,591.6 423.57,592.26 421.88,594.08 421.75,595.66 
		420.21,596.44 420.37,597.26 421.46,597.32 421.28,601.54 422.62,605.42 423.61,605.21 424.99,606.85 425.64,606.34 428.07,608.5 
		432.07,609.76 432.39,609.09 434.34,608.08 435.51,606.77 438.36,606.68 440.55,608.62 441.82,611.77 441.8,613.58 440.92,616.36 
		440.35,616.47 439.22,618.21 437.23,617.01 436.83,617.39 437.34,618.62 437.06,618.92 435.59,618.7 435.01,619.54 433.91,619.06 
		433.71,618.3 432.53,618.25 432.04,619.31 431.97,621.82 434.12,623.25 437.42,622.75 439.13,624.82 444.07,624.99 441.09,627.62 
		439.78,629.4 440.75,630.17 442.66,629.85 443.05,630.42 441.82,630.67 440.91,631.58 442.35,632.44 442.81,632.62 443.56,631.62 
		444.14,633.18 444.77,633.07 444.94,632.25 445.45,632.15 445.23,633.44 444.3,633.8 442.72,633.2 440.97,635.06 441.04,635.55 
		441.87,636.09 442.08,636.92 443.32,636.81 443.87,637.58 446.43,638.37 446.43,638.8 	"/>
	<path id="JP-41_4_" class="st0" d="M388.17,602.34v0.04l0.01-0.04H388.17z M383.48,588.5l-0.63-0.93l0.76-1.23l-1.95-1.35
		l-2.22,1.67l0.13,0.69l-0.74,0.65l0.03,1.25l0.78-0.63l0.16,1.89l0.95,0.3l0.6-0.94l1.74,0.38l0.49-0.78l-1.12-0.75L383.48,588.5z
		 M379.37,599.96l-0.99,1.42l-0.61,0.25l0.35,0.59l0.85-0.16l0.3-0.63l0.94,0.35L379.37,599.96z"/>
	<path id="JP-32_4_" class="st0" d="M505.58,530.13l-0.25,1.15l1.79,0.74l0.36-0.49L505.58,530.13z M509.83,527.68l-0.62-0.03
		l-0.32,0.76l-0.28-0.58l-0.49,0.18l0.16,1.39l-0.69,1.21l2.6-1.44l0.16-0.98L509.83,527.68z M509.36,526.78l-0.39-0.25l-1.07,0.29
		l-1-0.55l-0.16,0.73l-1.14-0.21l-1.51,1.69l1.36,1.43l-0.21-1.94l0.39-0.28l0.54,0.19l0.29,1.27l0.67,0.28l0.6-0.9l-0.31-0.93
		l1.66-0.34L509.36,526.78z M455.95,454.51l-0.58,0.16l-2.28-0.11l-1.13,0.4l0.14,1.65l1.81,1.38l1.56-1.07l0.24-1.57l0.48-0.41
		L455.95,454.51z M518.36,521.41l-1.11-0.85l-1.82,0.04l-1.78,1.2l-0.49,1.34l0.4,0.39l-0.6,1.2l0.72,0.31l0.41,0.95l0.48,0.35
		l-0.4,0.62l2.84,0.66h0.44l0.06-0.93l-0.89-0.47l0.95,0.1l0.41-0.65l-0.07,0.92l0.78-0.11l1.1-2.24L518.36,521.41z"/>
	<path id="JP-13_4_" class="st0" d="M692.26,629.94l-1.74-1.18l-0.57,0.69l-0.48,2.22l0.05,0.7l0.91,0.9l1.4,0.63l0.87-2.29
		L692.26,629.94z M682.61,643.87l-0.12,0.84l0.6,0.84l1.47-3.47L682.61,643.87z M681.42,644.94l-0.77,0.59l1.05-0.06L681.42,644.94z
		 M689.45,655.5l-1.51-0.21l-1.05,1.41l0.03,1.06l1.04,0.43l1.3-0.18l0.61-0.61l0.18-0.85L689.45,655.5z M689.13,695.37l-0.84-0.31
		l-1.02-1.78l-0.76-0.18l-0.55,1.06l0.21,1l0.61,0.38l-0.09,1.04l1.28,1.34l0.53-1.04l0.65,0.02L689.13,695.37z M689.13,695.37
		l-0.84-0.31l-1.02-1.78l-0.76-0.18l-0.55,1.06l0.21,1l0.61,0.38l-0.09,1.04l1.28,1.34l0.53-1.04l0.65,0.02L689.13,695.37z"/>
	<polygon class="st0" points="504.69,616.8 504.68,616.8 504.68,616.77 	"/>
	<path id="JP-35_4_" class="st0" d="M463.73,592.02l-0.59,0.17l0.04,0.02l0.56-0.15L463.73,592.02z M466.7,603.77l-2.33,0.81
		l-1.52-0.5l-1.67-2.34l-2.25,1.01l-0.24,1.27l0.56,1.61l1.01-0.51l1.35,0.59l0.07-0.88l0.88,0.09l0.66,0.34l-0.19,1.33l1.41,0.2
		l0.05-1.38l0.43-0.41l1.11,0.31l2.38-0.99L466.7,603.77z"/>
</g>
</svg>
