<svg id="Layer_1" data-name="Layer 1" xmlns="http://www.w3.org/2000/svg" viewBox="0 0 800 800"><defs><style>.cls-1{opacity:0.7;}.cls-2{fill:#fff;isolation:isolate;}.cls-3{fill:#397c93;}.cls-4{fill:#5ea6af;}.cls-5{fill:none;stroke:#397c93;stroke-linecap:round;stroke-linejoin:round;}.cls-6{fill:#4c91a1;}</style></defs><g class="cls-1"><rect class="cls-2" width="800" height="800"/><path class="cls-3" d="M387.42,224.8A274.28,274.28,0,0,0,361,214.2c-.8-.3-1.1.9-.3,1.2,8.9,3.1,17.5,6.6,26,10.5.8.3,1.4-.8.7-1.1Z"/><path class="cls-3" d="M202.82,252a223.63,223.63,0,0,1,20.5-19.6,151.26,151.26,0,0,1,23.6-16.1c7.6-4.2,15.3-8.1,23.8-10.2a78.38,78.38,0,0,1,24.1-2.3c10.6.9,21.2,1.5,31.7,2.9.8.1,1.1-1.1.3-1.2-9.3-1.3-18.7-1.8-28.1-2.6a89.38,89.38,0,0,0-12.7-.4,85.83,85.83,0,0,0-12.4,1.6,71.68,71.68,0,0,0-12,3.5,127.27,127.27,0,0,0-11.8,5.6,154.54,154.54,0,0,0-24.3,15.6,225.7,225.7,0,0,0-23.7,22.2c-.4.7.4,1.6,1,1Z"/><path class="cls-3" d="M195.52,249a227.21,227.21,0,0,1,19.3-32.6c.5-.7-.6-1.3-1.1-.6a227.21,227.21,0,0,0-19.3,32.6C194.12,249.1,195.22,249.7,195.52,249Z"/><path class="cls-3" d="M378.92,139.4c29.2,3.4,57.3,13,84.6,23.7,7.6,3,15.2,6.1,22.8,9.1.8.3,1.1-.9.3-1.2-27.3-11-54.7-22.2-83.5-28.7-8-1.8-16.1-3.2-24.2-4.2-.8-.1-.8,1.2,0,1.3Z"/><path class="cls-3" d="M244.62,182.9a172.94,172.94,0,0,1,35.6-25,169.65,169.65,0,0,1,40.1-15.4,167.53,167.53,0,0,1,24.4-3.9c.8-.1.8-1.3,0-1.2a159.25,159.25,0,0,0-42.6,9.4,182.64,182.64,0,0,0-58.3,35.3c-.7.4.2,1.3.8.8Z"/><path class="cls-3" d="M436.32,252.3c-4-2.6-8.1-5.2-12.2-7.7-.7-.4-1.3.7-.6,1.1,4.1,2.5,8.2,5.1,12.2,7.7A.63.63,0,0,0,436.32,252.3Z"/><path class="cls-3" d="M488.52,289.3c24.4,16.4,51.3,31.9,81.4,32.5,12.8.2,27.2-1.9,37.5-10.2,4.2-3.4,7.6-8.1,8.3-13.6a39.55,39.55,0,0,0-.4-10.3,48.39,48.39,0,0,0-3-10.5,123.82,123.82,0,0,0-10.7-20.8c-2.1-3.3-4.4-6.6-6.8-9.7-1.1-1.5-2.3-3-3.5-4.5-.6-.8-1.2-1.5-1.9-2.3-.3-.4-.7-1.1-1.2-1.1a.59.59,0,0,0-.5.7.54.54,0,0,0,.5.5c-.5,0,.3.7.4.8l.8,1,1.6,2c1.1,1.4,2.2,2.8,3.2,4.2,1.9,2.6,3.8,5.2,5.6,8a131,131,0,0,1,9.7,17.6,69.26,69.26,0,0,1,3.7,9.9,43.83,43.83,0,0,1,1.4,10.8,17.3,17.3,0,0,1-1.6,8.4,21,21,0,0,1-4.9,6.5c-9.4,8.8-23.5,11.2-35.9,11.2-14.3.1-28.4-3.4-41.5-8.8-14.7-6.1-28.3-14.6-41.5-23.5-.7-.3-1.3.8-.7,1.2Z"/><path class="cls-4" d="M544.12,199.3a232.74,232.74,0,0,0-21.9-12c-11.7-5.7-23.8-10.8-35.8-15.7a21.65,21.65,0,0,0-1-11c-3.4-8.8-7.7-17.9-6.4-27.3a40.85,40.85,0,0,1,2.9-9.6A101.83,101.83,0,0,1,506,89c2.2-2.1,5.3-4.2,8-2.8a7.46,7.46,0,0,1,2.6,2.7,338.22,338.22,0,0,1,22.9,38.4,114.8,114.8,0,0,1,5.6,12.4C551.92,158.2,549.92,180.6,544.12,199.3Z"/><path class="cls-3" d="M544.52,198.8c-14.2-8.8-29.4-15.9-44.8-22.4-4.3-1.8-8.7-3.6-13-5.4l.4.8c1.4-6.5-1.5-12.4-3.7-18.2-2.7-7.1-5.1-14.7-3.3-22.3a57.32,57.32,0,0,1,4-10.7,77.66,77.66,0,0,1,4.8-9,103.12,103.12,0,0,1,12.6-16.9c2.3-2.4,4.7-5.3,7.5-7,1.5-.9,3.5-1.6,5.1-.6s2.6,3.1,3.6,4.6c4.2,6.3,8.2,12.6,12,19.2s7.6,13.4,10.9,20.3a75.52,75.52,0,0,1,7,20.7c2.7,15.7.6,32.2-4.1,47.3a.62.62,0,1,0,1.2.3c4.3-13.9,6.4-28.9,4.7-43.4a74.57,74.57,0,0,0-5.5-20.7,220,220,0,0,0-11.1-21.6c-4-7-8.1-13.8-12.6-20.5-1.1-1.7-2.2-3.3-3.4-5a7.34,7.34,0,0,0-3-2.8c-3-1.2-6.1,1-8.2,2.9a100.56,100.56,0,0,0-24.4,35,36.88,36.88,0,0,0-3.1,10.9,32.06,32.06,0,0,0,1.1,11.1,85.86,85.86,0,0,0,3.9,11.1c1.3,3.3,2.6,6.4,2.9,9.9a15.49,15.49,0,0,1-.2,4.8.68.68,0,0,0,.4.8c15.4,6.3,30.9,12.8,45.5,20.7,4.1,2.2,8.1,4.5,12,7A.6.6,0,1,0,544.52,198.8Z"/><path class="cls-4" d="M488.92,288.7c-13.2,14.5-31.4,27-50.6,30.4a122.84,122.84,0,0,1-13.6,1.4,334.92,334.92,0,0,1-44.8-.4,7.68,7.68,0,0,1-3.6-.9c-2.5-1.6-2.3-5.4-1.6-8.3a102.36,102.36,0,0,1,17.7-38.3,36.19,36.19,0,0,1,6.8-7.3c7.4-5.9,17.5-6.7,26.8-8.2,3.1-.5,7.7-2.1,10-4.3C453.72,264.4,470.82,276.7,488.92,288.7Z"/><path class="cls-3" d="M488.42,288.3A104.72,104.72,0,0,1,455,313.2a71.12,71.12,0,0,1-20.7,5.9,222.16,222.16,0,0,1-24.5,1.4c-8.2.1-16.4-.1-24.6-.5-1.8-.1-3.6-.2-5.4-.4s-3.9-.6-4.6-2.6c-1.1-2.9.1-6.4.9-9.2a99.05,99.05,0,0,1,7.9-20.4,82.25,82.25,0,0,1,12.2-18.3c5.5-6,12.9-8.5,20.7-9.9,6.5-1.2,14.4-1.2,19.6-5.9l-.8.1c13.8,9,27.3,18.5,40.9,27.8l12,8.1c.7.5,1.3-.6.6-1.1-13.8-9.2-27.3-18.8-41.1-28-3.9-2.7-7.9-5.3-11.8-7.8a.78.78,0,0,0-.8.1c-5,4.5-12.8,4.5-19.1,5.6-6.8,1.2-13.7,3.2-18.9,7.9a43.91,43.91,0,0,0-7.1,8.4,103.22,103.22,0,0,0-14.7,30.2c-1.3,4.3-4.9,13.9,1.5,15.9a26,26,0,0,0,5.6.6c2.1.1,4.2.3,6.4.4,4.3.2,8.5.3,12.8.4,8.6.1,17.2-.1,25.8-.8a80.27,80.27,0,0,0,22.2-4.4c13.5-4.9,25.6-13.5,35.7-23.6,1.3-1.2,2.5-2.5,3.7-3.8C489.92,288.6,489,287.7,488.42,288.3Z"/><path class="cls-4" d="M378.92,138.7a178.81,178.81,0,0,0-34.3-.8,37.32,37.32,0,0,1-8.4-12.4c-2.2-5.9-2.1-12.4-2-18.7,0-.9.2-2,1-2.3a1.7,1.7,0,0,1,1.4,0c10.6,2.8,18.9,10.8,26.7,18.6C368.82,128.4,373.62,133.4,378.92,138.7Z"/><path class="cls-3" d="M378.92,138.1a190.78,190.78,0,0,0-26.2-1.2l-6.6.3a2.85,2.85,0,0,1-1.3,0c-.3-.2-.6-.7-.9-.9l-2-2.3a29.14,29.14,0,0,1-5.7-10.7,44.91,44.91,0,0,1-1.3-12.1v-2.9c0-.7-.2-2.3.3-2.8.7-.7,2.3,0,3.1.3s1.9.6,2.8,1c6.8,2.8,12.5,7.7,17.7,12.7,6.7,6.4,13.2,13.2,19.8,19.8a.75.75,0,0,0,.9,0c.3-.2.2-.6,0-.9-6.5-6.4-12.8-13-19.3-19.3-5.6-5.4-11.7-10.6-19-13.6-1.5-.6-3.6-1.6-5.3-1.6-1.4,0-2,1.2-2.1,2.4a35.28,35.28,0,0,0,0,6.5,46,46,0,0,0,.5,6.4,28.25,28.25,0,0,0,4.1,11.7,35.88,35.88,0,0,0,3.7,5c.7.8,1.3,1.5,2,2.2s1.5.4,2.5.4a177.46,177.46,0,0,1,32.6.9C379.72,139.4,379.72,138.2,378.92,138.1Z"/><path class="cls-4" d="M360.92,214.7c-6.7,3.6-14.3,7.7-20.9,11.3-9.7,5.2-20,10.5-30.9,10.1a2.3,2.3,0,0,1-1.4-.4c-.7-.6-.5-1.7-.3-2.5,1.7-6.1,3.5-12.3,7.3-17.4,3-4,7.6-7.2,12-9.6h0a143.32,143.32,0,0,1,20.5,4.2C351.92,211.8,356.42,213.2,360.92,214.7Z"/><path class="cls-3" d="M360.52,214.2c-7.4,3.9-14.7,8-22.1,11.9-7.2,3.8-14.7,7.6-22.8,8.9a27.56,27.56,0,0,1-6.4.4c-.8,0-1.4-.3-1.4-1.2a3.53,3.53,0,0,1,.3-1.4c.3-1,.6-1.9.8-2.9a54.64,54.64,0,0,1,4.5-11.2,36.81,36.81,0,0,1,13-11.8c.8-.4,1.9,0,2.7.1,1,.2,2.1.3,3.1.5a183.13,183.13,0,0,1,28.4,7.7c.8.3,1.1-.9.3-1.2a187.06,187.06,0,0,0-27.8-7.6l-3.3-.6a16.45,16.45,0,0,0-3.2-.5,5.08,5.08,0,0,0-1.8.9c-1,.6-1.9,1.2-2.8,1.8a32.71,32.71,0,0,0-8.7,8.3,42.73,42.73,0,0,0-5.2,11.5,41.1,41.1,0,0,0-1.7,6,2.19,2.19,0,0,0,1.7,2.6c.2,0,.4.1.6,0,8.7.7,17.5-3,25.1-6.8,9.2-4.6,18.2-9.7,27.3-14.6C361.92,214.9,361.32,213.8,360.52,214.2Z"/><path class="cls-4" d="M210.42,323.3c-.1,4.8-.5,10-3.7,13.6-4.9,5.5-13.9,4.6-19.9,9-7.3,5.4-7.9,17-15.5,22.1-4.3-9.7-5.2-20.6-4.3-31.1s3.6-20.9,6.3-31.1c2.1-8.2.3-16.7,1.6-25.1,1.7-11.7,11.6-23.3,20.1-31.9-3.5,7.2-6.6,14.5-9.4,21.9,5.5-6.5,11-13,16.7-19.1-2.9,7-1.6,13.6-.1,21.1s4.2,14.6,5.9,22.1A118.06,118.06,0,0,1,210.42,323.3Z"/><path class="cls-3" d="M209.82,323.3c-.1,4.7-.4,10-3.9,13.5-2.9,3-7.3,3.9-11.1,5s-7.5,2.4-10.3,5.3c-2.6,2.7-4.2,6.2-5.8,9.6-1.9,4-3.9,8.1-7.6,10.7l.9.2c-6.9-15.8-4.8-33.5-.9-49.8,1-4.2,2.2-8.4,3.2-12.6a52.36,52.36,0,0,0,1-12.5c0-4.3-.2-8.7.6-12.9a36,36,0,0,1,3.9-10.5c4.1-7.5,9.9-14.1,15.9-20.1l-1-.8c-3.5,7.2-6.6,14.6-9.4,22.1a.59.59,0,0,0,.5.7.9.9,0,0,0,.5-.1c5.4-6.5,10.9-12.9,16.7-19.1l-1-.6c-3.4,8.5-1.1,18,1.1,26.5,1.3,4.8,2.8,9.4,4,14.2a99.84,99.84,0,0,1,2.5,14.5c.2,5.5.4,11.1.2,16.7.1.3.4.6.7.5a.54.54,0,0,0,.5-.5,118.06,118.06,0,0,0-2.3-28.5c-2-9.3-5.4-18.3-7-27.8a28.47,28.47,0,0,1,1.1-15.3.6.6,0,0,0-1-.6c-5.8,6.2-11.3,12.6-16.7,19.1l1,.6c2.8-7.4,5.9-14.7,9.3-21.8.3-.6-.5-1.3-1-.8a104.78,104.78,0,0,0-14.6,17.9,42.19,42.19,0,0,0-4.7,10.1,38.82,38.82,0,0,0-1.4,12.2,99.51,99.51,0,0,1-.4,13.4c-.6,4.4-2.1,8.9-3.1,13.2a134.33,134.33,0,0,0-4.1,25.9,63.23,63.23,0,0,0,4.6,27.2.65.65,0,0,0,.9.2c6.9-4.7,7.8-13.7,13-19.8,2.9-3.4,6.9-4.7,11.1-5.9,3.8-1.1,8-2.1,10.9-5,3.8-3.8,4.3-9.5,4.4-14.5a.63.63,0,0,0-.8-.4A1.27,1.27,0,0,0,209.82,323.3Z"/><path class="cls-3" d="M201.72,251.5h0v-.2h0l.1-.1h0l.1-.1h0l-.1.1-.1.1v.2h0a.55.55,0,0,0,.4.6.35.35,0,0,1,.2.1h.2c.1,0,.2-.1.3-.2l.1-.1a.37.37,0,0,0,.1-.3h0v.2h0l-.1.1h0l-.1.1h0l.1-.1.1-.1v-.2c0-.1,0-.2-.1-.2q-.15-.3-.3-.3a.35.35,0,0,1-.2-.1h-.2c-.1,0-.2.1-.3.2l-.1.1C201.72,251.3,201.72,251.4,201.72,251.5Z"/><path class="cls-5" d="M610.32,272s14.4-5.8,23,7.7"/><path class="cls-5" d="M585.92,320.5s-4.5,14.8,9.7,22.2"/><path class="cls-3" d="M588.32,239.4a51.36,51.36,0,0,0-14,1.9c-6.8,2.1-12.7,6.5-19.1,9.5s-14.5,4.4-20.5.6c-6.3-4-8.2-12.3-8.3-19.8-.1-3.7,0-7.9-2.6-10.6a33.75,33.75,0,0,0-3.8-2.8c-4.6-3.5-6.3-9.8-5.4-15.5s4.1-11,7.6-15.5a232.74,232.74,0,0,1,21.9,12,152.72,152.72,0,0,1,31.5,25.7C580,229.7,584.22,234.5,588.32,239.4Z"/><path class="cls-3" d="M588.32,238.8a53.14,53.14,0,0,0-13.7,1.8,59.54,59.54,0,0,0-12,5.6c-7.2,4.1-16,9-24.5,6.1-7.9-2.6-10.5-11.4-11-18.9-.2-3.6.2-7.6-1.5-10.9a9.91,9.91,0,0,0-3.8-3.8,16,16,0,0,1-4.4-4.2c-5.6-9-.3-19.4,5.3-26.9l-.9.2c19.5,9.6,38.2,21.2,53,37.3,4.4,4.8,8.8,9.7,13,14.8.5.6,1.4-.3.9-.9-7.1-8.6-14.6-17.2-23.1-24.6a171.62,171.62,0,0,0-26.1-18.6c-5.6-3.3-11.3-6.3-17.1-9.1a.65.65,0,0,0-.9.2c-5.2,6.8-9.7,15.3-7.2,24a15.56,15.56,0,0,0,6.8,8.9,8.68,8.68,0,0,1,3.9,5.1,27.65,27.65,0,0,1,.5,6.4c.2,7.2,1.8,15.5,7.9,20,7,5.1,16.5,2.6,23.6-.9,4.8-2.4,9.3-5.5,14.3-7.6,5.3-2.2,11-2.7,16.7-2.9a.69.69,0,0,0,.5-.8C588.72,239,588.62,238.9,588.32,238.8Z"/><path class="cls-3" d="M588.32,238.8h0a.65.65,0,0,0-.6.6v.2c0,.1.1.2.2.3l.1.1a.37.37,0,0,0,.3.1h0c.1,0,.2,0,.2-.1q.3-.15.3-.3a.35.35,0,0,1,.1-.2v-.2c0-.1-.1-.2-.2-.3l-.1-.1c0-.1-.1-.1-.3-.1Z"/><path class="cls-6" d="M440.62,215.8c2.4,3.6,3.6,8.6,1.3,12.2-2.7,4.3-8.9,4.9-12.7,8.3-2.3,2-4.1,5.9-5.4,8.8a359.89,359.89,0,0,0-36.7-19.8c.4-7,.8-13.9,2.5-20.6s4.9-13.3,10.1-18a37.51,37.51,0,0,1,14.4-7.5,35,35,0,0,1,14.4-1.5,18.85,18.85,0,0,1,12.4,6.8c2.9,3.9,3.7,9.5,1.3,13.7-1.2,2.2-3.2,3.9-4.2,6.2a9.5,9.5,0,0,0,0,7.4A24.84,24.84,0,0,0,440.62,215.8Z"/><path class="cls-3" d="M440,216.1c1.9,2.9,3.2,6.6,2,10-1,3.1-4,4.7-6.8,6-2.6,1.2-5.4,2.3-7.3,4.5a30.47,30.47,0,0,0-4.8,8.2l.9-.2a359.89,359.89,0,0,0-36.7-19.8l.3.5c.5-8.4,1-16.9,3.9-24.9,2.7-7.3,7.4-13.5,14.3-17.2a45.9,45.9,0,0,1,11.4-4.2,30,30,0,0,1,13-.4c7.2,1.7,13.7,7.6,12.7,15.6a11.35,11.35,0,0,1-2.4,5.5,19.7,19.7,0,0,0-3.2,4.9,10.06,10.06,0,0,0-.4,5.7c.5,2.2,1.9,4,3.1,5.8.5.6,1.6,0,1.1-.7-1.2-1.8-2.6-3.5-3.1-5.6a8.57,8.57,0,0,1,1.4-6.6c1.1-1.6,2.4-3,3.4-4.7a11.58,11.58,0,0,0,1.4-4.8c.6-7.5-5-13.5-11.8-15.8-7.9-2.6-16.9-.5-24.3,2.8a31.8,31.8,0,0,0-16.3,16c-4.1,8.9-4.8,18.9-5.3,28.5a.55.55,0,0,0,.3.5,359.89,359.89,0,0,1,36.7,19.8.65.65,0,0,0,.9-.2c1.4-3.1,2.9-6.7,5.5-8.9s5.7-3,8.5-4.6,4.8-3.8,5.3-6.9a14.25,14.25,0,0,0-2.5-9.6C440.72,214.8,439.62,215.4,440,216.1Z"/><path class="cls-3" d="M374.22,162.2c0,2.7-1.8,5.1-3.7,6.9a20.59,20.59,0,0,1-11.1,6c-3.5.5-7-.1-10.4-.7-13.2-2.4-27.4-4-39.6,1.7-2.4,1.1-4.8,2.6-7.3,3.5a11.32,11.32,0,0,1-7.9.4,8.6,8.6,0,0,1-5.1-9,9.8,9.8,0,0,1,7-7.9c1.8-.5,3.6-.6,5.4-1.2s2.1-.7,2.4-2.5c.5-3.4,3.3-6.1,6.5-7.3s6.7-1.3,10.2-1.3c5.8-.1,11.8-.1,17.2,2,1.9.7,3.6,1.7,5.6,2.4,5.3,1.7,11.1.3,16.7-.4a18.26,18.26,0,0,1,9,.7C371.92,156.6,374.22,159.2,374.22,162.2Z"/><path class="cls-6" d="M246.82,193.4c-1.1,1.6-3.2,2-4.8,3.1-2.2,1.6-3,4.6-3.4,7.4s-.4,5.7-1.8,8.1a10.18,10.18,0,0,1-5.1,4.3,18.9,18.9,0,0,1-6.6,1.3,26.47,26.47,0,0,1-10.8-1.5,203.12,203.12,0,0,1,29.9-33.6,35.43,35.43,0,0,1,2.5,5.2C247.42,189.5,247.92,191.8,246.82,193.4Z"/><path class="cls-3" d="M246.32,193c-1.1,1.5-3,1.9-4.5,2.9a7.7,7.7,0,0,0-2.8,3.6c-1.4,3.5-.9,7.4-2.1,10.9-1.5,4.2-5.9,6-10,6.5a24.88,24.88,0,0,1-12.4-1.4l.4.9a205.93,205.93,0,0,1,29.8-33.5l-1-.1a29.18,29.18,0,0,1,2.3,4.7c.7,1.8,1.3,3.9.2,5.6-.4.7.7,1.3,1.1.6,1.1-1.8.8-4,.1-5.9a29.74,29.74,0,0,0-2.7-5.7.65.65,0,0,0-.9-.2l-.1.1a203.79,203.79,0,0,0-29.9,33.7.65.65,0,0,0,.2.9.1.1,0,0,1,.1.1,26.6,26.6,0,0,0,12.8,1.4c3.7-.4,7.6-1.7,9.9-4.9,2.5-3.3,1.9-7.5,2.8-11.4a7.71,7.71,0,0,1,3-5c1.6-1,3.4-1.4,4.6-3C247.72,193.2,246.82,192.3,246.32,193Z"/><path class="cls-3" d="M412.62,575.2A274.28,274.28,0,0,0,439,585.8c.8.3,1.1-.9.3-1.2-8.9-3.1-17.5-6.6-26-10.5C412.52,573.8,411.92,574.9,412.62,575.2Z"/><path class="cls-3" d="M597.22,548a223.63,223.63,0,0,1-20.5,19.6,151.26,151.26,0,0,1-23.6,16.1c-7.6,4.2-15.3,8.1-23.8,10.2a78.38,78.38,0,0,1-24.1,2.3c-10.6-.8-21.2-1.5-31.7-2.9-.8-.1-1.1,1.1-.3,1.2,9.3,1.3,18.7,1.8,28.1,2.6a89.38,89.38,0,0,0,12.7.4,85.83,85.83,0,0,0,12.4-1.6,71.68,71.68,0,0,0,12-3.5,106.66,106.66,0,0,0,11.8-5.7,154.54,154.54,0,0,0,24.3-15.6,225.7,225.7,0,0,0,23.7-22.2.68.68,0,0,0-1-.9Z"/><path class="cls-3" d="M604.52,551a227.21,227.21,0,0,1-19.3,32.6c-.5.7.6,1.3,1.1.6a227.21,227.21,0,0,0,19.3-32.6C605.92,550.9,604.82,550.3,604.52,551Z"/><path class="cls-3" d="M421.12,660.6c-29.2-3.4-57.3-13-84.6-23.7-7.6-3-15.2-6.1-22.8-9.1-.8-.3-1.1.9-.3,1.2,27.3,11,54.7,22.2,83.5,28.7,8,1.8,16.1,3.2,24.2,4.2.8.1.8-1.2,0-1.3Z"/><path class="cls-3" d="M555.42,617.1a177,177,0,0,1-75.6,40.5,167.53,167.53,0,0,1-24.4,3.9c-.8.1-.8,1.3,0,1.2a159.25,159.25,0,0,0,42.6-9.4,182.64,182.64,0,0,0,58.3-35.3c.6-.5-.3-1.4-.9-.9Z"/><path class="cls-3" d="M363.72,547.7c4,2.6,8.1,5.2,12.2,7.7.7.4,1.3-.7.6-1.1-4.1-2.5-8.2-5.1-12.2-7.7A.63.63,0,0,0,363.72,547.7Z"/><path class="cls-3" d="M311.52,510.7c-24.4-16.4-51.3-31.9-81.4-32.5-12.8-.2-27.2,1.9-37.5,10.2-4.2,3.4-7.6,8.1-8.4,13.6a39.55,39.55,0,0,0,.4,10.3,48.39,48.39,0,0,0,3,10.5,123.82,123.82,0,0,0,10.7,20.8c2.1,3.3,4.4,6.5,6.8,9.7,1.1,1.5,2.3,3,3.4,4.5.6.8,1.2,1.5,1.9,2.3.3.4.7,1.2,1.2,1.2a.59.59,0,0,0,.5-.7.54.54,0,0,0-.5-.5c.5,0-.3-.7-.4-.8-.3-.3-.5-.7-.8-1-.5-.7-1.1-1.3-1.6-2-1.1-1.4-2.2-2.8-3.2-4.2-1.9-2.6-3.8-5.2-5.6-8a116.75,116.75,0,0,1-9.7-17.7,69.26,69.26,0,0,1-3.7-9.9,43.83,43.83,0,0,1-1.4-10.8,17.3,17.3,0,0,1,1.6-8.4,21,21,0,0,1,4.9-6.5c9.4-8.8,23.6-11.2,35.9-11.2,14.3-.1,28.4,3.4,41.5,8.9,14.7,6.1,28.3,14.6,41.5,23.5.9.2,1.5-.9.9-1.3Z"/><path class="cls-4" d="M255.92,600.7a232.74,232.74,0,0,0,21.9,12c11.7,5.7,23.8,10.8,35.8,15.7a21.65,21.65,0,0,0,1,11c3.4,8.8,7.7,17.9,6.4,27.3a40.85,40.85,0,0,1-2.9,9.6A100.49,100.49,0,0,1,294,710.9c-2.2,2.1-5.3,4.2-8,2.8a8.39,8.39,0,0,1-2.6-2.7,338.22,338.22,0,0,1-22.9-38.4,114.8,114.8,0,0,1-5.6-12.4C248.12,641.8,250.12,619.4,255.92,600.7Z"/><path class="cls-3" d="M255.62,601.2c14.2,8.8,29.4,15.9,44.8,22.4,4.3,1.8,8.7,3.6,13,5.4l-.4-.8c-1.4,6.5,1.5,12.3,3.7,18.2,2.7,7.1,5.1,14.7,3.3,22.3a57.32,57.32,0,0,1-4,10.7,100.62,100.62,0,0,1-17.4,25.9c-2.3,2.5-4.7,5.3-7.5,7-1.5.9-3.5,1.6-5.1.6s-2.6-3.1-3.6-4.6q-6.3-9.3-12-19.2c-3.9-6.6-7.6-13.4-10.9-20.3a75.52,75.52,0,0,1-7-20.7c-2.7-15.7-.6-32.2,4.1-47.3a.62.62,0,0,0-1.2-.3c-4.3,13.9-6.4,28.9-4.7,43.4a74.57,74.57,0,0,0,5.5,20.7,220,220,0,0,0,11.1,21.6c3.9,7,8.1,13.8,12.6,20.5,1.1,1.7,2.2,3.3,3.4,5a7.34,7.34,0,0,0,3,2.8c3,1.2,6.1-1,8.2-2.9a100.56,100.56,0,0,0,24.4-35,36.88,36.88,0,0,0,3.1-10.9,32.06,32.06,0,0,0-1.1-11.1,73.08,73.08,0,0,0-3.9-11.1c-1.3-3.3-2.6-6.4-2.9-9.9a15.49,15.49,0,0,1,.2-4.8.68.68,0,0,0-.4-.8c-15.4-6.3-30.9-12.8-45.5-20.7-4.1-2.2-8.1-4.5-12-7C255.52,599.7,254.92,600.8,255.62,601.2Z"/><path class="cls-4" d="M311.12,511.3c13.2-14.5,31.4-27,50.6-30.4a122.84,122.84,0,0,1,13.6-1.4,334.92,334.92,0,0,1,44.8.4,7.68,7.68,0,0,1,3.6.9c2.5,1.6,2.3,5.4,1.6,8.3a102.36,102.36,0,0,1-17.7,38.3,36.19,36.19,0,0,1-6.8,7.3c-7.4,5.8-17.5,6.7-26.8,8.2-3.1.5-7.7,2.1-10,4.3C346.32,535.7,329.22,523.3,311.12,511.3Z"/><path class="cls-3" d="M311.62,511.7A104.72,104.72,0,0,1,345,486.8a71.12,71.12,0,0,1,20.7-5.9,222.16,222.16,0,0,1,24.5-1.4c8.2-.1,16.4.1,24.6.5,1.8.1,3.6.2,5.4.4s3.9.5,4.6,2.5c1.1,2.9-.1,6.4-.9,9.2a102.16,102.16,0,0,1-7.9,20.5,82.25,82.25,0,0,1-12.2,18.3c-5.5,6-12.9,8.5-20.7,9.9-6.5,1.2-14.4,1.2-19.6,5.9l.8-.1c-13.8-9-27.3-18.5-40.9-27.8l-12-8.1c-.7-.5-1.3.6-.6,1.1,13.8,9.2,27.3,18.8,41.1,28.1,3.9,2.7,7.9,5.3,11.8,7.8a.78.78,0,0,0,.8-.1c5-4.5,12.8-4.5,19.1-5.6,6.8-1.2,13.7-3.2,18.9-7.9a47.19,47.19,0,0,0,7.1-8.4,103.22,103.22,0,0,0,14.7-30.2c1.3-4.3,4.9-13.9-1.5-15.9a26,26,0,0,0-5.6-.6c-2.1-.1-4.2-.3-6.4-.4-4.3-.2-8.5-.3-12.8-.3-8.6-.1-17.2.1-25.8.8a80.27,80.27,0,0,0-22.2,4.4c-13.5,4.9-25.6,13.5-35.7,23.6-1.2,1.3-2.5,2.5-3.7,3.8C310.12,511.4,311,512.3,311.62,511.7Z"/><path class="cls-4" d="M421.12,661.3a178.81,178.81,0,0,0,34.3.8,37.32,37.32,0,0,1,8.4,12.4c2.2,5.9,2.1,12.4,2,18.7,0,.9-.2,2-1,2.3a1.7,1.7,0,0,1-1.4,0c-10.6-2.8-18.9-10.8-26.7-18.6C431.22,671.6,426.42,666.6,421.12,661.3Z"/><path class="cls-3" d="M421.12,661.9a176.19,176.19,0,0,0,26.2,1.2l6.6-.3a2.85,2.85,0,0,1,1.3,0c.3.2.6.7.9.9l2,2.3a29.14,29.14,0,0,1,5.7,10.7,44.91,44.91,0,0,1,1.3,12.1v3c0,.7.2,2.3-.3,2.8-.7.7-2.3,0-3.1-.3s-1.9-.6-2.8-1c-6.8-2.8-12.5-7.7-17.7-12.7-6.7-6.5-13.2-13.2-19.8-19.8a.75.75,0,0,0-.9,0c-.3.2-.2.6,0,.9h0c6.5,6.4,12.8,13,19.3,19.3,5.6,5.4,11.7,10.6,19,13.6,1.5.6,3.6,1.6,5.3,1.6,1.4,0,2-1.2,2.1-2.4a35.28,35.28,0,0,0,0-6.5,46,46,0,0,0-.5-6.4,28.25,28.25,0,0,0-4.1-11.7,35.88,35.88,0,0,0-3.7-5c-.7-.8-1.3-1.5-2-2.2s-1.5-.4-2.5-.4a177.46,177.46,0,0,1-32.6-.9C420.32,660.5,420.32,661.8,421.12,661.9Z"/><path class="cls-4" d="M439.12,585.3c6.7-3.6,14.3-7.7,20.9-11.3,9.7-5.2,20-10.5,30.9-10.1a2.3,2.3,0,0,1,1.4.4c.7.6.5,1.7.3,2.5-1.7,6.1-3.5,12.3-7.3,17.4-3,4-7.6,7.2-12,9.7h0a143.32,143.32,0,0,1-20.5-4.2C448.12,588.2,443.62,586.8,439.12,585.3Z"/><path class="cls-3" d="M439.52,585.8c7.4-4,14.7-8,22.1-11.9,7.2-3.8,14.7-7.6,22.8-9a27.56,27.56,0,0,1,6.4-.4c.8,0,1.4.3,1.4,1.2a3.53,3.53,0,0,1-.3,1.4c-.3,1-.6,1.9-.8,2.9a54.64,54.64,0,0,1-4.5,11.2,36.81,36.81,0,0,1-13,11.8c-.8.4-1.9,0-2.7-.2-1-.2-2.1-.3-3.1-.5a183.13,183.13,0,0,1-28.4-7.7c-.8-.3-1.1.9-.3,1.2a187.06,187.06,0,0,0,27.8,7.6c1.1.2,2.2.4,3.3.5a16.45,16.45,0,0,0,3.2.5,5.08,5.08,0,0,0,1.8-.9c1-.6,1.9-1.2,2.8-1.8a32.71,32.71,0,0,0,8.7-8.3,42.73,42.73,0,0,0,5.2-11.5,41.1,41.1,0,0,0,1.7-6,2.19,2.19,0,0,0-1.7-2.6c-.2,0-.4-.1-.6,0-8.7-.7-17.5,3-25.1,6.8-9.2,4.6-18.2,9.7-27.3,14.6A.63.63,0,1,0,439.52,585.8Z"/><path class="cls-4" d="M589.62,476.7c.1-4.8.5-10,3.7-13.6,4.9-5.5,14-4.6,19.9-9,7.3-5.4,7.9-17,15.5-22.1,4.3,9.7,5.2,20.6,4.3,31.1s-3.6,20.9-6.3,31.1c-2.1,8.2-.3,16.7-1.6,25.1-1.7,11.7-11.6,23.3-20.1,31.8a236.5,236.5,0,0,0,9.4-21.9c-5.5,6.5-11,13-16.7,19.1,2.9-7,1.6-13.6.1-21.1s-4.2-14.6-5.9-22.1A116.84,116.84,0,0,1,589.62,476.7Z"/><path class="cls-3" d="M590.22,476.7c.1-4.7.4-10,3.9-13.5,2.9-3,7.3-3.9,11.2-5s7.5-2.4,10.3-5.3c2.6-2.7,4.2-6.2,5.8-9.6,1.9-4,3.9-8.1,7.6-10.7l-.9-.2c6.9,15.8,4.8,33.5,1,49.8-1,4.2-2.2,8.4-3.2,12.6a52.36,52.36,0,0,0-1,12.5c0,4.3.2,8.7-.6,12.9a33.32,33.32,0,0,1-3.9,10.5c-4.1,7.6-9.9,14.1-15.9,20.2l1,.8c3.5-7.2,6.6-14.6,9.4-22a.59.59,0,0,0-.5-.7.9.9,0,0,0-.5.1c-5.4,6.5-10.9,12.9-16.7,19.1l1,.6c3.4-8.5,1.1-18-1.1-26.5-1.3-4.8-2.8-9.4-4-14.2a99.84,99.84,0,0,1-2.5-14.5c-.4-5.6-.5-11.2-.4-16.9,0-.3-.3-.5-.7-.5a.54.54,0,0,0-.5.5,118.06,118.06,0,0,0,2.3,28.5c2,9.3,5.4,18.3,7,27.7.8,5.2.8,10.3-1.1,15.3a.61.61,0,0,0,1,.6c5.8-6.2,11.3-12.6,16.7-19.1l-1-.6c-2.8,7.4-5.9,14.7-9.3,21.8-.3.6.5,1.3,1,.8a104.78,104.78,0,0,0,14.6-17.9,37.56,37.56,0,0,0,6.2-22.3,119.35,119.35,0,0,1,.3-13.4c.5-4.4,2.1-8.9,3.2-13.2a126.76,126.76,0,0,0,4-26c.3-9.3-.9-18.6-4.6-27.2a.65.65,0,0,0-.9-.2c-6.9,4.7-7.8,13.7-13,19.8-2.9,3.4-6.9,4.7-11.1,5.9-3.8,1.1-8,2.1-10.9,5-3.8,3.8-4.3,9.5-4.4,14.5a.63.63,0,0,0,.8.4C590,477.1,590.12,477,590.22,476.7Z"/><path class="cls-3" d="M598.32,548.5h0v.2h0l-.1.2h0l-.1.1h0l.1-.1.1-.2v-.2h0a.55.55,0,0,0-.4-.6.35.35,0,0,1-.2-.1h-.2c-.1,0-.2.1-.3.2l-.1.1a.37.37,0,0,0-.1.3h0v-.2h0l.1-.2h0l.1-.1h0l-.1.1-.1.2v.2c0,.1,0,.2.1.2s.1.1.1.2.1.1.2.1h.4c.1,0,.2-.1.3-.2l.1-.1c.1.1.1-.1.1-.1Z"/><path class="cls-5" d="M189.72,528s-14.4,5.8-23-7.7"/><path class="cls-5" d="M214.12,479.5s4.5-14.8-9.7-22.2"/><path class="cls-3" d="M211.72,560.6a51.36,51.36,0,0,0,14-1.9c6.8-2.1,12.7-6.5,19.1-9.5s14.5-4.4,20.5-.6c6.3,4,8.2,12.3,8.3,19.8.1,3.7,0,7.9,2.6,10.6a33.75,33.75,0,0,0,3.8,2.8c4.6,3.5,6.3,9.8,5.4,15.5s-4.1,11-7.6,15.5c-7.5-3.6-14.8-7.7-21.9-12a149.55,149.55,0,0,1-31.5-25.7C220,570.3,215.82,565.5,211.72,560.6Z"/><path class="cls-3" d="M211.72,561.2a53.14,53.14,0,0,0,13.7-1.8,59.54,59.54,0,0,0,12-5.6c7.2-4.1,16-9,24.5-6.2,7.9,2.6,10.5,11.4,11,18.9.2,3.6-.2,7.6,1.5,10.9a9.91,9.91,0,0,0,3.8,3.8,14.7,14.7,0,0,1,4.4,4.2c5.6,9,.3,19.5-5.4,26.9l.9-.2c-19.5-9.6-38.2-21.2-53-37.3-4.4-4.8-8.8-9.7-13-14.8-.5-.6-1.4.3-.9.9,7.1,8.6,14.6,17.2,23.1,24.6a171.62,171.62,0,0,0,26.1,18.6c5.6,3.3,11.3,6.3,17.1,9.1a.65.65,0,0,0,.9-.2c5.1-6.8,9.7-15.3,7.2-24a15.56,15.56,0,0,0-6.8-8.9,8.68,8.68,0,0,1-3.9-5.1,27.65,27.65,0,0,1-.5-6.4c-.1-7.2-1.8-15.5-7.9-20-7-5.1-16.5-2.6-23.6,1-4.8,2.4-9.3,5.5-14.4,7.5-5.3,2.2-11,2.7-16.7,2.9A.6.6,0,1,0,211.72,561.2Z"/><path class="cls-3" d="M211.62,561.2h.2c.1,0,.1-.1.2-.1s.1-.1.1-.2a.35.35,0,0,1,.1-.2v-.2c0-.1-.1-.2-.2-.3V560a.37.37,0,0,0-.3-.1h0c-.1,0-.2,0-.2.1q-.3.15-.3.3a.35.35,0,0,1-.1.2v.2c0,.1.1.2.2.3l.1.1a.35.35,0,0,0,.2.1Z"/><path class="cls-6" d="M359.42,584.2c-2.4-3.6-3.6-8.5-1.3-12.2,2.7-4.3,8.9-4.9,12.7-8.3,2.3-2,4.1-6,5.4-8.8a359.89,359.89,0,0,0,36.7,19.8c-.4,7-.8,13.9-2.5,20.6s-4.9,13.3-10.1,18a37.51,37.51,0,0,1-14.4,7.5,35,35,0,0,1-14.4,1.5,18.85,18.85,0,0,1-12.4-6.8c-2.9-3.9-3.7-9.5-1.3-13.7,1.2-2.2,3.2-3.9,4.2-6.2a9.5,9.5,0,0,0,0-7.4A24.84,24.84,0,0,0,359.42,584.2Z"/><path class="cls-3" d="M360,583.9c-1.9-2.9-3.2-6.6-2-10,1-3.1,4-4.7,6.8-6,2.6-1.2,5.4-2.3,7.3-4.5a30.47,30.47,0,0,0,4.8-8.2l-.9.2a359.89,359.89,0,0,0,36.7,19.8l-.3-.5c-.5,8.4-1,16.9-3.9,24.9-2.7,7.3-7.4,13.5-14.3,17.2a45.9,45.9,0,0,1-11.4,4.2,30,30,0,0,1-13,.4c-7.2-1.7-13.7-7.6-12.7-15.5a11.35,11.35,0,0,1,2.4-5.5,19.7,19.7,0,0,0,3.2-4.9,10.06,10.06,0,0,0,.4-5.7c-.5-2.3-1.9-4.1-3.1-5.9-.5-.6-1.6,0-1.1.7,1.2,1.8,2.6,3.5,3.1,5.7a8.57,8.57,0,0,1-1.4,6.6c-1.1,1.6-2.4,3-3.4,4.7a11.58,11.58,0,0,0-1.4,4.8c-.6,7.5,5,13.5,11.8,15.8,7.9,2.6,16.9.5,24.3-2.8a31.8,31.8,0,0,0,16.3-16c4.1-8.9,4.8-18.9,5.3-28.5a.55.55,0,0,0-.3-.5,359.89,359.89,0,0,1-36.7-19.8.65.65,0,0,0-.9.2c-1.4,3.1-2.9,6.7-5.5,8.9s-5.7,3-8.5,4.6-4.8,3.8-5.3,7a13.72,13.72,0,0,0,2.5,9.6C359.32,585.2,360.42,584.5,360,583.9Z"/><path class="cls-3" d="M425.82,637.8c0-2.7,1.8-5.1,3.7-6.9a20.59,20.59,0,0,1,11.1-6c3.5-.5,7,.1,10.4.7,13.2,2.3,27.4,4,39.6-1.7a69.69,69.69,0,0,1,7.3-3.5,10.78,10.78,0,0,1,7.9-.3,8.6,8.6,0,0,1,5.1,9,9.8,9.8,0,0,1-7,7.9c-1.8.5-3.6.5-5.4,1.2s-2.1.7-2.4,2.5c-.5,3.4-3.3,6.1-6.5,7.3s-6.7,1.3-10.2,1.3c-5.8.1-11.8.1-17.2-2-1.9-.7-3.6-1.7-5.6-2.4-5.3-1.7-11.1-.3-16.7.3-3,.3-6.2.4-9-.7S425.82,640.8,425.82,637.8Z"/><path class="cls-6" d="M553.22,606.6c1.1-1.6,3.2-2,4.8-3.1,2.2-1.6,3-4.6,3.4-7.4s.4-5.7,1.8-8.1a10.18,10.18,0,0,1,5.1-4.3,19,19,0,0,1,6.7-1.3,26.54,26.54,0,0,1,10.8,1.6A207.14,207.14,0,0,1,556,617.6a35.43,35.43,0,0,1-2.5-5.2C552.62,610.5,552.12,608.2,553.22,606.6Z"/><path class="cls-3" d="M553.72,607c1.2-1.5,3-1.9,4.5-2.9a7.7,7.7,0,0,0,2.8-3.6c1.4-3.5.9-7.3,2.1-10.9,1.5-4.2,5.9-6,10-6.5a24.88,24.88,0,0,1,12.4,1.4l-.4-.9a205.93,205.93,0,0,1-29.8,33.5l1,.1a29.18,29.18,0,0,1-2.3-4.7c-.7-1.8-1.3-3.8-.3-5.5a.61.61,0,1,0-1-.7c-1.1,1.8-.8,4-.1,5.9a29.74,29.74,0,0,0,2.7,5.7.65.65,0,0,0,.9.2.1.1,0,0,0,.1-.1,204.39,204.39,0,0,0,30-33.7.52.52,0,0,0-.2-.8.1.1,0,0,1-.1-.1,26.6,26.6,0,0,0-12.8-1.4c-3.7.4-7.6,1.7-9.9,4.8-2.5,3.3-1.9,7.5-2.8,11.4a7.71,7.71,0,0,1-3,5c-1.5,1-3.4,1.5-4.6,3C552.32,606.8,553.22,607.7,553.72,607Z"/><ellipse class="cls-3" cx="570.49" cy="314.31" rx="2.7" ry="8.1" transform="translate(195.76 847.07) rotate(-83.73)"/><ellipse class="cls-3" cx="600.14" cy="270.3" rx="2.7" ry="8.1" transform="translate(-45.52 398.2) rotate(-35.45)"/><ellipse class="cls-3" cx="230.52" cy="486.62" rx="2.6" ry="8.1" transform="translate(-278.36 662.62) rotate(-83.73)"/><ellipse class="cls-3" cx="200.92" cy="530.67" rx="2.6" ry="8.1" transform="translate(-270.54 214.92) rotate(-35.45)"/></g></svg>