<?xml version="1.0" encoding="utf-8"?>
<!-- Generator: Adobe Illustrator 25.3.0, SVG Export Plug-In . SVG Version: 6.00 Build 0)  -->
<svg version="1.1" id="Layer_1" xmlns="http://www.w3.org/2000/svg" xmlns:xlink="http://www.w3.org/1999/xlink" x="0px" y="0px"
	 viewBox="0 0 800 800" style="enable-background:new 0 0 800 800;" xml:space="preserve">
<style type="text/css">
	.st0{fill:#FFFFFF;enable-background:new    ;}
	.st1{fill:#397C93;}
	.st2{fill:#5EA6AF;}
	.st3{fill:none;stroke:#397C93;stroke-linecap:round;stroke-linejoin:round;}
	.st4{fill:#4C91A1;}
</style>
<g>
	<rect class="st0" width="800" height="800"/>
	<g>
		<path class="st1" d="M387.4,224.8c-8.6-4-17.4-7.5-26.4-10.6c-0.8-0.3-1.1,0.9-0.3,1.2c8.9,3.1,17.5,6.6,26,10.5
			C387.5,226.2,388.1,225.1,387.4,224.8L387.4,224.8z"/>
		<path class="st1" d="M202.8,252c6.4-6.9,13.2-13.5,20.5-19.6s15.3-11.5,23.6-16.1c7.6-4.2,15.3-8.1,23.8-10.2
			c7.9-2,16-2.8,24.1-2.3c10.6,0.9,21.2,1.5,31.7,2.9c0.8,0.1,1.1-1.1,0.3-1.2c-9.3-1.3-18.7-1.8-28.1-2.6
			c-4.2-0.4-8.4-0.6-12.7-0.4c-4.2,0.2-8.3,0.8-12.4,1.6s-8.1,2-12,3.5c-4,1.7-8,3.5-11.8,5.6c-8.6,4.4-16.7,9.7-24.3,15.6
			c-8.4,6.8-16.3,14.2-23.7,22.2C201.4,251.7,202.2,252.6,202.8,252L202.8,252z"/>
		<path class="st1" d="M195.5,249c5.5-11.4,12-22.3,19.3-32.6c0.5-0.7-0.6-1.3-1.1-0.6c-7.3,10.3-13.8,21.2-19.3,32.6
			C194.1,249.1,195.2,249.7,195.5,249z"/>
		<path class="st1" d="M378.9,139.4c29.2,3.4,57.3,13,84.6,23.7c7.6,3,15.2,6.1,22.8,9.1c0.8,0.3,1.1-0.9,0.3-1.2
			c-27.3-11-54.7-22.2-83.5-28.7c-8-1.8-16.1-3.2-24.2-4.2C378.1,138,378.1,139.3,378.9,139.4L378.9,139.4z"/>
		<path class="st1" d="M244.6,182.9c10.8-9.8,22.7-18.2,35.6-25c12.7-6.8,26.1-12,40.1-15.4c8-1.9,16.2-3.2,24.4-3.9
			c0.8-0.1,0.8-1.3,0-1.2c-14.6,1.2-28.9,4.3-42.6,9.4c-13.8,5.1-26.8,11.8-38.9,20.1c-6.8,4.6-13.3,9.7-19.4,15.2
			C243.1,182.5,244,183.4,244.6,182.9L244.6,182.9z"/>
		<path class="st1" d="M436.3,252.3c-4-2.6-8.1-5.2-12.2-7.7c-0.7-0.4-1.3,0.7-0.6,1.1c4.1,2.5,8.2,5.1,12.2,7.7
			C436.4,253.8,437,252.8,436.3,252.3z"/>
		<path class="st1" d="M488.5,289.3c24.4,16.4,51.3,31.9,81.4,32.5c12.8,0.2,27.2-1.9,37.5-10.2c4.2-3.4,7.6-8.1,8.3-13.6
			c0.3-3.4,0.2-6.9-0.4-10.3c-0.6-3.6-1.6-7.1-3-10.5c-2.9-7.3-6.5-14.2-10.7-20.8c-2.1-3.3-4.4-6.6-6.8-9.7c-1.1-1.5-2.3-3-3.5-4.5
			c-0.6-0.8-1.2-1.5-1.9-2.3c-0.3-0.4-0.7-1.1-1.2-1.1c-0.3,0-0.6,0.4-0.5,0.7c0,0.3,0.3,0.5,0.5,0.5c-0.5,0,0.3,0.7,0.4,0.8l0.8,1
			l1.6,2c1.1,1.4,2.2,2.8,3.2,4.2c1.9,2.6,3.8,5.2,5.6,8c3.7,5.6,6.9,11.5,9.7,17.6c1.5,3.2,2.7,6.5,3.7,9.9
			c0.9,3.5,1.4,7.2,1.4,10.8c0.2,2.9-0.4,5.8-1.6,8.4c-1.2,2.5-2.9,4.7-4.9,6.5c-9.4,8.8-23.5,11.2-35.9,11.2
			c-14.3,0.1-28.4-3.4-41.5-8.8c-14.7-6.1-28.3-14.6-41.5-23.5C488.5,287.8,487.9,288.9,488.5,289.3L488.5,289.3z"/>
		<path class="st2" d="M544.1,199.3c-7.1-4.4-14.4-8.4-21.9-12c-11.7-5.7-23.8-10.8-35.8-15.7c0.6-3.7,0.3-7.5-1-11
			c-3.4-8.8-7.7-17.9-6.4-27.3c0.6-3.3,1.5-6.5,2.9-9.6c5.5-13.1,13.7-24.9,24.1-34.7c2.2-2.1,5.3-4.2,8-2.8c1.1,0.7,2,1.6,2.6,2.7
			c8.5,12.3,16.1,25.1,22.9,38.4c2.1,4,4,8.2,5.6,12.4C551.9,158.2,549.9,180.6,544.1,199.3z"/>
		<path class="st1" d="M544.5,198.8c-14.2-8.8-29.4-15.9-44.8-22.4c-4.3-1.8-8.7-3.6-13-5.4l0.4,0.8c1.4-6.5-1.5-12.4-3.7-18.2
			c-2.7-7.1-5.1-14.7-3.3-22.3c1-3.7,2.3-7.3,4-10.7c1.4-3.1,3-6.1,4.8-9c3.6-6,7.8-11.7,12.6-16.9c2.3-2.4,4.7-5.3,7.5-7
			c1.5-0.9,3.5-1.6,5.1-0.6s2.6,3.1,3.6,4.6c4.2,6.3,8.2,12.6,12,19.2c3.9,6.6,7.6,13.4,10.9,20.3c3.3,6.5,5.7,13.5,7,20.7
			c2.7,15.7,0.6,32.2-4.1,47.3c-0.2,0.8,1,1.1,1.2,0.3c4.3-13.9,6.4-28.9,4.7-43.4c-0.8-7.1-2.7-14.1-5.5-20.7
			c-3.3-7.4-7-14.6-11.1-21.6c-4-7-8.1-13.8-12.6-20.5c-1.1-1.7-2.2-3.3-3.4-5c-0.7-1.2-1.8-2.2-3-2.8c-3-1.2-6.1,1-8.2,2.9
			c-10.5,9.8-18.9,21.7-24.4,35c-1.6,3.4-2.6,7.1-3.1,10.9c-0.3,3.7,0.1,7.5,1.1,11.1c1.1,3.8,2.3,7.5,3.9,11.1
			c1.3,3.3,2.6,6.4,2.9,9.9c0.2,1.6,0.1,3.2-0.2,4.8c-0.1,0.3,0.1,0.7,0.4,0.8c15.4,6.3,30.9,12.8,45.5,20.7c4.1,2.2,8.1,4.5,12,7
			C544.5,200.3,545.1,199.2,544.5,198.8z"/>
		<path class="st2" d="M488.9,288.7c-13.2,14.5-31.4,27-50.6,30.4c-4.5,0.7-9,1.2-13.6,1.4c-14.9,0.9-29.9,0.7-44.8-0.4
			c-1.2,0-2.5-0.3-3.6-0.9c-2.5-1.6-2.3-5.4-1.6-8.3c3.2-13.9,9.2-26.9,17.7-38.3c1.9-2.7,4.2-5.2,6.8-7.3
			c7.4-5.9,17.5-6.7,26.8-8.2c3.1-0.5,7.7-2.1,10-4.3C453.7,264.4,470.8,276.7,488.9,288.7z"/>
		<path class="st1" d="M488.4,288.3c-9.4,10.3-20.7,19.1-33.4,24.9c-6.6,3-13.5,5-20.7,5.9c-8.1,0.9-16.3,1.4-24.5,1.4
			c-8.2,0.1-16.4-0.1-24.6-0.5c-1.8-0.1-3.6-0.2-5.4-0.4s-3.9-0.6-4.6-2.6c-1.1-2.9,0.1-6.4,0.9-9.2c1.9-7.1,4.5-13.9,7.9-20.4
			c3.2-6.6,7.3-12.7,12.2-18.3c5.5-6,12.9-8.5,20.7-9.9c6.5-1.2,14.4-1.2,19.6-5.9l-0.8,0.1c13.8,9,27.3,18.5,40.9,27.8
			c4,2.7,8,5.4,12,8.1c0.7,0.5,1.3-0.6,0.6-1.1c-13.8-9.2-27.3-18.8-41.1-28c-3.9-2.7-7.9-5.3-11.8-7.8c-0.2-0.1-0.6-0.1-0.8,0.1
			c-5,4.5-12.8,4.5-19.1,5.6c-6.8,1.2-13.7,3.2-18.9,7.9c-2.7,2.5-5.1,5.3-7.1,8.4c-6.5,9.2-11.5,19.4-14.7,30.2
			c-1.3,4.3-4.9,13.9,1.5,15.9c1.8,0.4,3.7,0.6,5.6,0.6c2.1,0.1,4.2,0.3,6.4,0.4c4.3,0.2,8.5,0.3,12.8,0.4
			c8.6,0.1,17.2-0.1,25.8-0.8c7.6-0.4,15-1.9,22.2-4.4c13.5-4.9,25.6-13.5,35.7-23.6c1.3-1.2,2.5-2.5,3.7-3.8
			C489.9,288.6,489,287.7,488.4,288.3z"/>
		<path class="st2" d="M378.9,138.7c-11.4-1.4-22.9-1.6-34.3-0.8c-3.5-3.6-6.6-7.7-8.4-12.4c-2.2-5.9-2.1-12.4-2-18.7
			c0-0.9,0.2-2,1-2.3c0.5-0.2,1-0.2,1.4,0c10.6,2.8,18.9,10.8,26.7,18.6C368.8,128.4,373.6,133.4,378.9,138.7z"/>
		<path class="st1" d="M378.9,138.1c-8.7-1-17.4-1.4-26.2-1.2c-2.2,0.1-4.4,0.2-6.6,0.3c-0.4,0.1-0.9,0.1-1.3,0
			c-0.3-0.2-0.6-0.7-0.9-0.9c-0.7-0.8-1.3-1.5-2-2.3c-2.6-3.1-4.6-6.8-5.7-10.7c-1-4-1.4-8-1.3-12.1c0-1,0-2,0-2.9
			c0-0.7-0.2-2.3,0.3-2.8c0.7-0.7,2.3,0,3.1,0.3s1.9,0.6,2.8,1c6.8,2.8,12.5,7.7,17.7,12.7c6.7,6.4,13.2,13.2,19.8,19.8
			c0.2,0.2,0.6,0.2,0.9,0s0.2-0.6,0-0.9c-6.5-6.4-12.8-13-19.3-19.3c-5.6-5.4-11.7-10.6-19-13.6c-1.5-0.6-3.6-1.6-5.3-1.6
			c-1.4,0-2,1.2-2.1,2.4c-0.2,2.2-0.2,4.3,0,6.5c0,2.1,0.2,4.3,0.5,6.4c0.5,4.2,1.9,8.2,4.1,11.7c1.1,1.8,2.3,3.4,3.7,5
			c0.7,0.8,1.3,1.5,2,2.2s1.5,0.4,2.5,0.4c10.9-0.7,21.8-0.4,32.6,0.9C379.7,139.4,379.7,138.2,378.9,138.1z"/>
		<path class="st2" d="M360.9,214.7c-6.7,3.6-14.3,7.7-20.9,11.3c-9.7,5.2-20,10.5-30.9,10.1c-0.5,0-1-0.1-1.4-0.4
			c-0.7-0.6-0.5-1.7-0.3-2.5c1.7-6.1,3.5-12.3,7.3-17.4c3-4,7.6-7.2,12-9.6l0,0c6.9,0.9,13.8,2.3,20.5,4.2
			C351.9,211.8,356.4,213.2,360.9,214.7z"/>
		<path class="st1" d="M360.5,214.2c-7.4,3.9-14.7,8-22.1,11.9c-7.2,3.8-14.7,7.6-22.8,8.9c-2.1,0.4-4.3,0.5-6.4,0.4
			c-0.8,0-1.4-0.3-1.4-1.2c0-0.5,0.1-0.9,0.3-1.4c0.3-1,0.6-1.9,0.8-2.9c1.1-3.9,2.6-7.7,4.5-11.2c3.3-4.9,7.8-9,13-11.8
			c0.8-0.4,1.9,0,2.7,0.1c1,0.2,2.1,0.3,3.1,0.5c9.7,1.8,19.2,4.4,28.4,7.7c0.8,0.3,1.1-0.9,0.3-1.2c-9-3.2-18.3-5.8-27.8-7.6
			c-1.1-0.2-2.2-0.4-3.3-0.6c-1-0.3-2.1-0.4-3.2-0.5c-0.7,0.2-1.3,0.5-1.8,0.9c-1,0.6-1.9,1.2-2.8,1.8c-3.4,2.2-6.3,5-8.7,8.3
			c-2.3,3.5-4,7.4-5.2,11.5c-0.7,1.9-1.3,4-1.7,6c-0.2,1.2,0.5,2.4,1.7,2.6c0.2,0,0.4,0.1,0.6,0c8.7,0.7,17.5-3,25.1-6.8
			c9.2-4.6,18.2-9.7,27.3-14.6C361.9,214.9,361.3,213.8,360.5,214.2z"/>
		<path class="st2" d="M210.4,323.3c-0.1,4.8-0.5,10-3.7,13.6c-4.9,5.5-13.9,4.6-19.9,9c-7.3,5.4-7.9,17-15.5,22.1
			c-4.3-9.7-5.2-20.6-4.3-31.1s3.6-20.9,6.3-31.1c2.1-8.2,0.3-16.7,1.6-25.1c1.7-11.7,11.6-23.3,20.1-31.9
			c-3.5,7.2-6.6,14.5-9.4,21.9c5.5-6.5,11-13,16.7-19.1c-2.9,7-1.6,13.6-0.1,21.1s4.2,14.6,5.9,22.1
			C210,304.1,210.8,313.7,210.4,323.3z"/>
		<path class="st1" d="M209.8,323.3c-0.1,4.7-0.4,10-3.9,13.5c-2.9,3-7.3,3.9-11.1,5s-7.5,2.4-10.3,5.3c-2.6,2.7-4.2,6.2-5.8,9.6
			c-1.9,4-3.9,8.1-7.6,10.7l0.9,0.2c-6.9-15.8-4.8-33.5-0.9-49.8c1-4.2,2.2-8.4,3.2-12.6c0.8-4.1,1.2-8.3,1-12.5
			c0-4.3-0.2-8.7,0.6-12.9c0.7-3.7,2.1-7.2,3.9-10.5c4.1-7.5,9.9-14.1,15.9-20.1l-1-0.8c-3.5,7.2-6.6,14.6-9.4,22.1
			c-0.1,0.3,0.2,0.7,0.5,0.7c0.2,0,0.3,0,0.5-0.1c5.4-6.5,10.9-12.9,16.7-19.1l-1-0.6c-3.4,8.5-1.1,18,1.1,26.5
			c1.3,4.8,2.8,9.4,4,14.2c1.2,4.7,2,9.6,2.5,14.5C209.8,312.1,210,317.7,209.8,323.3c0.1,0.3,0.4,0.6,0.7,0.5
			c0.3,0,0.5-0.3,0.5-0.5c0.4-9.6-0.4-19.2-2.3-28.5c-2-9.3-5.4-18.3-7-27.8c-0.9-5.2-0.8-10.3,1.1-15.3c0.2-0.6-0.6-1.1-1-0.6
			c-5.8,6.2-11.3,12.6-16.7,19.1l1,0.6c2.8-7.4,5.9-14.7,9.3-21.8c0.3-0.6-0.5-1.3-1-0.8c-5.5,5.4-10.4,11.4-14.6,17.9
			c-2,3.2-3.6,6.5-4.7,10.1c-1.1,4-1.6,8.1-1.4,12.2c0,4.5,0.2,9-0.4,13.4s-2.1,8.9-3.1,13.2c-2.2,8.5-3.6,17.2-4.1,25.9
			c-0.5,9.3,1.1,18.6,4.6,27.2c0.2,0.3,0.6,0.4,0.9,0.2c6.9-4.7,7.8-13.7,13-19.8c2.9-3.4,6.9-4.7,11.1-5.9c3.8-1.1,8-2.1,10.9-5
			c3.8-3.8,4.3-9.5,4.4-14.5c-0.1-0.3-0.4-0.5-0.8-0.4C210,322.9,209.9,323,209.8,323.3z"/>
		<path class="st1" d="M201.7,251.5L201.7,251.5v-0.2l0,0l0.1-0.1l0,0l0.1-0.1l0,0l-0.1,0.1l-0.1,0.1
			C201.7,251.4,201.7,251.4,201.7,251.5C201.7,251.4,201.7,251.5,201.7,251.5c0,0.3,0.1,0.5,0.4,0.6c0.1,0,0.2,0.1,0.2,0.1h0.2
			c0.1,0,0.2-0.1,0.3-0.2l0.1-0.1c0.1-0.1,0.1-0.2,0.1-0.3l0,0v0.2l0,0l-0.1,0.1l0,0l-0.1,0.1l0,0l0.1-0.1l0.1-0.1v-0.1v-0.1
			c0-0.1,0-0.2-0.1-0.2c-0.1-0.2-0.2-0.3-0.3-0.3s-0.2-0.1-0.2-0.1h-0.2c-0.1,0-0.2,0.1-0.3,0.2l-0.1,0.1
			C201.7,251.3,201.7,251.4,201.7,251.5z"/>
		<path class="st3" d="M610.3,272c0,0,14.4-5.8,23,7.7"/>
		<path class="st3" d="M585.9,320.5c0,0-4.5,14.8,9.7,22.2"/>
		<path class="st1" d="M588.3,239.4c-4.7,0-9.4,0.6-14,1.9c-6.8,2.1-12.7,6.5-19.1,9.5s-14.5,4.4-20.5,0.6c-6.3-4-8.2-12.3-8.3-19.8
			c-0.1-3.7,0-7.9-2.6-10.6c-1.2-1-2.5-2-3.8-2.8c-4.6-3.5-6.3-9.8-5.4-15.5s4.1-11,7.6-15.5c7.5,3.6,14.8,7.6,21.9,12
			c11.6,7.1,22.2,15.8,31.5,25.7C580,229.7,584.2,234.5,588.3,239.4z"/>
		<path class="st1" d="M588.3,238.8c-4.6,0-9.2,0.6-13.7,1.8c-4.2,1.4-8.2,3.3-12,5.6c-7.2,4.1-16,9-24.5,6.1
			c-7.9-2.6-10.5-11.4-11-18.9c-0.2-3.6,0.2-7.6-1.5-10.9c-0.9-1.6-2.2-2.9-3.8-3.8c-1.7-1.1-3.2-2.5-4.4-4.2
			c-5.6-9-0.3-19.4,5.3-26.9l-0.9,0.2c19.5,9.6,38.2,21.2,53,37.3c4.4,4.8,8.8,9.7,13,14.8c0.5,0.6,1.4-0.3,0.9-0.9
			c-7.1-8.6-14.6-17.2-23.1-24.6c-8.1-7-16.8-13.2-26.1-18.6c-5.6-3.3-11.3-6.3-17.1-9.1c-0.3-0.2-0.7-0.1-0.9,0.2
			c-5.2,6.8-9.7,15.3-7.2,24c1.1,3.7,3.5,6.9,6.8,8.9c1.9,1.1,3.3,3,3.9,5.1c0.4,2.1,0.6,4.3,0.5,6.4c0.2,7.2,1.8,15.5,7.9,20
			c7,5.1,16.5,2.6,23.6-0.9c4.8-2.4,9.3-5.5,14.3-7.6c5.3-2.2,11-2.7,16.7-2.9c0.3-0.1,0.6-0.4,0.5-0.8
			C588.7,239,588.6,238.9,588.3,238.8z"/>
		<path class="st1" d="M588.3,238.8L588.3,238.8c-0.3,0-0.6,0.3-0.6,0.6v0.2c0,0.1,0.1,0.2,0.2,0.3l0.1,0.1c0.1,0.1,0.2,0.1,0.3,0.1
			l0,0c0.1,0,0.2,0,0.2-0.1c0.2-0.1,0.3-0.2,0.3-0.3s0.1-0.2,0.1-0.2v-0.2c0-0.1-0.1-0.2-0.2-0.3l-0.1-0.1
			C588.6,238.8,588.5,238.8,588.3,238.8L588.3,238.8z"/>
		<path class="st4" d="M440.6,215.8c2.4,3.6,3.6,8.6,1.3,12.2c-2.7,4.3-8.9,4.9-12.7,8.3c-2.3,2-4.1,5.9-5.4,8.8
			c-11.8-7.3-24.1-13.9-36.7-19.8c0.4-7,0.8-13.9,2.5-20.6s4.9-13.3,10.1-18c4.2-3.5,9.1-6.1,14.4-7.5c4.6-1.5,9.5-2,14.4-1.5
			c4.9,0.6,9.3,3,12.4,6.8c2.9,3.9,3.7,9.5,1.3,13.7c-1.2,2.2-3.2,3.9-4.2,6.2s-1,5,0,7.4C438.7,213.2,439.6,214.5,440.6,215.8z"/>
		<path class="st1" d="M440,216.1c1.9,2.9,3.2,6.6,2,10c-1,3.1-4,4.7-6.8,6c-2.6,1.2-5.4,2.3-7.3,4.5c-2.1,2.3-3.5,5.3-4.8,8.2
			l0.9-0.2c-11.8-7.3-24.1-13.9-36.7-19.8l0.3,0.5c0.5-8.4,1-16.9,3.9-24.9c2.7-7.3,7.4-13.5,14.3-17.2c3.6-1.9,7.4-3.3,11.4-4.2
			c4.2-1.1,8.7-1.2,13-0.4c7.2,1.7,13.7,7.6,12.7,15.6c-0.3,2-1.1,3.9-2.4,5.5c-1.3,1.5-2.4,3.1-3.2,4.9c-0.7,1.8-0.8,3.8-0.4,5.7
			C437.4,212.5,438.8,214.3,440,216.1c0.5,0.6,1.6,0,1.1-0.7c-1.2-1.8-2.6-3.5-3.1-5.6c-0.5-2.3,0.1-4.7,1.4-6.6
			c1.1-1.6,2.4-3,3.4-4.7c0.8-1.5,1.3-3.1,1.4-4.8c0.6-7.5-5-13.5-11.8-15.8c-7.9-2.6-16.9-0.5-24.3,2.8c-7.2,3.1-13,8.8-16.3,16
			c-4.1,8.9-4.8,18.9-5.3,28.5c0,0.2,0.1,0.4,0.3,0.5c12.6,5.9,24.9,12.5,36.7,19.8c0.3,0.2,0.7,0.1,0.9-0.2
			c1.4-3.1,2.9-6.7,5.5-8.9c2.5-2.1,5.7-3,8.5-4.6s4.8-3.8,5.3-6.9c0.3-3.4-0.5-6.8-2.5-9.6C440.7,214.8,439.6,215.4,440,216.1z"/>
		<path class="st1" d="M374.2,162.2c0,2.7-1.8,5.1-3.7,6.9c-3,3.1-6.8,5.2-11.1,6c-3.5,0.5-7-0.1-10.4-0.7
			c-13.2-2.4-27.4-4-39.6,1.7c-2.4,1.1-4.8,2.6-7.3,3.5c-2.5,1.1-5.3,1.2-7.9,0.4c-3.5-1.5-5.6-5.2-5.1-9c0.6-3.8,3.3-6.8,7-7.9
			c1.8-0.5,3.6-0.6,5.4-1.2s2.1-0.7,2.4-2.5c0.5-3.4,3.3-6.1,6.5-7.3s6.7-1.3,10.2-1.3c5.8-0.1,11.8-0.1,17.2,2
			c1.9,0.7,3.6,1.7,5.6,2.4c5.3,1.7,11.1,0.3,16.7-0.4c3-0.4,6.2-0.4,9,0.7S374.2,159.2,374.2,162.2z"/>
		<path class="st4" d="M246.8,193.4c-1.1,1.6-3.2,2-4.8,3.1c-2.2,1.6-3,4.6-3.4,7.4s-0.4,5.7-1.8,8.1c-1.2,2-3,3.5-5.1,4.3
			s-4.4,1.3-6.6,1.3c-3.7,0.3-7.3-0.3-10.8-1.5c8.7-12.3,18.7-23.5,29.9-33.6c1,1.7,1.8,3.4,2.5,5.2
			C247.4,189.5,247.9,191.8,246.8,193.4z"/>
		<path class="st1" d="M246.3,193c-1.1,1.5-3,1.9-4.5,2.9c-1.3,0.9-2.2,2.1-2.8,3.6c-1.4,3.5-0.9,7.4-2.1,10.9
			c-1.5,4.2-5.9,6-10,6.5c-4.2,0.6-8.5,0.1-12.4-1.4l0.4,0.9c8.7-12.2,18.6-23.4,29.8-33.5l-1-0.1c0.9,1.5,1.7,3.1,2.3,4.7
			c0.7,1.8,1.3,3.9,0.2,5.6c-0.4,0.7,0.7,1.3,1.1,0.6c1.1-1.8,0.8-4,0.1-5.9c-0.7-2-1.6-3.9-2.7-5.7c-0.2-0.3-0.6-0.4-0.9-0.2
			l-0.1,0.1c-11.2,10.1-21.2,21.4-29.9,33.7c-0.2,0.3-0.1,0.7,0.2,0.9c0,0,0.1,0,0.1,0.1c4.1,1.5,8.5,2,12.8,1.4
			c3.7-0.4,7.6-1.7,9.9-4.9c2.5-3.3,1.9-7.5,2.8-11.4c0.3-2,1.4-3.8,3-5c1.6-1,3.4-1.4,4.6-3C247.7,193.2,246.8,192.3,246.3,193z"/>
		<path class="st1" d="M412.6,575.2c8.6,4,17.4,7.5,26.4,10.6c0.8,0.3,1.1-0.9,0.3-1.2c-8.9-3.1-17.5-6.6-26-10.5
			C412.5,573.8,411.9,574.9,412.6,575.2z"/>
		<path class="st1" d="M597.2,548c-6.4,6.9-13.2,13.5-20.5,19.6s-15.3,11.5-23.6,16.1c-7.6,4.2-15.3,8.1-23.8,10.2
			c-7.9,2-16,2.8-24.1,2.3c-10.6-0.8-21.2-1.5-31.7-2.9c-0.8-0.1-1.1,1.1-0.3,1.2c9.3,1.3,18.7,1.8,28.1,2.6
			c4.2,0.4,8.4,0.6,12.7,0.4c4.2-0.2,8.3-0.8,12.4-1.6c4.1-0.8,8.1-2,12-3.5c4-1.7,8-3.5,11.8-5.7c8.6-4.4,16.7-9.7,24.3-15.6
			c8.4-6.8,16.3-14.2,23.7-22.2C598.6,548.3,597.8,547.5,597.2,548L597.2,548z"/>
		<path class="st1" d="M604.5,551c-5.5,11.4-12,22.3-19.3,32.6c-0.5,0.7,0.6,1.3,1.1,0.6c7.3-10.3,13.8-21.2,19.3-32.6
			C605.9,550.9,604.8,550.3,604.5,551z"/>
		<path class="st1" d="M421.1,660.6c-29.2-3.4-57.3-13-84.6-23.7c-7.6-3-15.2-6.1-22.8-9.1c-0.8-0.3-1.1,0.9-0.3,1.2
			c27.3,11,54.7,22.2,83.5,28.7c8,1.8,16.1,3.2,24.2,4.2C421.9,662,421.9,660.7,421.1,660.6L421.1,660.6z"/>
		<path class="st1" d="M555.4,617.1c-10.8,9.8-22.7,18.2-35.5,25c-12.7,6.8-26.1,12-40.1,15.5c-8,1.9-16.2,3.2-24.4,3.9
			c-0.8,0.1-0.8,1.3,0,1.2c14.6-1.2,28.9-4.3,42.6-9.4c13.7-5.1,26.8-11.8,38.9-20.1c6.8-4.6,13.3-9.7,19.4-15.2
			C556.9,617.5,556,616.6,555.4,617.1L555.4,617.1z"/>
		<path class="st1" d="M363.7,547.7c4,2.6,8.1,5.2,12.2,7.7c0.7,0.4,1.3-0.7,0.6-1.1c-4.1-2.5-8.2-5.1-12.2-7.7
			C363.6,546.2,363,547.2,363.7,547.7z"/>
		<path class="st1" d="M311.5,510.7c-24.4-16.4-51.3-31.9-81.4-32.5c-12.8-0.2-27.2,1.9-37.5,10.2c-4.2,3.4-7.6,8.1-8.4,13.6
			c-0.3,3.4-0.2,6.9,0.4,10.3c0.6,3.6,1.6,7.1,3,10.5c2.9,7.3,6.5,14.2,10.7,20.8c2.1,3.3,4.4,6.5,6.8,9.7c1.1,1.5,2.3,3,3.4,4.5
			c0.6,0.8,1.2,1.5,1.9,2.3c0.3,0.4,0.7,1.2,1.2,1.2c0.3,0,0.6-0.4,0.5-0.7c0-0.3-0.3-0.5-0.5-0.5c0.5,0-0.3-0.7-0.4-0.8
			c-0.3-0.3-0.5-0.7-0.8-1c-0.5-0.7-1.1-1.3-1.6-2c-1.1-1.4-2.2-2.8-3.2-4.2c-1.9-2.6-3.8-5.2-5.6-8c-3.7-5.6-7-11.5-9.7-17.7
			c-1.5-3.2-2.7-6.5-3.7-9.9c-0.9-3.5-1.4-7.2-1.4-10.8c-0.2-2.9,0.4-5.8,1.6-8.4c1.2-2.5,2.9-4.7,4.9-6.5
			c9.4-8.8,23.6-11.2,35.9-11.2c14.3-0.1,28.4,3.4,41.5,8.9c14.7,6.1,28.3,14.6,41.5,23.5C311.5,512.2,312.1,511.1,311.5,510.7
			L311.5,510.7z"/>
		<path class="st2" d="M255.9,600.7c7.1,4.4,14.4,8.4,21.9,12c11.7,5.7,23.8,10.8,35.8,15.7c-0.6,3.7-0.3,7.5,1,11
			c3.4,8.8,7.7,17.9,6.4,27.3c-0.6,3.3-1.5,6.5-2.9,9.6c-5.5,13.1-13.7,24.9-24.1,34.6c-2.2,2.1-5.3,4.2-8,2.8
			c-1.1-0.7-1.9-1.6-2.6-2.7c-8.5-12.3-16.1-25.1-22.9-38.4c-2.1-4-4-8.2-5.6-12.4C248.1,641.8,250.1,619.4,255.9,600.7z"/>
		<path class="st1" d="M255.6,601.2c14.2,8.8,29.4,15.9,44.8,22.4c4.3,1.8,8.7,3.6,13,5.4l-0.4-0.8c-1.4,6.5,1.5,12.3,3.7,18.2
			c2.7,7.1,5.1,14.7,3.3,22.3c-1,3.7-2.3,7.3-4,10.7c-4.4,9.5-10.3,18.2-17.4,25.9c-2.3,2.5-4.7,5.3-7.5,7c-1.5,0.9-3.5,1.6-5.1,0.6
			s-2.6-3.1-3.6-4.6c-4.2-6.2-8.2-12.6-12-19.2c-3.9-6.6-7.6-13.4-10.9-20.3c-3.3-6.5-5.7-13.5-7-20.7c-2.7-15.7-0.6-32.2,4.1-47.3
			c0.2-0.8-1-1.1-1.2-0.3c-4.3,13.9-6.4,28.9-4.7,43.4c0.8,7.1,2.7,14.1,5.5,20.7c3.3,7.4,7,14.6,11.1,21.6
			c3.9,7,8.1,13.8,12.6,20.5c1.1,1.7,2.2,3.3,3.4,5c0.7,1.2,1.8,2.2,3,2.8c3,1.2,6.1-1,8.2-2.9c10.5-9.8,18.9-21.7,24.4-35
			c1.6-3.4,2.6-7.1,3.1-10.9c0.3-3.7-0.1-7.5-1.1-11.1c-1-3.8-2.3-7.5-3.9-11.1c-1.3-3.3-2.6-6.4-2.9-9.9c-0.2-1.6-0.1-3.2,0.2-4.8
			c0.1-0.3-0.1-0.7-0.4-0.8c-15.4-6.3-30.9-12.8-45.5-20.7c-4.1-2.2-8.1-4.5-12-7C255.5,599.7,254.9,600.8,255.6,601.2z"/>
		<path class="st2" d="M311.1,511.3c13.2-14.5,31.4-27,50.6-30.4c4.5-0.7,9-1.2,13.6-1.4c14.9-0.9,29.9-0.7,44.8,0.4
			c1.2,0,2.5,0.3,3.6,0.9c2.5,1.6,2.3,5.4,1.6,8.3c-3.2,13.9-9.2,26.9-17.7,38.3c-1.9,2.7-4.2,5.2-6.8,7.3
			c-7.4,5.8-17.5,6.7-26.8,8.2c-3.1,0.5-7.7,2.1-10,4.3C346.3,535.7,329.2,523.3,311.1,511.3z"/>
		<path class="st1" d="M311.6,511.7c9.4-10.3,20.7-19.1,33.4-24.9c6.6-3,13.5-5,20.7-5.9c8.1-0.9,16.3-1.4,24.5-1.4
			c8.2-0.1,16.4,0.1,24.6,0.5c1.8,0.1,3.6,0.2,5.4,0.4s3.9,0.5,4.6,2.5c1.1,2.9-0.1,6.4-0.9,9.2c-1.9,7.1-4.5,13.9-7.9,20.5
			c-3.2,6.6-7.3,12.7-12.2,18.3c-5.5,6-12.9,8.5-20.7,9.9c-6.5,1.2-14.4,1.2-19.6,5.9l0.8-0.1c-13.8-9-27.3-18.5-40.9-27.8
			c-4-2.7-8-5.4-12-8.1c-0.7-0.5-1.3,0.6-0.6,1.1c13.8,9.2,27.3,18.8,41.1,28.1c3.9,2.7,7.9,5.3,11.8,7.8c0.2,0.1,0.6,0.1,0.8-0.1
			c5-4.5,12.8-4.5,19.1-5.6c6.8-1.2,13.7-3.2,18.9-7.9c2.7-2.5,5.1-5.4,7.1-8.4c6.5-9.2,11.5-19.4,14.7-30.2
			c1.3-4.3,4.9-13.9-1.5-15.9c-1.8-0.4-3.7-0.6-5.6-0.6c-2.1-0.1-4.2-0.3-6.4-0.4c-4.3-0.2-8.5-0.3-12.8-0.3
			c-8.6-0.1-17.2,0.1-25.8,0.8c-7.6,0.4-15,1.9-22.2,4.4c-13.5,4.9-25.6,13.5-35.7,23.6c-1.2,1.3-2.5,2.5-3.7,3.8
			C310.1,511.4,311,512.3,311.6,511.7z"/>
		<path class="st2" d="M421.1,661.3c11.4,1.4,22.9,1.6,34.3,0.8c3.5,3.6,6.6,7.7,8.4,12.4c2.2,5.9,2.1,12.4,2,18.7
			c0,0.9-0.2,2-1,2.3c-0.5,0.2-1,0.2-1.4,0c-10.6-2.8-18.9-10.8-26.7-18.6C431.2,671.6,426.4,666.6,421.1,661.3z"/>
		<path class="st1" d="M421.1,661.9c8.7,1,17.4,1.5,26.2,1.2c2.2-0.1,4.4-0.2,6.6-0.3c0.4-0.1,0.9-0.1,1.3,0
			c0.3,0.2,0.6,0.7,0.9,0.9c0.7,0.8,1.3,1.5,2,2.3c2.6,3.1,4.6,6.8,5.7,10.7c1,4,1.4,8,1.3,12.1c0,1,0,2,0,3c0,0.7,0.2,2.3-0.3,2.8
			c-0.7,0.7-2.3,0-3.1-0.3s-1.9-0.6-2.8-1c-6.8-2.8-12.5-7.7-17.7-12.7c-6.7-6.5-13.2-13.2-19.8-19.8c-0.2-0.2-0.6-0.2-0.9,0
			s-0.2,0.6,0,0.9l0,0c6.5,6.4,12.8,13,19.3,19.3c5.6,5.4,11.7,10.6,19,13.6c1.5,0.6,3.6,1.6,5.3,1.6c1.4,0,2-1.2,2.1-2.4
			c0.2-2.2,0.2-4.3,0-6.5c0-2.1-0.2-4.3-0.5-6.4c-0.5-4.2-1.9-8.2-4.1-11.7c-1.1-1.8-2.3-3.4-3.7-5c-0.7-0.8-1.3-1.5-2-2.2
			s-1.5-0.4-2.5-0.4c-10.9,0.7-21.8,0.4-32.6-0.9C420.3,660.5,420.3,661.8,421.1,661.9z"/>
		<path class="st2" d="M439.1,585.3c6.7-3.6,14.3-7.7,20.9-11.3c9.7-5.2,20-10.5,30.9-10.1c0.5,0,1,0.1,1.4,0.4
			c0.7,0.6,0.5,1.7,0.3,2.5c-1.7,6.1-3.5,12.3-7.3,17.4c-3,4-7.6,7.2-12,9.7l0,0c-6.9-0.9-13.8-2.3-20.5-4.2
			C448.1,588.2,443.6,586.8,439.1,585.3z"/>
		<path class="st1" d="M439.5,585.8c7.4-4,14.7-8,22.1-11.9c7.2-3.8,14.7-7.6,22.8-9c2.1-0.4,4.3-0.5,6.4-0.4c0.8,0,1.4,0.3,1.4,1.2
			c0,0.5-0.1,0.9-0.3,1.4c-0.3,1-0.6,1.9-0.8,2.9c-1.1,3.9-2.6,7.7-4.5,11.2c-3.3,4.9-7.8,9-13,11.8c-0.8,0.4-1.9,0-2.7-0.2
			c-1-0.2-2.1-0.3-3.1-0.5c-9.7-1.8-19.2-4.4-28.4-7.7c-0.8-0.3-1.1,0.9-0.3,1.2c9,3.2,18.3,5.8,27.8,7.6c1.1,0.2,2.2,0.4,3.3,0.5
			c1,0.3,2.1,0.4,3.2,0.5c0.7-0.2,1.3-0.5,1.8-0.9c1-0.6,1.9-1.2,2.8-1.8c3.4-2.2,6.3-5,8.7-8.3c2.3-3.5,4-7.4,5.2-11.5
			c0.7-1.9,1.3-4,1.7-6c0.2-1.2-0.5-2.4-1.7-2.6c-0.2,0-0.4-0.1-0.6,0c-8.7-0.7-17.5,3-25.1,6.8c-9.2,4.6-18.2,9.7-27.3,14.6
			C438.1,585.1,438.7,586.2,439.5,585.8z"/>
		<path class="st2" d="M589.6,476.7c0.1-4.8,0.5-10,3.7-13.6c4.9-5.5,14-4.6,19.9-9c7.3-5.4,7.9-17,15.5-22.1
			c4.3,9.7,5.2,20.6,4.3,31.1s-3.6,20.9-6.3,31.1c-2.1,8.2-0.3,16.7-1.6,25.1c-1.7,11.7-11.6,23.3-20.1,31.8
			c3.5-7.1,6.6-14.4,9.4-21.9c-5.5,6.5-11,13-16.7,19.1c2.9-7,1.6-13.6,0.1-21.1s-4.2-14.6-5.9-22.1
			C590,495.9,589.2,486.3,589.6,476.7z"/>
		<path class="st1" d="M590.2,476.7c0.1-4.7,0.4-10,3.9-13.5c2.9-3,7.3-3.9,11.2-5s7.5-2.4,10.3-5.3c2.6-2.7,4.2-6.2,5.8-9.6
			c1.9-4,3.9-8.1,7.6-10.7l-0.9-0.2c6.9,15.8,4.8,33.5,1,49.8c-1,4.2-2.2,8.4-3.2,12.6c-0.8,4.1-1.2,8.3-1,12.5
			c0,4.3,0.2,8.7-0.6,12.9c-0.7,3.7-2,7.2-3.9,10.5c-4.1,7.6-9.9,14.1-15.9,20.2l1,0.8c3.5-7.2,6.6-14.6,9.4-22
			c0.1-0.3-0.2-0.7-0.5-0.7c-0.2,0-0.3,0-0.5,0.1c-5.4,6.5-10.9,12.9-16.7,19.1l1,0.6c3.4-8.5,1.1-18-1.1-26.5
			c-1.3-4.8-2.8-9.4-4-14.2c-1.2-4.7-2-9.6-2.5-14.5C590.2,488,590.1,482.4,590.2,476.7c0-0.3-0.3-0.5-0.7-0.5
			c-0.3,0-0.5,0.3-0.5,0.5c-0.4,9.6,0.4,19.2,2.3,28.5c2,9.3,5.4,18.3,7,27.7c0.8,5.2,0.8,10.3-1.1,15.3c-0.2,0.6,0.6,1,1,0.6
			c5.8-6.2,11.3-12.6,16.7-19.1l-1-0.6c-2.8,7.4-5.9,14.7-9.3,21.8c-0.3,0.6,0.5,1.3,1,0.8c5.5-5.4,10.4-11.4,14.6-17.9
			c2-3.2,3.6-6.5,4.7-10.1c1.1-4,1.6-8.1,1.5-12.2c0-4.5-0.2-9,0.3-13.4s2.1-8.9,3.2-13.2c2.2-8.5,3.6-17.2,4-26
			c0.3-9.3-0.9-18.6-4.6-27.2c-0.2-0.3-0.6-0.4-0.9-0.2c-6.9,4.7-7.8,13.7-13,19.8c-2.9,3.4-6.9,4.7-11.1,5.9c-3.8,1.1-8,2.1-10.9,5
			c-3.8,3.8-4.3,9.5-4.4,14.5c0.1,0.3,0.4,0.5,0.8,0.4C590,477.1,590.1,477,590.2,476.7z"/>
		<path class="st1" d="M598.3,548.5L598.3,548.5v0.2l0,0l-0.1,0.2l0,0l-0.1,0.1l0,0l0.1-0.1l0.1-0.2
			C598.3,548.6,598.3,548.6,598.3,548.5L598.3,548.5c0-0.3-0.1-0.5-0.4-0.6c-0.1,0-0.2-0.1-0.2-0.1h-0.2c-0.1,0-0.2,0.1-0.3,0.2
			l-0.1,0.1c-0.1,0.1-0.1,0.2-0.1,0.3l0,0v-0.2l0,0l0.1-0.2l0,0l0.1-0.1l0,0l-0.1,0.1l-0.1,0.2v0.1v0.1c0,0.1,0,0.2,0.1,0.2
			c0,0.1,0.1,0.1,0.1,0.2c0.1,0.1,0.1,0.1,0.2,0.1c0.1,0,0.2,0,0.2,0h0.2c0.1,0,0.2-0.1,0.3-0.2l0.1-0.1
			C598.3,548.7,598.3,548.5,598.3,548.5L598.3,548.5z"/>
		<path class="st3" d="M189.7,528c0,0-14.4,5.8-23-7.7"/>
		<path class="st3" d="M214.1,479.5c0,0,4.5-14.8-9.7-22.2"/>
		<path class="st1" d="M211.7,560.6c4.7,0,9.4-0.6,14-1.9c6.8-2.1,12.7-6.5,19.1-9.5s14.5-4.4,20.5-0.6c6.3,4,8.2,12.3,8.3,19.8
			c0.1,3.7,0,7.9,2.6,10.6c1.2,1,2.5,2,3.8,2.8c4.6,3.5,6.3,9.8,5.4,15.5s-4.1,11-7.6,15.5c-7.5-3.6-14.8-7.7-21.9-12
			c-11.6-7.1-22.2-15.7-31.5-25.7C220,570.3,215.8,565.5,211.7,560.6z"/>
		<path class="st1" d="M211.7,561.2c4.6,0,9.2-0.6,13.7-1.8c4.2-1.4,8.2-3.3,12-5.6c7.2-4.1,16-9,24.5-6.2
			c7.9,2.6,10.5,11.4,11,18.9c0.2,3.6-0.2,7.6,1.5,10.9c0.9,1.6,2.2,2.9,3.8,3.8c1.8,1.1,3.2,2.5,4.4,4.2c5.6,9,0.3,19.5-5.4,26.9
			l0.9-0.2c-19.5-9.6-38.2-21.2-53-37.3c-4.4-4.8-8.8-9.7-13-14.8c-0.5-0.6-1.4,0.3-0.9,0.9c7.1,8.6,14.6,17.2,23.1,24.6
			c8.1,7,16.8,13.2,26.1,18.6c5.6,3.3,11.3,6.3,17.1,9.1c0.3,0.2,0.7,0.1,0.9-0.2c5.1-6.8,9.7-15.3,7.2-24c-1.1-3.7-3.5-6.9-6.8-8.9
			c-1.9-1.1-3.3-3-3.9-5.1c-0.4-2.1-0.6-4.3-0.5-6.4c-0.1-7.2-1.8-15.5-7.9-20c-7-5.1-16.5-2.6-23.6,1c-4.8,2.4-9.3,5.5-14.4,7.5
			c-5.3,2.2-11,2.7-16.7,2.9C210.9,560,210.9,561.2,211.7,561.2z"/>
		<path class="st1" d="M211.6,561.2L211.6,561.2c0.1,0,0.2,0,0.2,0c0.1,0,0.1-0.1,0.2-0.1c0.1-0.1,0.1-0.1,0.1-0.2
			c0-0.1,0.1-0.2,0.1-0.2v-0.2c0-0.1-0.1-0.2-0.2-0.3l0-0.2c-0.1-0.1-0.2-0.1-0.3-0.1l0,0c-0.1,0-0.2,0-0.2,0.1
			c-0.2,0.1-0.3,0.2-0.3,0.3s-0.1,0.2-0.1,0.2v0.2c0,0.1,0.1,0.2,0.2,0.3l0.1,0.1C211.4,561.1,211.5,561.2,211.6,561.2L211.6,561.2z
			"/>
		<path class="st4" d="M359.4,584.2c-2.4-3.6-3.6-8.5-1.3-12.2c2.7-4.3,8.9-4.9,12.7-8.3c2.3-2,4.1-6,5.4-8.8
			c11.8,7.3,24.1,13.9,36.7,19.8c-0.4,7-0.8,13.9-2.5,20.6s-4.9,13.3-10.1,18c-4.2,3.5-9.1,6.1-14.4,7.5c-4.6,1.5-9.5,2-14.4,1.5
			c-4.9-0.6-9.3-3-12.4-6.8c-2.9-3.9-3.7-9.5-1.3-13.7c1.2-2.2,3.2-3.9,4.2-6.2s1-5,0-7.4C361.3,586.8,360.4,585.5,359.4,584.2z"/>
		<path class="st1" d="M360,583.9c-1.9-2.9-3.2-6.6-2-10c1-3.1,4-4.7,6.8-6c2.6-1.2,5.4-2.3,7.3-4.5c2.1-2.3,3.5-5.3,4.8-8.2
			l-0.9,0.2c11.8,7.3,24.1,13.9,36.7,19.8l-0.3-0.5c-0.5,8.4-1,16.9-3.9,24.9c-2.7,7.3-7.4,13.5-14.3,17.2
			c-3.6,1.9-7.4,3.3-11.4,4.2c-4.2,1.1-8.7,1.2-13,0.4c-7.2-1.7-13.7-7.6-12.7-15.5c0.3-2,1.1-3.9,2.4-5.5c1.3-1.5,2.4-3.1,3.2-4.9
			c0.7-1.8,0.8-3.8,0.4-5.7C362.6,587.5,361.2,585.7,360,583.9c-0.5-0.6-1.6,0-1.1,0.7c1.2,1.8,2.6,3.5,3.1,5.7
			c0.5,2.3-0.1,4.7-1.4,6.6c-1.1,1.6-2.4,3-3.4,4.7c-0.8,1.5-1.3,3.1-1.4,4.8c-0.6,7.5,5,13.5,11.8,15.8c7.9,2.6,16.9,0.5,24.3-2.8
			c7.2-3.1,13-8.8,16.3-16c4.1-8.9,4.8-18.9,5.3-28.5c0-0.2-0.1-0.4-0.3-0.5c-12.6-5.9-24.9-12.5-36.7-19.8
			c-0.3-0.2-0.7-0.1-0.9,0.2c-1.4,3.1-2.9,6.7-5.5,8.9c-2.5,2.1-5.7,3-8.5,4.6s-4.8,3.8-5.3,7c-0.4,3.4,0.5,6.8,2.5,9.6
			C359.3,585.2,360.4,584.5,360,583.9z"/>
		<path class="st1" d="M425.8,637.8c0-2.7,1.8-5.1,3.7-6.9c3-3.1,6.8-5.2,11.1-6c3.5-0.5,7,0.1,10.4,0.7c13.2,2.3,27.4,4,39.6-1.7
			c2.4-1.2,4.8-2.6,7.3-3.5c2.5-1.1,5.3-1.2,7.9-0.3c3.5,1.5,5.6,5.2,5.1,9c-0.6,3.8-3.3,6.8-7,7.9c-1.8,0.5-3.6,0.5-5.4,1.2
			s-2.1,0.7-2.4,2.5c-0.5,3.4-3.3,6.1-6.5,7.3s-6.7,1.3-10.2,1.3c-5.8,0.1-11.8,0.1-17.2-2c-1.9-0.7-3.6-1.7-5.6-2.4
			c-5.3-1.7-11.1-0.3-16.7,0.3c-3,0.3-6.2,0.4-9-0.7S425.8,640.8,425.8,637.8z"/>
		<path class="st4" d="M553.2,606.6c1.1-1.6,3.2-2,4.8-3.1c2.2-1.6,3-4.6,3.4-7.4s0.4-5.7,1.8-8.1c1.2-2,3-3.5,5.1-4.3
			s4.4-1.3,6.7-1.3c3.7-0.2,7.3,0.3,10.8,1.6c-8.7,12.3-18.7,23.5-29.8,33.6c-1-1.7-1.8-3.4-2.5-5.2
			C552.6,610.5,552.1,608.2,553.2,606.6z"/>
		<path class="st1" d="M553.7,607c1.2-1.5,3-1.9,4.5-2.9c1.3-0.9,2.2-2.1,2.8-3.6c1.4-3.5,0.9-7.3,2.1-10.9c1.5-4.2,5.9-6,10-6.5
			c4.2-0.6,8.5-0.1,12.4,1.4l-0.4-0.9c-8.7,12.2-18.6,23.4-29.8,33.5l1,0.1c-0.9-1.5-1.7-3.1-2.3-4.7
			C553.3,610.7,552.7,608.7,553.7,607c0.5-0.8-0.6-1.4-1-0.7c-1.1,1.8-0.8,4-0.1,5.9c0.7,2,1.6,3.9,2.7,5.7c0.2,0.3,0.6,0.4,0.9,0.2
			c0.1,0,0.1-0.1,0.1-0.1c11.2-10.1,21.3-21.4,30-33.7c0.2-0.3,0.1-0.7-0.2-0.8c0,0-0.1,0-0.1-0.1c-4.1-1.5-8.5-2-12.8-1.4
			c-3.7,0.4-7.6,1.7-9.9,4.8c-2.5,3.3-1.9,7.5-2.8,11.4c-0.3,2-1.4,3.8-3,5c-1.5,1-3.4,1.5-4.6,3C552.3,606.8,553.2,607.7,553.7,607
			z"/>
		
			<ellipse transform="matrix(0.1092 -0.994 0.994 0.1092 195.7621 847.0661)" class="st1" cx="570.5" cy="314.3" rx="2.7" ry="8.1"/>
		<ellipse transform="matrix(0.8146 -0.58 0.58 0.8146 -45.5153 398.1967)" class="st1" cx="600.1" cy="270.3" rx="2.7" ry="8.1"/>
		
			<ellipse transform="matrix(0.1092 -0.994 0.994 0.1092 -278.364 662.6192)" class="st1" cx="230.5" cy="486.6" rx="2.6" ry="8.1"/>
		<ellipse transform="matrix(0.8146 -0.58 0.58 0.8146 -270.5439 214.9156)" class="st1" cx="200.9" cy="530.7" rx="2.6" ry="8.1"/>
	</g>
</g>
</svg>
