<?xml version="1.0" encoding="utf-8"?>
<!-- Generator: Adobe Illustrator 25.3.0, SVG Export Plug-In . SVG Version: 6.00 Build 0)  -->
<svg version="1.1" id="Layer_1" xmlns="http://www.w3.org/2000/svg" xmlns:xlink="http://www.w3.org/1999/xlink" x="0px" y="0px"
	 viewBox="0 0 1504.2 442.5" style="enable-background:new 0 0 1504.2 442.5;" xml:space="preserve">
<style type="text/css">
	.st0{opacity:0.5;}
	.st1{fill:#397C93;}
</style>
<g class="st0">
	<path class="st1" d="M1011.9,58c-2.4-7.3-7.3-13.4-13.9-17.2c-7-3.9-15.1-5-22.9-3c-8.3,2-15.6,6.7-20.9,13.4
		c-4.7,6.1-6,13.9-4.7,21.4c1.3,7.4,5,14.3,10.5,19.5c6,5.6,13.6,9,21.5,11c4,0.9,8,1.6,12.1,1.9c4.5,0.4,9.2,0.5,13.7-0.6
		c7.2-1.9,12.5-7.5,15.4-14.2c3-7,3.3-14.8,0.9-22c-3.2-9.1-9.7-16.7-18.2-21.2c-1.7-0.9-3.1,1.6-1.5,2.5
		c12.2,6.5,20.9,20.5,17.8,34.5c-1.4,6.3-5,12.5-10.7,15.8c-6.8,3.9-15.7,2.9-23.1,1.7c-14.3-2.3-28.6-9.2-34-23.6
		c-2.3-6.3-2.9-13.4-0.4-19.7c2.8-7.1,9.7-12.5,16.5-15.5c6.8-3.2,14.6-3.6,21.8-1.4c6.5,2.2,11.9,6.8,15.3,12.7
		c0.8,1.5,1.5,3.1,2,4.8C1009.6,60.5,1012.4,59.8,1011.9,58L1011.9,58z"/>
</g>
<g class="st0">
	<path class="st1" d="M530.2,316.3c-9.4-10.1-22.6-15.9-36.4-16.1c-13.8-0.3-26.9,5.1-37.5,13.8c-11.2,9.4-19.5,21.8-23.8,35.7
		c-2.2,7-2.8,14.4-1.7,21.6c1.1,6.6,3.4,12.9,6.9,18.5c6.9,11.3,17.5,20,30,24.6c15.4,5.5,32.3,4.5,47.9,0.5
		c7.9-2.1,15.7-4.8,23.2-8.2c7-3.1,14-6.8,19.6-12c9.7-9.1,14-22.5,13.7-35.5c-0.3-13.5-5.5-26.4-14.7-36.2
		c-9.5-9.8-22-16.3-35.6-18.3c-3.3-0.5-6.6-0.8-9.9-0.8c-0.8,0-1.5,0.6-1.5,1.5s0.6,1.5,1.5,1.5c13,0.1,25.6,4.2,36.1,11.8
		c10.4,7.6,17.6,18.8,20.1,31.5c2.4,12,0.7,25.3-6,35.7c-3.8,5.8-9.3,10.3-15.2,13.8c-6.7,3.7-13.7,6.8-21,9.2
		c-14.7,5.2-30.7,8.3-46.3,5.8c-6.8-1-13.3-3.3-19.2-6.6c-5.5-3.1-10.4-7.1-14.5-11.8c-8.4-9.5-13.6-21.9-12.7-34.7
		c0.5-7.6,3.1-15,6.5-21.8c3-6.1,6.9-11.7,11.4-16.7c8.7-9.6,20.1-16.9,32.9-19.2c12.9-2.3,26.2,0.7,36.9,8.1c2.6,1.9,5,4,7.2,6.4
		C529.4,319.7,531.4,317.7,530.2,316.3L530.2,316.3z"/>
</g>
<polygon class="st1" points="992.5,49.7 1002.3,61 1000.7,63.2 1011,72.3 1014.5,80.2 1005,92.1 989.2,96.5 977.5,93.2 964.1,83.4 
	964.7,76.1 962.2,76.5 964.7,71.2 963,64.7 964.7,54.7 966.7,51.2 975,54.8 984.5,51.1 986.3,47.5 990.7,50.7 992.9,48.3 "/>
<polygon class="st1" points="1077.4,68.8 1083.2,52 1094.8,45.6 1097.3,47.1 1103.4,37.4 1116.9,32.3 1117.2,43.4 1113.2,46.7 
	1108.9,59.6 1102,62.9 1098.6,72.2 1092.3,74.9 1091,78.8 1083.6,78.9 1071.9,87.4 1072.1,90.2 1069.3,91.1 1071.2,97.1 
	1067.5,99.7 1068.6,103.6 1065.4,103.1 1063.6,106.6 1056.8,102.9 1045.8,103.6 1045.3,97.8 1049.9,91.7 1051.8,79.7 1055.9,82 "/>
<polygon class="st1" points="948,24.7 952.1,31.6 951.1,33.5 947.9,31.2 940.8,31.2 939.2,26 941.6,22.6 936.9,21.4 935,13.2 "/>
<polygon class="st1" points="530.5,362.3 516,368.4 505.5,366.7 501.9,363 495.5,370.5 496.1,378 484.4,378.9 480.7,382.8 
	478.8,378.9 475.3,379.9 473.5,388.7 462.8,374.1 464.8,370.4 464.1,361.6 449,350.8 444.1,341.8 461.1,346.4 463.3,345.8 
	461.7,340.5 471.9,340.5 478.5,343.6 487.8,340 491.1,345 498.3,341.9 506.8,347.5 512,343.2 513.4,346.9 518.2,349.4 523.4,343.4 
	529.4,341.6 533.2,345 543.7,346.1 541.7,354.2 538.9,355.3 541.4,358.4 551,353.9 549.5,344.1 559.3,343.3 557,350.8 559.9,355.6 
	555.8,363 544.6,364.1 536.2,358.8 "/>
<polygon class="st1" points="385.4,395.6 381.9,402.1 389.3,417.8 373.8,429.3 364.3,426.2 359.6,410.5 367.1,405.8 368.1,391.2 
	376.4,382.9 388.5,389.7 "/>
<polygon class="st1" points="451.2,365.8 453.9,368.9 458.2,366.2 459.6,377.4 468.6,383.7 469.2,387.2 464.7,390.4 460.9,390.1 
	458,383.7 454.1,387.9 451,378.3 443.6,379.3 449.4,368.9 445.4,363.1 445.5,356.5 452.5,357.4 453.3,359.9 449.9,360.4 "/>
<polygon class="st1" points="604.3,401.7 587.4,410.8 581.7,409.9 578.9,404.7 581.9,399.3 587.3,401.5 601.6,398.1 "/>
<g class="st0">
	<path class="st1" d="M425.3,300.4l5.4,15.2l1.8-1.8c-4.9-0.8-9.8-2-14.6-3.6c-1.8-0.6-2.5,2.2-0.8,2.8c4.8,1.5,9.6,2.7,14.6,3.6
		c1,0.2,2.2-0.6,1.8-1.8l-5.4-15.2c-0.2-0.8-1-1.2-1.8-1C425.5,298.8,425.1,299.6,425.3,300.4L425.3,300.4z"/>
</g>
<g class="st0">
	<path class="st1" d="M998.5,131.5l4-15.6l-2.4,0.6c3.5,3.7,6.6,7.7,9.6,11.9c0.4,0.7,1.3,0.9,2,0.5s0.9-1.3,0.5-2l0,0
		c-3-4.4-6.4-8.5-10-12.4c-0.6-0.6-1.5-0.5-2.1,0c-0.2,0.2-0.3,0.4-0.4,0.6l-4,15.7c-0.2,0.8,0.3,1.6,1.1,1.7
		C997.6,132.6,998.3,132.2,998.5,131.5L998.5,131.5z"/>
</g>
<g class="st0">
	<path class="st1" d="M450.6,179.4l-0.5,9l2.8-4.5l68.9-77.2h29.1l-69.6,77.5l73.6,103.3h-28.6l-61.5-87.8l-14.2,14.8v73h-22.8
		V106.7h22.8L450.6,179.4L450.6,179.4z"/>
	<path class="st1" d="M603.5,288.2L557,183.9h24.4l38.9,92.5L603.5,288.2z M579.5,337.2L643.1,184h20L601,337.2H579.5z"/>
	<path class="st1" d="M717.1,291.4c-9,0-16.3-2.9-22-8.6c-5.7-5.8-8.7-13.2-9-22.4v-76.5h22v68.2c0.3,5.5,1.9,10,4.7,13.6
		s7.1,5.5,13,5.6c5.2,0,10.3-1.8,14.3-5.1c4.5-3.8,8.1-8.6,10.4-14c2.7-6.3,4.1-13.2,4-20.1v-48.2h21.7v103.5h-19.9l-1.9-25.5
		l1.4,4.8c-4.3,9.8-12.1,17.5-22,21.5C728.5,290.4,722.8,291.5,717.1,291.4z"/>
	<path class="st1" d="M840.5,289.4c-6.8,0-13.6-1.3-19.9-3.9c-6.3-2.4-11.8-6.4-16-11.6l9.1-13.5c3.7,3.8,7.9,6.9,12.6,9.3
		c3.9,2,8.2,3.1,12.6,3.1c2.9,0,5.8-0.4,8.6-1.2c2.5-0.7,4.7-2.2,6.4-4.2c1.7-2.2,2.6-5,2.5-7.8c0-3.8-1.1-6.8-3.4-8.9
		c-2.5-2.2-5.4-4-8.5-5.1c-3.4-1.3-7.1-2.6-11.2-3.8c-7.9-2.8-14-6.8-18.2-11.8c-4.2-5.1-6.5-11.6-6.3-18.2c0-5.4,1.3-10.7,3.8-15.4
		c2.7-4.9,6.7-9,11.5-11.8c5.1-3.1,11.3-4.6,18.6-4.6c6.1-0.1,12.1,0.8,17.9,2.6c5.5,1.9,10.6,4.9,14.9,8.9l-8.6,14.5
		c-2.7-3.1-6.1-5.5-9.9-7.1c-3.3-1.5-6.8-2.3-10.4-2.4c-2.7,0-5.3,0.4-7.8,1.4c-2.3,0.8-4.3,2.2-5.8,4c-1.5,1.9-2.3,4.2-2.2,6.6
		c-0.3,3.1,0.9,6.2,3.1,8.4c2.5,2.2,5.4,4,8.5,5.1c3.4,1.3,6.9,2.7,10.5,4c4.4,1.4,8.7,3.4,12.6,6c3.6,2.4,6.7,5.5,9,9.2
		s3.4,8.2,3.4,13.8c0,6-1.3,11.8-4.1,17.1c-2.8,5.3-7.1,9.7-12.4,12.5C856,287.9,849,289.4,840.5,289.4z"/>
	<path class="st1" d="M908,287.4V93.9h21.4v114l-0.5-4.2c3.3-6.9,8.5-12.8,15-17c6.8-4.5,14.8-6.8,24.1-6.8c9,0,16.4,2.9,22.2,8.6
		c5.8,5.7,8.8,13.2,9,22.4v76.5h-21.9v-68.5c-0.1-5.5-1.7-10-4.5-13.6s-7.3-5.4-13.4-5.4c-5.4,0-10.7,1.8-15,5.1
		c-4.7,3.6-8.4,8.4-10.7,13.9c-2.7,6.3-4,13.1-3.8,20v48.5H908z"/>
	<path class="st1" d="M1067.7,291.4c-9,0-16.3-2.9-22-8.6c-5.7-5.8-8.7-13.2-9-22.4v-76.5h21.9v68.2c0.3,5.5,1.9,10,4.7,13.6
		c2.8,3.6,7.1,5.5,13,5.6c5.2,0,10.3-1.8,14.3-5.1c4.5-3.8,8.1-8.6,10.4-14c2.7-6.3,4.1-13.2,4-20.1v-48.2h21.7v103.5h-19.8
		l-1.9-25.5l1.4,4.8c-4.3,9.8-12.1,17.5-22,21.5C1079,290.3,1073.3,291.5,1067.7,291.4z"/>
</g>
<g class="st0">
	<path class="st1" d="M157.4,6.5c-2.2,26.5-7.1,52.8-14.3,78.6c-3.5,12.8-7.7,25.7-12.5,38.3c-4.6,12.1-9.4,24.4-16,36
		c-5.9,10.5-13.9,20.5-26.3,27C77.3,192,63.6,195,51,191.5c-19.7-5.3-30.4-30.6-11.6-41.4c9.3-5.2,21.8-4.1,31.6-0.2
		c12,4.8,19.3,13.9,23.7,23.5c5.1,11,6.8,22.6,9.4,34c2.4,12.1,6,24,10.6,35.6c9.1,21.7,23.6,42.3,47.4,56.1
		c10.6,6.4,23.1,10.8,36.2,12.7c14.5,2.1,29.1,0.2,43-3.6c14.9-4,28.9-9.9,43.5-14.3c15.4-4.8,31.6-7.8,48-8.8
		c29.6-1.6,59.8,4.5,82.9,19.4c5.4,3.5,10.2,7.3,14.6,11.5c1.6,1.5,4.3-0.6,2.7-2.2c-18.5-17.8-46.1-28.6-75.1-31.3
		c-16.6-1.4-33.7-0.5-50,2.6c-16.2,3-31.4,8.1-46.5,13.5c-14.5,5.1-29.8,10.3-45.9,11.1c-14,0.6-27.8-2-40-7.3
		c-26.7-11.4-43.9-32-54.3-53.9c-5.5-11.9-9.5-24-12.2-36.4c-2.8-11.8-4.4-24-9-35.5c-4-10.2-10.3-20.3-21.8-26.7
		c-9.4-5.2-21.9-8-33.1-5.3s-18.2,10.5-19.2,19.3c-0.8,8.9,3.3,17.7,11.2,24c8.7,7.1,21.6,9.3,33.7,7.5c13.6-2.1,25.6-8.7,34.1-17.1
		c9.9-9.8,15.7-21.5,20.9-33.2c5.6-12.7,10.5-25.7,15-38.8c8.7-26.3,14.9-53.1,18.4-80.1c0.9-6.6,1.6-13.1,2.1-19.8
		C161.3,4.6,157.5,4.6,157.4,6.5L157.4,6.5z"/>
</g>
<g class="st0">
	<path class="st1" d="M1347.7,437.9c24.8-15.5,43.1-39.9,52.9-66.9c5.1-14,8-28.6,8.4-43.4c0.4-15.7-1.4-32.4-11.8-45
		c-9.7-11.6-24.5-18.8-38.4-24.7c-14.2-6-31.4-9.7-44.2,1.2c-9.4,8-14.2,22.9-5,33c7.6,8.4,21.8,8.3,30.6,1.9
		c11.2-8.3,13.7-24.3,11.9-37.1c-2.1-14.6-9.6-28.1-19.4-38.9c-10.6-11.6-24.2-20.1-38.8-26.3c-7.9-3.3-16-6.1-24.2-8.2
		c-8.5-2.4-17.1-4.6-25.7-6.2c-8.7-1.5-17.3-2.4-26.1-1c-6.2,0.9-15.7,3-17.6,10.1c-1.9,6.7,4.4,13.3,10,15.8s12.1,2.8,18.1,0.9
		c6.5-1.7,12.2-5.7,16.5-10.9c4.4-5.8,4.1-13.1,0.3-19c-3.7-6-10-10.2-16.6-12.8c-8-3.2-16.4-5.1-24.8-5.9c-17.3-1.6-34.9,1-52,3.9
		c-18.4,3.2-36.9,6.2-55.5,7.5c-9.4,0.6-18.8,1-28.2,0.9c-8.7-0.1-17.3-0.6-25.8-3c-14.6-4.1-26.4-14.3-33.2-27.8
		c-3.3-6.4-5.1-13.4-5.8-20.6c-0.1-2-3.3-2-3.2,0c1.1,13.2,6.4,25.7,15.5,35.6c9.8,10.7,23.1,16.2,37.5,18
		c8.2,0.8,16.4,1.1,24.4,0.8c8.9-0.2,17.8-0.7,26.7-1.4c17.1-1.5,33.8-4.5,50.7-7.3c16.1-2.7,32.6-5,49.1-3.5
		c8,0.7,15.9,2.6,23.3,5.4c6.4,2.6,12.8,6.9,16,13.1c7.3,13.5-9.7,24.7-21.8,25.2c-6,0.3-11.9-1.6-15.7-6.4
		c-2.6-3.2-3.7-7.5-0.5-10.6c2.5-2.5,6.2-3.4,9.6-4.2c16.5-3.8,33.8,0.9,49.7,5.1c15.5,4.1,30.9,9.3,44.6,17.6
		c12.2,7.2,22.7,17.1,30.3,28.9c7.3,11.7,11.9,25.8,9.9,39.7c-1.7,11.9-9.3,23.6-22.6,24.3c-5.2,0.4-10.4-1.4-14.3-5.1
		c-4.1-4.3-5.2-10.6-3.7-16.2c1.7-6.1,5.6-11.2,10.8-14.7c6.2-4.1,14-4.9,21.3-3.8c8.3,1.2,16,4.5,23.4,8c6.5,3,12.8,6.4,18.8,10.3
		c5.9,3.8,10.9,8.7,14.9,14.4c4.4,6.7,6.5,14.4,7.5,22.2c1.6,14.2,0.8,28.7-2.6,42.6c-6.1,26.6-20.2,51.7-40.8,70.1
		c-4.9,4.3-10.3,8.3-15.7,11.8C1344.3,436.2,1345.8,438.9,1347.7,437.9L1347.7,437.9z"/>
</g>
</svg>
