<?xml version="1.0" encoding="utf-8"?>
<!-- Generator: Adobe Illustrator 25.3.0, SVG Export Plug-In . SVG Version: 6.00 Build 0)  -->
<svg version="1.1" id="Layer_1" xmlns="http://www.w3.org/2000/svg" xmlns:xlink="http://www.w3.org/1999/xlink" x="0px" y="0px"
	 viewBox="0 0 1271.1 459.5" style="enable-background:new 0 0 1271.1 459.5;" xml:space="preserve">
<style type="text/css">
	.st0{fill:#4C91A1;}
	.st1{opacity:0.5;}
</style>
<polygon class="st0" points="863.6,119.7 872.1,112.7 893.6,105.1 897.5,98.6 889.9,93.4 879.7,92.5 876.4,85.3 879.5,82.3 
	875.6,77.8 876.2,72.6 881.5,74.9 892.9,73.4 900.7,76 902.7,77.8 899.2,83.9 902.5,88 911.8,87.1 921.4,81.9 924.6,74.1 
	932.9,70.8 932.7,68.1 947.4,56.2 951.7,47.6 950.8,42.5 953.3,41.5 962.6,47.6 966.6,65.2 948.6,87.9 930.7,88.1 931.2,94.1 
	925.9,93.2 931.5,100 919.8,106.3 908.1,103 911.4,108.8 894,118.8 890.6,124.6 874.4,120.7 866.8,125.6 868.9,130.6 876,135.2 
	875.3,139.4 885.4,148.5 884.9,151.5 874.6,143.8 867.8,145.1 854.3,169.1 856.4,171.7 863.9,170.9 866.8,175.7 850,184.8 
	845.5,190.2 835.8,193.2 831.8,191.4 827.8,169.7 842.1,155.5 851.9,151.3 852.4,149 843.4,130.9 843.7,125.3 845.4,124.1 
	847.8,127.3 "/>
<polygon class="st0" points="327.1,433.7 324.8,441.9 319.7,443.2 320,449.5 316,449.2 314.8,453.2 306.2,450 290,448.7 283.9,445 
	282.7,449 275.1,448.1 271.2,443.5 279.7,435.6 285,437.3 287.7,441.2 289.5,430.8 287.6,427.4 294.3,419.2 301.6,424.3 
	314.1,425.7 "/>
<polygon class="st0" points="373.3,416.8 384.1,415.7 383.5,412.6 390.8,403.8 395.3,406.2 398.6,399.8 396,396 401.2,391.1 
	401.8,386.9 407.6,387.8 406.2,394.6 400.2,399.1 401.3,401.6 396.1,405.9 395.8,409.5 389.5,414.2 391.1,423.6 387.4,435.7 
	370.2,438.9 367.8,434.9 361.4,432.4 366.5,428.5 367.6,423.4 358.9,419.9 355.8,423 352.7,420.2 354.1,415.8 362.5,417.3 
	362.5,410.4 "/>
<polygon class="st0" points="590.8,359.6 592.6,357.4 593.8,360.6 597.3,360.4 591.5,351.8 596.1,349 597.6,343.4 591.9,331.5 
	593.7,329.9 607.8,347.5 607.9,352 627.3,358.8 631.4,364.6 602.3,368.1 592.8,363.8 "/>
<polygon class="st0" points="653.7,145.6 644.6,141.3 642,137 656.7,133.7 664.8,141.7 660.9,145.9 662.3,152.1 655.6,149.5 "/>
<polygon class="st0" points="568,348.2 568.1,342.4 571.3,345.6 573.3,339.3 582.5,342.7 584.9,348.7 572.7,351 "/>
<polygon class="st0" points="890.9,9.7 900.1,0.8 905.2,0 899.2,9.5 884.3,19.6 "/>
<polygon class="st0" points="864,68.3 866.5,73 853.2,73.3 850.6,71.4 852.7,67.7 "/>
<polygon class="st0" points="772,164.5 774.9,166.6 774.9,171.3 772.2,173.1 773.2,177.4 768.6,181 768,172.5 "/>
<polygon class="st0" points="888.5,26.3 892.5,30.1 891.8,34.2 888.9,34.9 883.2,29.8 "/>
<polygon class="st0" points="339.5,452.7 345.2,454.9 342.1,459.5 337.3,455.9 "/>
<polygon class="st0" points="762.7,160.1 767,161.9 762.1,165.9 757.1,164.6 "/>
<g class="st1">
	<path class="st0" d="M379.7,374.4c-9.2-0.6-18.3,3-25.2,9c-7.2,6.5-11.7,15.3-12.9,24.9c-1.3,9.7,0.1,20.6,5.4,29.1
		c4.4,7.1,11.8,11.5,19.9,13c8,1.5,16.4,0.4,23.8-3c8.5-4,15.4-10.6,21-18c2.8-3.8,5.4-7.8,7.6-12c2.6-4.5,4.6-9.2,6.1-14.1
		c2.5-8.8,0.5-18.2-5.2-25.3c-5.5-7-13.6-11.4-22.5-12.3c-9.3-0.9-18.8,1.9-26.6,7c-2,1.3-3.9,2.7-5.7,4.3c-1.5,1.3,0.7,3.4,2.1,2.1
		c12.8-11.2,33.1-15.2,46.7-3.1c5.8,5.2,9.8,12.7,9.4,20.6c-0.2,5.1-2.1,9.9-4.3,14.4c-1.9,4-4,7.9-6.4,11.6
		c-8.8,13.7-22.2,25.9-39.5,25.6c-7.3-0.1-14.8-2.5-20.1-7.6c-6.5-6.3-8.9-16.2-9-24.9c-0.1-8.9,2.4-18.1,8-25.2
		c5.3-6.7,12.9-11.3,21.3-12.7c2.1-0.3,4.2-0.4,6.2-0.2C381.7,377.5,381.7,374.5,379.7,374.4L379.7,374.4z"/>
</g>
<g class="st1">
	<path class="st0" d="M752.7,168.9c-1.1,7.9,4.8,15,12.3,16.7c4,1,8.1,0.7,11.9-0.9c3.1-1.5,5.3-4.2,6.3-7.4
		c2.3-7.3-1.3-14.5-6.6-19.3c-3-2.8-6.4-4.9-10.1-6.5c-3.4-1.3-7.2-0.9-10.3,1c-3.5,2.1-5.9,5.9-6.4,9.9c-0.4,4.5,0.9,9,3.6,12.7
		c0.9,1.2,2.6-0.3,1.8-1.5c-3.9-5.3-4.7-13.3,0.7-18c2.2-2,5.2-2.9,8.2-2.5c3.3,0.6,6.4,2.9,9.1,4.9c5,3.8,9.2,9.4,8.5,16.1
		c-0.3,2.8-1.5,5.3-3.6,7.3c-2.6,2.1-6.3,2.7-9.6,2.5c-3.8-0.2-7.4-1.8-10-4.5s-3.7-6.5-3.3-10.1C755.3,167.6,753,167.3,752.7,168.9
		L752.7,168.9z"/>
</g>
</svg>
