<?xml version="1.0" encoding="utf-8"?>
<!-- Generator: Adobe Illustrator 26.0.0, SVG Export Plug-In . SVG Version: 6.00 Build 0)  -->
<svg version="1.1" id="Layer_1" xmlns="http://www.w3.org/2000/svg" xmlns:xlink="http://www.w3.org/1999/xlink" x="0px" y="0px"
	 viewBox="0 0 1903 215" style="enable-background:new 0 0 1903 215;" xml:space="preserve">
<style type="text/css">
	.st0{fill:#4D91A1;}
	.st1{fill:#5EA6AF;}
	.st2{fill:#3A7C93;}
	.st3{fill:#FFFFFF;stroke:#3A7C93;stroke-width:0.5;stroke-miterlimit:10;}
</style>
<path class="st0" d="M1655.55,121.22c-188.94,16.54-378.18,27.5-567.64,28.23c-178.4,0.68-356.71-7.7-534.95-16.08
	c-71.47-3.35-143.22-6.77-214.81-12.15H1655.55z"/>
<path class="st1" d="M1903,93.07V215H0V56.51c96,28.14,194.58,44.57,294.13,55.03c38.05,3.99,76.23,7.11,114.47,9.68
	c64.52,4.33,129.19,7.08,193.6,9.78c160.65,6.75,321.35,13.5,482.13,12.95c170.76-0.59,341.31-9.41,511.59-22.73
	c38.46-3.01,76.93-6.25,115.37-9.68C1775.23,105.84,1839.14,99.62,1903,93.07z"/>
<g>
	<g>
		<polygon class="st0" points="120.62,124.68 120.62,154.14 116.9,154.14 116.9,149.7 115.91,149.7 115.91,154.14 108.82,154.14 
			108.82,149.7 107.82,149.7 107.82,154.14 81.92,154.14 81.92,124.68 		"/>
		<path class="st2" d="M107.82,149.7v4.44H78.57c-1.22,0-2.21-0.99-2.21-2.21c0-1.23,1-2.23,2.21-2.23H107.82z"/>
		<rect x="108.82" y="149.7" class="st2" width="7.09" height="4.44"/>
		<path class="st2" d="M126.18,151.93c0,1.22-0.99,2.21-2.21,2.21h-7.06v-4.44h7.06C125.18,149.7,126.18,150.7,126.18,151.93z"/>
		<path class="st2" d="M115.91,149.7v5.09h-7.09v-5.09h-0.99v14.89c0,0.29,0.22,0.51,0.5,0.51c0.27,0,0.5-0.22,0.5-0.51v-0.46h7.09
			v0.46c0,0.29,0.22,0.51,0.5,0.51c0.27,0,0.5-0.22,0.5-0.51V149.7H115.91z M115.91,163.47h-7.09v-0.58h7.09V163.47z M115.91,162.24
			h-7.09v-0.6h7.09V162.24z M115.91,161h-7.09v-0.6h7.09V161z M115.91,159.75h-7.09v-0.6h7.09V159.75z M115.91,158.51h-7.09v-0.58
			h7.09V158.51z M115.91,157.27h-7.09v-0.58h7.09V157.27z M115.91,156.03h-7.09v-0.6h7.09V156.03z"/>
		<path class="st2" d="M126.17,122.93c-0.08,1-1.14,1.75-2.31,1.75H78.67c-1.17,0-2.23-0.75-2.31-1.75c-0.05-0.59,0.2-1.1,0.63-1.47
			l0.07-0.07l22.45-19.28c0.97-0.84,2.54-0.84,3.52,0l22.44,19.28l0.07,0.07C125.98,121.83,126.22,122.34,126.17,122.93z"/>
		<path class="st3" d="M100.65,130.35v5.09c0,0.55-0.45,1-1,1h-13.1c-0.55,0-1-0.45-1-1v-5.09c0-0.55,0.45-1,1-1h13.1
			C100.2,129.35,100.65,129.8,100.65,130.35z"/>
		<g>
			<path class="st2" d="M114.91,149.32h-5.09c-0.55,0-1-0.45-1-1v-9.66c0-0.55,0.45-1,1-1h5.09c0.55,0,1,0.45,1,1v9.66
				C115.91,148.87,115.46,149.32,114.91,149.32z"/>
			<path class="st0" d="M115.28,144.68h-2.55c-0.09,0-0.16-0.07-0.16-0.16v-0.35c0-0.09,0.07-0.16,0.16-0.16h2.55
				c0.09,0,0.16,0.07,0.16,0.16v0.35C115.45,144.61,115.37,144.68,115.28,144.68z"/>
		</g>
		<g>
			<path class="st2" d="M81.96,165.1L81.96,165.1c0.41,0,0.75-0.34,0.75-0.75v-39.67h-1.5v39.67
				C81.21,164.76,81.54,165.1,81.96,165.1z"/>
			<path class="st2" d="M120.57,165.1L120.57,165.1c-0.41,0-0.75-0.34-0.75-0.75v-39.67h1.5v39.67
				C121.32,164.76,120.99,165.1,120.57,165.1z"/>
		</g>
	</g>
	<g>
		<polygon class="st0" points="203.99,92.87 203.99,122.33 200.27,122.33 200.27,117.89 199.27,117.89 199.27,122.33 192.18,122.33 
			192.18,117.89 191.19,117.89 191.19,122.33 165.28,122.33 165.28,92.87 		"/>
		<path class="st2" d="M191.19,117.89v4.44h-29.25c-1.22,0-2.21-0.99-2.21-2.21c0-1.23,1-2.23,2.21-2.23H191.19z"/>
		<rect x="192.18" y="117.89" class="st2" width="7.09" height="4.44"/>
		<path class="st2" d="M209.54,120.12c0,1.22-0.99,2.21-2.21,2.21h-7.06v-4.44h7.06C208.55,117.89,209.54,118.89,209.54,120.12z"/>
		<path class="st2" d="M199.27,117.89v5.09h-7.09v-5.09h-0.99v14.89c0,0.29,0.22,0.51,0.5,0.51c0.27,0,0.5-0.22,0.5-0.51v-0.46h7.09
			v0.46c0,0.29,0.22,0.51,0.5,0.51c0.27,0,0.5-0.22,0.5-0.51v-14.89H199.27z M199.27,131.66h-7.09v-0.58h7.09V131.66z
			 M199.27,130.43h-7.09v-0.6h7.09V130.43z M199.27,129.19h-7.09v-0.6h7.09V129.19z M199.27,127.94h-7.09v-0.6h7.09V127.94z
			 M199.27,126.7h-7.09v-0.58h7.09V126.7z M199.27,125.46h-7.09v-0.58h7.09V125.46z M199.27,124.23h-7.09v-0.6h7.09V124.23z"/>
		<path class="st2" d="M209.54,91.12c-0.08,1-1.14,1.75-2.31,1.75h-45.19c-1.17,0-2.23-0.75-2.31-1.75
			c-0.05-0.59,0.19-1.1,0.63-1.47l0.07-0.07l22.44-19.28c0.98-0.84,2.55-0.84,3.52,0l22.45,19.28l0.07,0.07
			C209.34,90.02,209.59,90.53,209.54,91.12z"/>
		<path class="st3" d="M184.02,98.55v5.09c0,0.55-0.45,1-1,1h-13.1c-0.55,0-1-0.45-1-1v-5.09c0-0.55,0.45-1,1-1h13.1
			C183.57,97.55,184.02,97.99,184.02,98.55z"/>
		<g>
			<path class="st2" d="M198.27,117.51h-5.09c-0.55,0-1-0.45-1-1v-9.66c0-0.55,0.45-1,1-1h5.09c0.55,0,1,0.45,1,1v9.66
				C199.27,117.06,198.83,117.51,198.27,117.51z"/>
			<path class="st0" d="M198.65,112.87h-2.55c-0.09,0-0.16-0.07-0.16-0.16v-0.35c0-0.09,0.07-0.16,0.16-0.16h2.55
				c0.09,0,0.16,0.07,0.16,0.16v0.35C198.81,112.8,198.74,112.87,198.65,112.87z"/>
		</g>
		<g>
			<path class="st2" d="M165.33,133.29L165.33,133.29c0.41,0,0.75-0.34,0.75-0.75V92.87h-1.5v39.67
				C164.58,132.95,164.91,133.29,165.33,133.29z"/>
			<path class="st2" d="M203.94,133.29L203.94,133.29c-0.41,0-0.75-0.34-0.75-0.75V92.87h1.5v39.67
				C204.69,132.95,204.36,133.29,203.94,133.29z"/>
		</g>
	</g>
	<g>
		<polygon class="st0" points="280.03,140.88 280.03,170.34 276.31,170.34 276.31,165.9 275.31,165.9 275.31,170.34 268.22,170.34 
			268.22,165.9 267.23,165.9 267.23,170.34 241.32,170.34 241.32,140.88 		"/>
		<path class="st2" d="M267.23,165.91v4.44h-29.25c-1.22,0-2.21-0.99-2.21-2.21c0-1.23,1-2.23,2.21-2.23H267.23z"/>
		<rect x="268.22" y="165.91" class="st2" width="7.09" height="4.44"/>
		<path class="st2" d="M285.58,168.13c0,1.22-0.99,2.21-2.21,2.21h-7.06v-4.44h7.06C284.59,165.91,285.58,166.9,285.58,168.13z"/>
		<path class="st2" d="M275.31,165.91v5.09h-7.09v-5.09h-0.99v14.89c0,0.29,0.22,0.51,0.5,0.51c0.27,0,0.5-0.22,0.5-0.51v-0.46h7.09
			v0.46c0,0.29,0.22,0.51,0.5,0.51c0.27,0,0.5-0.22,0.5-0.51v-14.89H275.31z M275.31,179.68h-7.09v-0.58h7.09V179.68z
			 M275.31,178.44h-7.09v-0.6h7.09V178.44z M275.31,177.2h-7.09v-0.6h7.09V177.2z M275.31,175.96h-7.09v-0.6h7.09V175.96z
			 M275.31,174.71h-7.09v-0.58h7.09V174.71z M275.31,173.47h-7.09v-0.58h7.09V173.47z M275.31,172.24h-7.09v-0.6h7.09V172.24z"/>
		<path class="st2" d="M285.58,139.13c-0.08,1-1.14,1.75-2.31,1.75h-45.19c-1.17,0-2.23-0.75-2.31-1.75
			c-0.05-0.59,0.19-1.1,0.63-1.47l0.07-0.07l22.44-19.28c0.98-0.84,2.55-0.84,3.52,0l22.45,19.28l0.07,0.07
			C285.38,138.03,285.63,138.54,285.58,139.13z"/>
		<path class="st3" d="M260.06,146.56v5.09c0,0.55-0.45,1-1,1h-13.1c-0.55,0-1-0.45-1-1v-5.09c0-0.55,0.45-1,1-1h13.1
			C259.61,145.56,260.06,146.01,260.06,146.56z"/>
		<g>
			<path class="st2" d="M274.31,165.52h-5.09c-0.55,0-1-0.45-1-1v-9.66c0-0.55,0.45-1,1-1h5.09c0.55,0,1,0.45,1,1v9.66
				C275.31,165.07,274.87,165.52,274.31,165.52z"/>
			<path class="st0" d="M274.69,160.89h-2.55c-0.09,0-0.16-0.07-0.16-0.16v-0.35c0-0.09,0.07-0.16,0.16-0.16h2.55
				c0.09,0,0.16,0.07,0.16,0.16v0.35C274.85,160.81,274.78,160.89,274.69,160.89z"/>
		</g>
		<g>
			<path class="st2" d="M241.36,181.3L241.36,181.3c0.41,0,0.75-0.34,0.75-0.75v-39.67h-1.5v39.67
				C240.61,180.97,240.95,181.3,241.36,181.3z"/>
			<path class="st2" d="M279.98,181.3L279.98,181.3c-0.41,0-0.75-0.34-0.75-0.75v-39.67h1.5v39.67
				C280.73,180.97,280.4,181.3,279.98,181.3z"/>
		</g>
	</g>
	<g>
		<polygon class="st0" points="382.41,129.05 382.41,158.51 378.69,158.51 378.69,154.07 377.69,154.07 377.69,158.51 370.6,158.51 
			370.6,154.07 369.61,154.07 369.61,158.51 343.7,158.51 343.7,129.05 		"/>
		<path class="st2" d="M369.61,154.07v4.44h-29.25c-1.22,0-2.21-0.99-2.21-2.21c0-1.23,1-2.23,2.21-2.23H369.61z"/>
		<rect x="370.6" y="154.07" class="st2" width="7.09" height="4.44"/>
		<path class="st2" d="M387.96,156.3c0,1.22-0.99,2.21-2.21,2.21h-7.06v-4.44h7.06C386.97,154.07,387.96,155.07,387.96,156.3z"/>
		<path class="st2" d="M377.69,154.07v5.09h-7.09v-5.09h-0.99v14.89c0,0.29,0.22,0.51,0.5,0.51c0.27,0,0.5-0.22,0.5-0.51v-0.46h7.09
			v0.46c0,0.29,0.22,0.51,0.5,0.51c0.27,0,0.5-0.22,0.5-0.51v-14.89H377.69z M377.69,167.84h-7.09v-0.58h7.09V167.84z
			 M377.69,166.61h-7.09v-0.6h7.09V166.61z M377.69,165.37h-7.09v-0.6h7.09V165.37z M377.69,164.12h-7.09v-0.6h7.09V164.12z
			 M377.69,162.88h-7.09v-0.58h7.09V162.88z M377.69,161.64h-7.09v-0.58h7.09V161.64z M377.69,160.4h-7.09v-0.6h7.09V160.4z"/>
		<path class="st2" d="M387.96,127.3c-0.08,1-1.14,1.75-2.31,1.75h-45.19c-1.17,0-2.23-0.75-2.31-1.75
			c-0.05-0.59,0.19-1.1,0.63-1.47l0.07-0.07l22.44-19.28c0.98-0.84,2.55-0.84,3.52,0l22.45,19.28l0.07,0.07
			C387.76,126.2,388.01,126.71,387.96,127.3z"/>
		<path class="st3" d="M362.44,134.72v5.09c0,0.55-0.45,1-1,1h-13.1c-0.55,0-1-0.45-1-1v-5.09c0-0.55,0.45-1,1-1h13.1
			C361.99,133.72,362.44,134.17,362.44,134.72z"/>
		<g>
			<path class="st2" d="M376.69,153.69h-5.09c-0.55,0-1-0.45-1-1v-9.66c0-0.55,0.45-1,1-1h5.09c0.55,0,1,0.45,1,1v9.66
				C377.69,153.24,377.24,153.69,376.69,153.69z"/>
			<path class="st0" d="M377.07,149.05h-2.55c-0.09,0-0.16-0.07-0.16-0.16v-0.35c0-0.09,0.07-0.16,0.16-0.16h2.55
				c0.09,0,0.16,0.07,0.16,0.16v0.35C377.23,148.98,377.16,149.05,377.07,149.05z"/>
		</g>
		<g>
			<path class="st2" d="M343.74,169.47L343.74,169.47c0.41,0,0.75-0.34,0.75-0.75v-39.67h-1.5v39.67
				C342.99,169.13,343.33,169.47,343.74,169.47z"/>
			<path class="st2" d="M382.36,169.47L382.36,169.47c-0.41,0-0.75-0.34-0.75-0.75v-39.67h1.5v39.67
				C383.11,169.13,382.78,169.47,382.36,169.47z"/>
		</g>
	</g>
	<g>
		<polygon class="st0" points="506.45,159.52 506.45,188.98 502.73,188.98 502.73,184.54 501.73,184.54 501.73,188.98 
			494.64,188.98 494.64,184.54 493.65,184.54 493.65,188.98 467.74,188.98 467.74,159.52 		"/>
		<path class="st2" d="M493.64,184.54v4.44h-29.25c-1.22,0-2.21-0.99-2.21-2.21c0-1.23,1-2.23,2.21-2.23H493.64z"/>
		<rect x="494.64" y="184.54" class="st2" width="7.09" height="4.44"/>
		<path class="st2" d="M512,186.77c0,1.22-0.99,2.21-2.21,2.21h-7.06v-4.44h7.06C511.01,184.54,512,185.54,512,186.77z"/>
		<path class="st2" d="M501.73,184.54v5.09h-7.09v-5.09h-0.99v14.89c0,0.29,0.22,0.51,0.5,0.51c0.27,0,0.5-0.22,0.5-0.51v-0.46h7.09
			v0.46c0,0.29,0.22,0.51,0.5,0.51c0.27,0,0.5-0.22,0.5-0.51v-14.89H501.73z M501.73,198.31h-7.09v-0.58h7.09V198.31z
			 M501.73,197.08h-7.09v-0.6h7.09V197.08z M501.73,195.83h-7.09v-0.6h7.09V195.83z M501.73,194.59h-7.09v-0.6h7.09V194.59z
			 M501.73,193.35h-7.09v-0.58h7.09V193.35z M501.73,192.1h-7.09v-0.58h7.09V192.1z M501.73,190.87h-7.09v-0.6h7.09V190.87z"/>
		<path class="st2" d="M512,157.77c-0.08,1-1.14,1.75-2.31,1.75H464.5c-1.17,0-2.23-0.75-2.31-1.75c-0.05-0.59,0.19-1.1,0.63-1.47
			l0.07-0.07l22.44-19.28c0.98-0.84,2.55-0.84,3.52,0l22.45,19.28l0.07,0.07C511.8,156.67,512.05,157.18,512,157.77z"/>
		<path class="st3" d="M486.47,165.19v5.09c0,0.55-0.45,1-1,1h-13.1c-0.55,0-1-0.45-1-1v-5.09c0-0.55,0.45-1,1-1h13.1
			C486.03,164.19,486.47,164.64,486.47,165.19z"/>
		<g>
			<path class="st2" d="M500.73,184.15h-5.09c-0.55,0-1-0.45-1-1v-9.66c0-0.55,0.45-1,1-1h5.09c0.55,0,1,0.45,1,1v9.66
				C501.73,183.71,501.28,184.15,500.73,184.15z"/>
			<path class="st0" d="M501.11,179.52h-2.55c-0.09,0-0.16-0.07-0.16-0.16V179c0-0.09,0.07-0.16,0.16-0.16h2.55
				c0.09,0,0.16,0.07,0.16,0.16v0.35C501.27,179.45,501.2,179.52,501.11,179.52z"/>
		</g>
		<g>
			<path class="st2" d="M467.78,199.94L467.78,199.94c0.41,0,0.75-0.34,0.75-0.75v-39.67h-1.5v39.67
				C467.03,199.6,467.37,199.94,467.78,199.94z"/>
			<path class="st2" d="M506.4,199.94L506.4,199.94c-0.41,0-0.75-0.34-0.75-0.75v-39.67h1.5v39.67
				C507.15,199.6,506.82,199.94,506.4,199.94z"/>
		</g>
	</g>
</g>
<g>
	<g>
		<polygon class="st0" points="1821.09,124.68 1821.09,154.14 1817.37,154.14 1817.37,149.7 1816.38,149.7 1816.38,154.14 
			1809.29,154.14 1809.29,149.7 1808.29,149.7 1808.29,154.14 1782.39,154.14 1782.39,124.68 		"/>
		<path class="st2" d="M1808.29,149.7v4.44h-29.25c-1.22,0-2.21-0.99-2.21-2.21c0-1.23,1-2.23,2.21-2.23H1808.29z"/>
		<rect x="1809.28" y="149.7" class="st2" width="7.09" height="4.44"/>
		<path class="st2" d="M1826.65,151.93c0,1.22-0.99,2.21-2.21,2.21h-7.06v-4.44h7.06C1825.65,149.7,1826.65,150.7,1826.65,151.93z"
			/>
		<path class="st2" d="M1816.37,149.7v5.09h-7.09v-5.09h-0.99v14.89c0,0.29,0.22,0.51,0.5,0.51c0.27,0,0.5-0.22,0.5-0.51v-0.46h7.09
			v0.46c0,0.29,0.22,0.51,0.5,0.51c0.27,0,0.5-0.22,0.5-0.51V149.7H1816.37z M1816.37,163.47h-7.09v-0.58h7.09V163.47z
			 M1816.37,162.24h-7.09v-0.6h7.09V162.24z M1816.37,161h-7.09v-0.6h7.09V161z M1816.37,159.75h-7.09v-0.6h7.09V159.75z
			 M1816.37,158.51h-7.09v-0.58h7.09V158.51z M1816.37,157.27h-7.09v-0.58h7.09V157.27z M1816.37,156.03h-7.09v-0.6h7.09V156.03z"/>
		<path class="st2" d="M1826.64,122.93c-0.08,1-1.14,1.75-2.31,1.75h-45.19c-1.17,0-2.23-0.75-2.31-1.75
			c-0.05-0.59,0.2-1.1,0.63-1.47l0.07-0.07l22.45-19.28c0.97-0.84,2.54-0.84,3.52,0l22.44,19.28l0.07,0.07
			C1826.45,121.83,1826.69,122.34,1826.64,122.93z"/>
		<path class="st3" d="M1801.12,130.35v5.09c0,0.55-0.45,1-1,1h-13.1c-0.55,0-1-0.45-1-1v-5.09c0-0.55,0.45-1,1-1h13.1
			C1800.67,129.35,1801.12,129.8,1801.12,130.35z"/>
		<g>
			<path class="st2" d="M1815.38,149.32h-5.09c-0.55,0-1-0.45-1-1v-9.66c0-0.55,0.45-1,1-1h5.09c0.55,0,1,0.45,1,1v9.66
				C1816.38,148.87,1815.93,149.32,1815.38,149.32z"/>
			<path class="st0" d="M1815.75,144.68h-2.55c-0.09,0-0.16-0.07-0.16-0.16v-0.35c0-0.09,0.07-0.16,0.16-0.16h2.55
				c0.09,0,0.16,0.07,0.16,0.16v0.35C1815.91,144.61,1815.84,144.68,1815.75,144.68z"/>
		</g>
		<g>
			<path class="st2" d="M1782.42,165.1L1782.42,165.1c0.41,0,0.75-0.34,0.75-0.75v-39.67h-1.5v39.67
				C1781.67,164.76,1782.01,165.1,1782.42,165.1z"/>
			<path class="st2" d="M1821.04,165.1L1821.04,165.1c-0.41,0-0.75-0.34-0.75-0.75v-39.67h1.5v39.67
				C1821.79,164.76,1821.46,165.1,1821.04,165.1z"/>
		</g>
	</g>
	<g>
		<polygon class="st0" points="1737.72,92.87 1737.72,122.33 1734,122.33 1734,117.89 1733,117.89 1733,122.33 1725.91,122.33 
			1725.91,117.89 1724.92,117.89 1724.92,122.33 1699.01,122.33 1699.01,92.87 		"/>
		<path class="st2" d="M1724.92,117.89v4.44h-29.25c-1.22,0-2.21-0.99-2.21-2.21c0-1.23,0.99-2.23,2.21-2.23H1724.92z"/>
		<rect x="1725.91" y="117.89" class="st2" width="7.09" height="4.44"/>
		<path class="st2" d="M1743.28,120.12c0,1.22-0.99,2.21-2.21,2.21H1734v-4.44h7.06C1742.28,117.89,1743.28,118.89,1743.28,120.12z"
			/>
		<path class="st2" d="M1733,117.89v5.09h-7.09v-5.09h-0.99v14.89c0,0.29,0.22,0.51,0.5,0.51c0.27,0,0.5-0.22,0.5-0.51v-0.46h7.09
			v0.46c0,0.29,0.22,0.51,0.5,0.51c0.27,0,0.5-0.22,0.5-0.51v-14.89H1733z M1733,131.66h-7.09v-0.58h7.09V131.66z M1733,130.43
			h-7.09v-0.6h7.09V130.43z M1733,129.19h-7.09v-0.6h7.09V129.19z M1733,127.94h-7.09v-0.6h7.09V127.94z M1733,126.7h-7.09v-0.58
			h7.09V126.7z M1733,125.46h-7.09v-0.58h7.09V125.46z M1733,124.23h-7.09v-0.6h7.09V124.23z"/>
		<path class="st2" d="M1743.27,91.12c-0.08,1-1.14,1.75-2.31,1.75h-45.19c-1.17,0-2.23-0.75-2.31-1.75
			c-0.05-0.59,0.19-1.1,0.63-1.47l0.07-0.07l22.44-19.28c0.98-0.84,2.55-0.84,3.52,0l22.45,19.28l0.07,0.07
			C1743.07,90.02,1743.32,90.53,1743.27,91.12z"/>
		<path class="st3" d="M1717.75,98.55v5.09c0,0.55-0.45,1-1,1h-13.1c-0.55,0-1-0.45-1-1v-5.09c0-0.55,0.45-1,1-1h13.1
			C1717.3,97.55,1717.75,97.99,1717.75,98.55z"/>
		<g>
			<path class="st2" d="M1732.01,117.51h-5.09c-0.55,0-1-0.45-1-1v-9.66c0-0.55,0.45-1,1-1h5.09c0.55,0,1,0.45,1,1v9.66
				C1733.01,117.06,1732.56,117.51,1732.01,117.51z"/>
			<path class="st0" d="M1732.38,112.87h-2.55c-0.09,0-0.16-0.07-0.16-0.16v-0.35c0-0.09,0.07-0.16,0.16-0.16h2.55
				c0.09,0,0.16,0.07,0.16,0.16v0.35C1732.54,112.8,1732.47,112.87,1732.38,112.87z"/>
		</g>
		<g>
			<path class="st2" d="M1699.06,133.29L1699.06,133.29c0.41,0,0.75-0.34,0.75-0.75V92.87h-1.5v39.67
				C1698.31,132.95,1698.64,133.29,1699.06,133.29z"/>
			<path class="st2" d="M1737.68,133.29L1737.68,133.29c-0.41,0-0.75-0.34-0.75-0.75V92.87h1.5v39.67
				C1738.43,132.95,1738.09,133.29,1737.68,133.29z"/>
		</g>
	</g>
	<g>
		<polygon class="st0" points="1661.68,140.88 1661.68,170.34 1657.96,170.34 1657.96,165.9 1656.96,165.9 1656.96,170.34 
			1649.87,170.34 1649.87,165.9 1648.88,165.9 1648.88,170.34 1622.97,170.34 1622.97,140.88 		"/>
		<path class="st2" d="M1648.88,165.91v4.44h-29.25c-1.22,0-2.21-0.99-2.21-2.21c0-1.23,0.99-2.23,2.21-2.23H1648.88z"/>
		<rect x="1649.87" y="165.91" class="st2" width="7.09" height="4.44"/>
		<path class="st2" d="M1667.24,168.13c0,1.22-0.99,2.21-2.21,2.21h-7.06v-4.44h7.06C1666.24,165.91,1667.24,166.9,1667.24,168.13z"
			/>
		<path class="st2" d="M1656.96,165.91v5.09h-7.09v-5.09h-0.99v14.89c0,0.29,0.22,0.51,0.5,0.51c0.27,0,0.5-0.22,0.5-0.51v-0.46
			h7.09v0.46c0,0.29,0.22,0.51,0.5,0.51c0.27,0,0.5-0.22,0.5-0.51v-14.89H1656.96z M1656.96,179.68h-7.09v-0.58h7.09V179.68z
			 M1656.96,178.44h-7.09v-0.6h7.09V178.44z M1656.96,177.2h-7.09v-0.6h7.09V177.2z M1656.96,175.96h-7.09v-0.6h7.09V175.96z
			 M1656.96,174.71h-7.09v-0.58h7.09V174.71z M1656.96,173.47h-7.09v-0.58h7.09V173.47z M1656.96,172.24h-7.09v-0.6h7.09V172.24z"/>
		<path class="st2" d="M1667.23,139.13c-0.08,1-1.14,1.75-2.31,1.75h-45.19c-1.17,0-2.23-0.75-2.31-1.75
			c-0.05-0.59,0.19-1.1,0.63-1.47l0.07-0.07l22.44-19.28c0.98-0.84,2.55-0.84,3.52,0l22.45,19.28l0.07,0.07
			C1667.03,138.03,1667.28,138.54,1667.23,139.13z"/>
		<path class="st3" d="M1641.71,146.56v5.09c0,0.55-0.45,1-1,1h-13.1c-0.55,0-1-0.45-1-1v-5.09c0-0.55,0.45-1,1-1h13.1
			C1641.26,145.56,1641.71,146.01,1641.71,146.56z"/>
		<g>
			<path class="st2" d="M1655.97,165.52h-5.09c-0.55,0-1-0.45-1-1v-9.66c0-0.55,0.45-1,1-1h5.09c0.55,0,1,0.45,1,1v9.66
				C1656.97,165.07,1656.52,165.52,1655.97,165.52z"/>
			<path class="st0" d="M1656.34,160.89h-2.55c-0.09,0-0.16-0.07-0.16-0.16v-0.35c0-0.09,0.07-0.16,0.16-0.16h2.55
				c0.09,0,0.16,0.07,0.16,0.16v0.35C1656.5,160.81,1656.43,160.89,1656.34,160.89z"/>
		</g>
		<g>
			<path class="st2" d="M1623.02,181.3L1623.02,181.3c0.41,0,0.75-0.34,0.75-0.75v-39.67h-1.5v39.67
				C1622.27,180.97,1622.6,181.3,1623.02,181.3z"/>
			<path class="st2" d="M1661.64,181.3L1661.64,181.3c-0.41,0-0.75-0.34-0.75-0.75v-39.67h1.5v39.67
				C1662.39,180.97,1662.05,181.3,1661.64,181.3z"/>
		</g>
	</g>
	<g>
		<polygon class="st0" points="1559.3,129.05 1559.3,158.51 1555.58,158.51 1555.58,154.07 1554.58,154.07 1554.58,158.51 
			1547.49,158.51 1547.49,154.07 1546.5,154.07 1546.5,158.51 1520.59,158.51 1520.59,129.05 		"/>
		<path class="st2" d="M1546.5,154.07v4.44h-29.25c-1.22,0-2.21-0.99-2.21-2.21c0-1.23,0.99-2.23,2.21-2.23H1546.5z"/>
		<rect x="1547.5" y="154.07" class="st2" width="7.09" height="4.44"/>
		<path class="st2" d="M1564.86,156.3c0,1.22-0.99,2.21-2.21,2.21h-7.06v-4.44h7.06C1563.86,154.07,1564.86,155.07,1564.86,156.3z"
			/>
		<path class="st2" d="M1554.59,154.07v5.09h-7.09v-5.09h-0.99v14.89c0,0.29,0.22,0.51,0.5,0.51c0.27,0,0.5-0.22,0.5-0.51v-0.46
			h7.09v0.46c0,0.29,0.22,0.51,0.5,0.51c0.27,0,0.5-0.22,0.5-0.51v-14.89H1554.59z M1554.59,167.84h-7.09v-0.58h7.09V167.84z
			 M1554.59,166.61h-7.09v-0.6h7.09V166.61z M1554.59,165.37h-7.09v-0.6h7.09V165.37z M1554.59,164.12h-7.09v-0.6h7.09V164.12z
			 M1554.59,162.88h-7.09v-0.58h7.09V162.88z M1554.59,161.64h-7.09v-0.58h7.09V161.64z M1554.59,160.4h-7.09v-0.6h7.09V160.4z"/>
		<path class="st2" d="M1564.85,127.3c-0.08,1-1.14,1.75-2.31,1.75h-45.19c-1.17,0-2.23-0.75-2.31-1.75
			c-0.05-0.59,0.19-1.1,0.63-1.47l0.07-0.07l22.44-19.28c0.98-0.84,2.55-0.84,3.52,0l22.45,19.28l0.07,0.07
			C1564.65,126.2,1564.9,126.71,1564.85,127.3z"/>
		<path class="st3" d="M1539.33,134.72v5.09c0,0.55-0.45,1-1,1h-13.1c-0.55,0-1-0.45-1-1v-5.09c0-0.55,0.45-1,1-1h13.1
			C1538.88,133.72,1539.33,134.17,1539.33,134.72z"/>
		<g>
			<path class="st2" d="M1553.59,153.69h-5.09c-0.55,0-1-0.45-1-1v-9.66c0-0.55,0.45-1,1-1h5.09c0.55,0,1,0.45,1,1v9.66
				C1554.59,153.24,1554.14,153.69,1553.59,153.69z"/>
			<path class="st0" d="M1553.96,149.05h-2.55c-0.09,0-0.16-0.07-0.16-0.16v-0.35c0-0.09,0.07-0.16,0.16-0.16h2.55
				c0.09,0,0.16,0.07,0.16,0.16v0.35C1554.13,148.98,1554.05,149.05,1553.96,149.05z"/>
		</g>
		<g>
			<path class="st2" d="M1520.64,169.47L1520.64,169.47c0.41,0,0.75-0.34,0.75-0.75v-39.67h-1.5v39.67
				C1519.89,169.13,1520.23,169.47,1520.64,169.47z"/>
			<path class="st2" d="M1559.26,169.47L1559.26,169.47c-0.41,0-0.75-0.34-0.75-0.75v-39.67h1.5v39.67
				C1560.01,169.13,1559.67,169.47,1559.26,169.47z"/>
		</g>
	</g>
	<g>
		<polygon class="st0" points="1435.26,159.52 1435.26,188.98 1431.54,188.98 1431.54,184.54 1430.54,184.54 1430.54,188.98 
			1423.45,188.98 1423.45,184.54 1422.46,184.54 1422.46,188.98 1396.55,188.98 1396.55,159.52 		"/>
		<path class="st2" d="M1422.46,184.54v4.44h-29.25c-1.22,0-2.21-0.99-2.21-2.21c0-1.23,0.99-2.23,2.21-2.23H1422.46z"/>
		<rect x="1423.46" y="184.54" class="st2" width="7.09" height="4.44"/>
		<path class="st2" d="M1440.82,186.77c0,1.22-0.99,2.21-2.21,2.21h-7.06v-4.44h7.06C1439.82,184.54,1440.82,185.54,1440.82,186.77z
			"/>
		<path class="st2" d="M1430.55,184.54v5.09h-7.09v-5.09h-0.99v14.89c0,0.29,0.22,0.51,0.5,0.51c0.27,0,0.5-0.22,0.5-0.51v-0.46
			h7.09v0.46c0,0.29,0.22,0.51,0.5,0.51c0.27,0,0.5-0.22,0.5-0.51v-14.89H1430.55z M1430.55,198.31h-7.09v-0.58h7.09V198.31z
			 M1430.55,197.08h-7.09v-0.6h7.09V197.08z M1430.55,195.83h-7.09v-0.6h7.09V195.83z M1430.55,194.59h-7.09v-0.6h7.09V194.59z
			 M1430.55,193.35h-7.09v-0.58h7.09V193.35z M1430.55,192.1h-7.09v-0.58h7.09V192.1z M1430.55,190.87h-7.09v-0.6h7.09V190.87z"/>
		<path class="st2" d="M1440.81,157.77c-0.08,1-1.14,1.75-2.31,1.75h-45.19c-1.17,0-2.23-0.75-2.31-1.75
			c-0.05-0.59,0.19-1.1,0.63-1.47l0.07-0.07l22.44-19.28c0.98-0.84,2.55-0.84,3.52,0l22.45,19.28l0.07,0.07
			C1440.61,156.67,1440.86,157.18,1440.81,157.77z"/>
		<path class="st3" d="M1415.29,165.19v5.09c0,0.55-0.45,1-1,1h-13.1c-0.55,0-1-0.45-1-1v-5.09c0-0.55,0.45-1,1-1h13.1
			C1414.84,164.19,1415.29,164.64,1415.29,165.19z"/>
		<g>
			<path class="st2" d="M1429.55,184.15h-5.09c-0.55,0-1-0.45-1-1v-9.66c0-0.55,0.45-1,1-1h5.09c0.55,0,1,0.45,1,1v9.66
				C1430.55,183.71,1430.1,184.15,1429.55,184.15z"/>
			<path class="st0" d="M1429.92,179.52h-2.55c-0.09,0-0.16-0.07-0.16-0.16V179c0-0.09,0.07-0.16,0.16-0.16h2.55
				c0.09,0,0.16,0.07,0.16,0.16v0.35C1430.09,179.45,1430.01,179.52,1429.92,179.52z"/>
		</g>
		<g>
			<path class="st2" d="M1396.6,199.94L1396.6,199.94c0.41,0,0.75-0.34,0.75-0.75v-39.67h-1.5v39.67
				C1395.85,199.6,1396.19,199.94,1396.6,199.94z"/>
			<path class="st2" d="M1435.22,199.94L1435.22,199.94c-0.41,0-0.75-0.34-0.75-0.75v-39.67h1.5v39.67
				C1435.97,199.6,1435.63,199.94,1435.22,199.94z"/>
		</g>
	</g>
</g>
<path class="st2" d="M2151.15,119.95"/>
</svg>
