<?xml version="1.0" encoding="utf-8"?>
<!-- Generator: Adobe Illustrator 25.3.0, SVG Export Plug-In . SVG Version: 6.00 Build 0)  -->
<svg version="1.1" id="Layer_1" xmlns="http://www.w3.org/2000/svg" xmlns:xlink="http://www.w3.org/1999/xlink" x="0px" y="0px"
	 viewBox="0 0 80 80" style="enable-background:new 0 0 80 80;" xml:space="preserve">
<style type="text/css">
	.st0{opacity:0.5;fill:#0B2C3D;}
	.st1{fill:#FFFFFF;}
	.st2{font-family:'RoundedMplus1c-Regular';}
	.st3{font-size:34.2857px;}
</style>
<g>
	<path class="st0" d="M77.5,33.1v31c0,7.4-5.9,13.4-13.1,13.4H15.6c-7.3,0-13.1-6-13.1-13.4v-31c0-2.1,0.9-4,2.6-5.3l2-1.5
		c0,0,0,0,0,0L36.1,3.8c2.3-1.8,5.5-1.8,7.8,0L73,26.3l0,0l2,1.5C76.6,29.1,77.5,31,77.5,33.1z"/>
	<text transform="matrix(1 0 0 1 22.8574 62.1602)" class="st1 st2 st3">一</text>
</g>
<g>
	<path class="st0" d="M100-97.6v31c0,7.4-5.9,13.4-13.1,13.4H38.1c-7.3,0-13.1-6-13.1-13.4v-31c0-2.1,0.9-4,2.6-5.3l2-1.5
		c0,0,0,0,0,0l29.1-22.5c2.3-1.8,5.5-1.8,7.8,0l29.1,22.5l0,0l2,1.5C99.1-101.6,100-99.6,100-97.6z"/>
	<text transform="matrix(1 0 0 1 45.3603 -69.7901)" class="st1 st2 st3">二</text>
</g>
<g>
	<path class="st0" d="M234.7-97.6v31c0,7.4-5.9,13.4-13.1,13.4h-48.7c-7.3,0-13.1-6-13.1-13.4v-31c0-2.1,0.9-4,2.6-5.3l2-1.5
		c0,0,0,0,0,0l29.1-22.5c2.3-1.8,5.5-1.8,7.8,0l29.1,22.5l0,0l2,1.5C233.8-101.6,234.7-99.6,234.7-97.6z"/>
	<text transform="matrix(1 0 0 1 180.0937 -69.6807)" class="st1 st2 st3">三</text>
</g>
<g>
	<path class="st0" d="M377.7-97.6v31c0,7.4-5.9,13.4-13.1,13.4h-48.7c-7.3,0-13.1-6-13.1-13.4v-31c0-2.1,0.9-4,2.6-5.3l2-1.5
		c0,0,0,0,0,0l29.1-22.5c2.3-1.8,5.5-1.8,7.8,0l29.1,22.5l0,0l2,1.5C376.7-101.6,377.7-99.6,377.7-97.6z"/>
	<text transform="matrix(1 0 0 1 323.034 -68.7196)" class="st1 st2 st3">四</text>
</g>
<text transform="matrix(1 0 0 1 29.7223 -176.7696)" style="font-family:'MyriadPro-Regular'; font-size:35px;">M PLUS ROUNDED</text>
</svg>
