<?xml version="1.0" encoding="utf-8"?>
<!-- Generator: Adobe Illustrator 25.3.0, SVG Export Plug-In . SVG Version: 6.00 Build 0)  -->
<svg version="1.1" id="visual" xmlns="http://www.w3.org/2000/svg" xmlns:xlink="http://www.w3.org/1999/xlink" x="0px" y="0px"
	 viewBox="0 0 1700 160" style="enable-background:new 0 0 1700 160;" xml:space="preserve">
<style type="text/css">
	.st0{fill:#5EA6AF;}
	.st1{fill:#468593;}
	.st2{fill:#316677;}
	.st3{fill:#1E485A;}
	.st4{fill:#0C2C3D;}
</style>
<g>
	<path class="st0" d="M0,4.9h47.2c47.1,0,141.5,0,236,5.9s189.1,17.6,283.6,23.1s188.9,4.9,283.2,2.9s188.7-5.2,283.2-3.9
		c94.5,1.3,189.1,7.2,283.6,5.7c94.5-1.6,188.9-10.4,236-14.9l47.2-4.4V160h-47.2c-47.1,0-141.5,0-236,0s-189.1,0-283.6,0
		s-188.9,0-283.2,0s-188.7,0-283.2,0s-189.1,0-283.6,0s-188.9,0-236,0H0V4.9z"/>
	<path class="st1" d="M0,41.7l47.2,1.8c47.1,1.7,141.5,5.4,236,10.1s189.1,10.5,283.6,8.6c94.5-1.9,188.9-11.6,283.2-15.8
		s188.7-3.2,283.2-5.5c94.5-2.4,189.1-8.1,283.6-6.1c94.5,2.2,188.9,12.2,236,17.3l47.2,5V160h-47.2c-47.1,0-141.5,0-236,0
		s-189.1,0-283.6,0s-188.9,0-283.2,0s-188.7,0-283.2,0s-189.1,0-283.6,0s-188.9,0-236,0H0V41.7z"/>
	<path class="st2" d="M0,90.1l47.2-4.2c47.1-4.1,141.5-12.4,236-13.5c94.5-1.1,189.1,4.9,283.6,8.4c94.5,3.4,188.9,4.4,283.2,4.9
		c94.3,0.5,188.7,0.8,283.2-2.6c94.5-3.4,189.1-10.4,283.6-15.1c94.5-4.8,188.9-7.5,236-8.9l47.2-1.3V160h-47.2
		c-47.1,0-141.5,0-236,0s-189.1,0-283.6,0s-188.9,0-283.2,0s-188.7,0-283.2,0s-189.1,0-283.6,0s-188.9,0-236,0H0V90.1z"/>
	<path class="st3" d="M0,84l47.2,4c47.1,4,141.5,12.1,236,16.3c94.5,4.1,189.1,4.4,283.6,2.4c94.5-2,188.9-6.3,283.2-9.9
		s188.7-6.5,283.2-4.5s189.1,9,283.6,11.7c94.5,2.7,188.9,1.1,236,0.3l47.2-0.8V160h-47.2c-47.1,0-141.5,0-236,0s-189.1,0-283.6,0
		s-188.9,0-283.2,0s-188.7,0-283.2,0s-189.1,0-283.6,0s-188.9,0-236,0H0V84z"/>
	<path class="st4" d="M0,127.7l47.2-0.2c47.1-0.3,141.5-0.7,236-1.3s189.1-1.6,283.6-0.8s188.9,3.2,283.2,4.4s188.7,0.9,283.2-2.2
		c94.5-3.2,189.1-9.2,283.6-11.2s188.9,0,236,1l47.2,1V160h-47.2c-47.1,0-141.5,0-236,0s-189.1,0-283.6,0s-188.9,0-283.2,0
		s-188.7,0-283.2,0s-189.1,0-283.6,0s-188.9,0-236,0H0V127.7z"/>
</g>
</svg>
